WaldbaJiret-Regular.ufo
<glyph name="exclam" format="2">
  <advance width="600"/>
  <unicode hex="0021"/>
  <outline>
    <contour>
      <point x="277" y="193" type="line"/>
      <point x="259" y="571" type="line"/>
      <point x="342" y="571" type="line"/>
      <point x="323" y="193" type="line"/>
    </contour>
    <contour>
      <point x="300" y="106" type="qcurve"/>
      <point x="330" y="106"/>
      <point x="369" y="70"/>
      <point x="369" y="44" type="qcurve"/>
      <point x="369" y="18"/>
      <point x="329" y="-17"/>
      <point x="300" y="-17" type="qcurve"/>
      <point x="271" y="-17"/>
      <point x="231" y="19"/>
      <point x="231" y="45" type="qcurve"/>
      <point x="231" y="71"/>
      <point x="271" y="106"/>
    </contour>
  </outline>
</glyph>
<glyph name="parenright" format="2">
  <advance width="1381"/>
  <unicode hex="0029"/>
  <outline>
    <contour>
      <point x="315.367" y="-220.987" type="line"/>
      <point x="349.897" y="-158.835"/>
      <point x="441.975" y="25.3215"/>
      <point x="527.147" y="248.611"/>
      <point x="584.696" y="501.826"/>
      <point x="584.696" y="635.339" type="qcurve"/>
      <point x="584.696" y="768.852"/>
      <point x="527.147" y="1019.76"/>
      <point x="441.975" y="1240.75"/>
      <point x="349.897" y="1427.21"/>
      <point x="315.367" y="1493.97" type="qcurve"/>
      <point x="435.069" y="1493.97" type="line"/>
      <point x="506.429" y="1383.47"/>
      <point x="614.621" y="1155.58"/>
      <point x="685.982" y="932.291"/>
      <point x="722.813" y="725.115"/>
      <point x="722.813" y="635.339" type="qcurve"/>
      <point x="722.813" y="540.959"/>
      <point x="683.68" y="326.877"/>
      <point x="610.017" y="103.588"/>
      <point x="501.826" y="-119.702"/>
      <point x="435.069" y="-220.987" type="qcurve"/>
    </contour>
  </outline>
</glyph>
<glyph name="hyphen" format="2">
  <advance width="600"/>
  <unicode hex="002D"/>
  <unicode hex="00AD"/>
  <outline>
    <contour>
      <point x="194" y="317" type="line"/>
      <point x="406" y="317" type="line"/>
      <point x="406" y="262" type="line"/>
      <point x="194" y="262" type="line"/>
    </contour>
  </outline>
</glyph>
<glyph name="one" format="2">
  <advance width="1381"/>
  <unicode hex="0031"/>
  <outline>
    <contour>
      <point x="768.852" y="1429.51" type="line"/>
      <point x="768.852" y="108.192" type="line"/>
      <point x="1162.49" y="108.192" type="line"/>
      <point x="1162.49" y="0" type="line"/>
      <point x="253.215" y="0" type="line"/>
      <point x="253.215" y="108.192" type="line"/>
      <point x="653.754" y="108.192" type="line"/>
      <point x="653.754" y="1296" type="line"/>
      <point x="285.442" y="1125.65" type="line"/>
      <point x="239.403" y="1226.94" type="line"/>
      <point x="695.19" y="1429.51" type="line"/>
    </contour>
  </outline>
</glyph>
<glyph name="six" format="2">
  <advance width="1381"/>
  <unicode hex="0036"/>
  <outline>
    <contour>
      <point x="1118.75" y="1314.41" type="line"/>
      <point x="989.839" y="1321.32"/>
      <point x="741.229" y="1302.9"/>
      <point x="534.053" y="1183.2"/>
      <point x="389.03" y="920.781"/>
      <point x="363.708" y="683.68" type="qcurve"/>
      <point x="368.312" y="679.076" type="line"/>
      <point x="382.124" y="695.19"/>
      <point x="435.069" y="755.04"/>
      <point x="517.939" y="810.287"/>
      <point x="628.433" y="851.722"/>
      <point x="702.095" y="851.722" type="qcurve"/>
      <point x="791.871" y="851.722"/>
      <point x="941.498" y="778.06"/>
      <point x="1047.39" y="653.754"/>
      <point x="1104.94" y="492.618"/>
      <point x="1104.94" y="405.144" type="qcurve"/>
      <point x="1104.94" y="317.669"/>
      <point x="1045.09" y="158.835"/>
      <point x="936.894" y="39.1332"/>
      <point x="787.268" y="-32.2273"/>
      <point x="697.491" y="-32.2273" type="qcurve"/>
      <point x="628.433" y="-32.2273"/>
      <point x="464.994" y="27.6234"/>
      <point x="326.877" y="172.646"/>
      <point x="234.799" y="414.351"/>
      <point x="234.799" y="598.508" type="qcurve"/>
      <point x="234.799" y="653.754"/>
      <point x="257.819" y="870.138"/>
      <point x="342.991" y="1111.84"/>
      <point x="517.939" y="1330.53"/>
      <point x="669.868" y="1385.78" type="qcurve"/>
      <point x="695.19" y="1394.98"/>
      <point x="766.55" y="1413.4"/>
      <point x="870.138" y="1427.21"/>
      <point x="1017.46" y="1434.12"/>
      <point x="1118.75" y="1429.51" type="qcurve"/>
    </contour>
    <contour>
      <point x="363.708" y="488.014" type="qcurve"/>
      <point x="370.614" y="368.312"/>
      <point x="444.277" y="211.78"/>
      <point x="543.261" y="119.702"/>
      <point x="653.754" y="82.8703"/>
      <point x="697.491" y="82.8703" type="qcurve"/>
      <point x="752.738" y="82.8703"/>
      <point x="854.024" y="126.607"/>
      <point x="934.593" y="209.478"/>
      <point x="980.632" y="329.179"/>
      <point x="980.632" y="405.144" type="qcurve"/>
      <point x="980.632" y="469.598"/>
      <point x="939.196" y="591.602"/>
      <point x="867.836" y="681.378"/>
      <point x="764.248" y="736.625"/>
      <point x="702.095" y="736.625" type="qcurve"/>
      <point x="683.68" y="736.625"/>
      <point x="600.809" y="725.115"/>
      <point x="501.826" y="676.774"/>
      <point x="400.54" y="577.79"/>
    </contour>
  </outline>
</glyph>
<glyph name="less" format="2">
  <advance width="1381"/>
  <unicode hex="003C"/>
  <outline>
    <contour>
      <point x="1210.83" y="1224.64" type="line"/>
      <point x="1256.87" y="1121.05" type="line"/>
      <point x="379.822" y="709.001" type="line"/>
      <point x="1256.87" y="306.16" type="line"/>
      <point x="1210.83" y="204.874" type="line"/>
      <point x="124.305" y="709.001" type="line"/>
    </contour>
  </outline>
</glyph>
<glyph name="greater" format="2">
  <advance width="1381"/>
  <unicode hex="003E"/>
  <outline>
    <contour>
      <point x="170.344" y="193.364" type="line"/>
      <point x="124.305" y="296.952" type="line"/>
      <point x="1001.35" y="709.001" type="line"/>
      <point x="124.305" y="1111.84" type="line"/>
      <point x="170.344" y="1213.13" type="line"/>
      <point x="1256.87" y="709.001" type="line"/>
    </contour>
  </outline>
</glyph>
<glyph name="A" format="2">
  <advance width="600"/>
  <unicode hex="0041"/>
  <outline>
    <contour>
      <point x="539" y="47" type="line"/>
      <point x="590" y="47" type="line"/>
      <point x="590" y="0" type="line"/>
      <point x="385" y="0" type="line"/>
      <point x="385" y="47" type="line"/>
      <point x="487" y="47" type="line"/>
      <point x="430" y="186" type="line"/>
      <point x="169" y="186" type="line"/>
      <point x="113" y="47" type="line"/>
      <point x="215" y="47" type="line"/>
      <point x="215" y="0" type="line"/>
      <point x="10" y="0" type="line"/>
      <point x="10" y="47" type="line"/>
      <point x="63" y="47" type="line"/>
      <point x="256" y="516" type="line"/>
      <point x="113" y="516" type="line"/>
      <point x="113" y="563" type="line"/>
      <point x="328" y="563" type="line"/>
    </contour>
    <contour>
      <point x="187" y="230" type="line"/>
      <point x="413" y="230" type="line"/>
      <point x="300" y="504" type="line"/>
    </contour>
  </outline>
</glyph>
<glyph name="F" format="2">
  <advance width="1381"/>
  <unicode hex="0046"/>
  <outline>
    <contour>
      <point x="1256.87" y="881.648" type="line"/>
      <point x="1153.28" y="881.648" type="line"/>
      <point x="1125.65" y="1187.81" type="line"/>
      <point x="467.296" y="1187.81" type="line"/>
      <point x="467.296" y="738.927" type="line"/>
      <point x="840.212" y="738.927" type="line"/>
      <point x="840.212" y="906.969" type="line"/>
      <point x="946.102" y="906.969" type="line"/>
      <point x="946.102" y="464.994" type="line"/>
      <point x="840.212" y="464.994" type="line"/>
      <point x="840.212" y="630.735" type="line"/>
      <point x="467.296" y="630.735" type="line"/>
      <point x="467.296" y="108.192" type="line"/>
      <point x="766.55" y="108.192" type="line"/>
      <point x="766.55" y="0" type="line"/>
      <point x="165.741" y="0" type="line"/>
      <point x="165.741" y="108.192" type="line"/>
      <point x="352.199" y="108.192" type="line"/>
      <point x="352.199" y="1187.81" type="line"/>
      <point x="165.741" y="1187.81" type="line"/>
      <point x="165.741" y="1296" type="line"/>
      <point x="1245.36" y="1296" type="line"/>
    </contour>
  </outline>
</glyph>
<glyph name="J" format="2">
  <advance width="600"/>
  <unicode hex="004A"/>
  <outline>
    <contour>
      <point x="579" y="516" type="line"/>
      <point x="452" y="516" type="line"/>
      <point x="452" y="204" type="line"/>
      <point x="452" y="162"/>
      <point x="443" y="78"/>
      <point x="423" y="47" type="qcurve"/>
      <point x="411" y="30"/>
      <point x="377" y="5"/>
      <point x="341" y="-10"/>
      <point x="304" y="-17"/>
      <point x="288" y="-17" type="qcurve"/>
      <point x="228" y="-17"/>
      <point x="129" y="20"/>
      <point x="87" y="39" type="qcurve"/>
      <point x="68" y="47" type="line"/>
      <point x="59" y="263" type="line"/>
      <point x="108" y="263" type="line"/>
      <point x="112" y="166" type="line"/>
      <point x="113" y="128"/>
      <point x="129" y="82"/>
      <point x="159" y="64" type="qcurve"/>
      <point x="188" y="46"/>
      <point x="251" y="33"/>
      <point x="277" y="33" type="qcurve"/>
      <point x="323" y="33"/>
      <point x="374" y="64"/>
      <point x="398" y="113"/>
      <point x="402" y="174"/>
      <point x="402" y="204" type="qcurve"/>
      <point x="402" y="516" type="line"/>
      <point x="205" y="516" type="line"/>
      <point x="205" y="563" type="line"/>
      <point x="579" y="563" type="line"/>
    </contour>
  </outline>
</glyph>
<glyph name="L" format="2">
  <advance width="1381"/>
  <unicode hex="004C"/>
  <outline>
    <contour>
      <point x="764.248" y="1187.81" type="line"/>
      <point x="481.108" y="1187.81" type="line"/>
      <point x="481.108" y="108.192" type="line"/>
      <point x="1132.56" y="108.192" type="line"/>
      <point x="1164.79" y="573.186" type="line"/>
      <point x="1272.98" y="573.186" type="line"/>
      <point x="1247.66" y="0" type="line"/>
      <point x="135.815" y="0" type="line"/>
      <point x="135.815" y="108.192" type="line"/>
      <point x="366.01" y="108.192" type="line"/>
      <point x="366.01" y="1187.81" type="line"/>
      <point x="135.815" y="1187.81" type="line"/>
      <point x="135.815" y="1296" type="line"/>
      <point x="764.248" y="1296" type="line"/>
    </contour>
  </outline>
</glyph>
<glyph name="bracketleft" format="2">
  <advance width="600"/>
  <unicode hex="005B"/>
  <outline>
    <contour>
      <point x="485" y="604" type="line"/>
      <point x="359" y="604" type="line"/>
      <point x="359" y="-44" type="line"/>
      <point x="485" y="-44" type="line"/>
      <point x="485" y="-94" type="line"/>
      <point x="309" y="-94" type="line"/>
      <point x="309" y="654" type="line"/>
      <point x="485" y="654" type="line"/>
    </contour>
  </outline>
</glyph>
<glyph name="a" format="2">
  <advance width="1381"/>
  <unicode hex="0061"/>
  <outline>
    <contour>
      <point x="1266.07" y="108.192" type="line"/>
      <point x="1266.07" y="0" type="line"/>
      <point x="946.102" y="0" type="line"/>
      <point x="946.102" y="165.741" type="line"/>
      <point x="911.573" y="133.513"/>
      <point x="817.193" y="62.1527"/>
      <point x="706.699" y="4.6039"/>
      <point x="577.79" y="-32.2273"/>
      <point x="506.429" y="-32.2273" type="qcurve"/>
      <point x="418.955" y="-32.2273"/>
      <point x="283.14" y="25.3215"/>
      <point x="186.458" y="117.4"/>
      <point x="135.815" y="232.497"/>
      <point x="135.815" y="292.348" type="qcurve"/>
      <point x="135.815" y="338.387"/>
      <point x="181.854" y="458.088"/>
      <point x="292.348" y="566.28"/>
      <point x="481.108" y="639.943"/>
      <point x="623.829" y="639.943" type="qcurve"/>
      <point x="630.735" y="639.943"/>
      <point x="695.19" y="637.641"/>
      <point x="784.966" y="630.735"/>
      <point x="893.157" y="619.225"/>
      <point x="946.102" y="610.017" type="qcurve"/>
      <point x="946.102" y="681.378" type="line"/>
      <point x="946.102" y="709.001"/>
      <point x="936.894" y="791.871"/>
      <point x="886.252" y="870.138"/>
      <point x="771.154" y="925.385"/>
      <point x="667.566" y="925.385" type="qcurve"/>
      <point x="605.413" y="925.385"/>
      <point x="412.049" y="888.553"/>
      <point x="273.932" y="828.703" type="qcurve"/>
      <point x="230.195" y="932.291" type="line"/>
      <point x="303.858" y="964.518"/>
      <point x="531.751" y="1035.88"/>
      <point x="669.868" y="1035.88" type="qcurve"/>
      <point x="817.193" y="1035.88"/>
      <point x="976.028" y="950.706"/>
      <point x="1049.69" y="833.307"/>
      <point x="1061.2" y="715.907"/>
      <point x="1061.2" y="681.378" type="qcurve"/>
      <point x="1061.2" y="108.192" type="line"/>
    </contour>
    <contour>
      <point x="946.102" y="504.127" type="line"/>
      <point x="906.969" y="511.033"/>
      <point x="743.53" y="529.449"/>
      <point x="646.849" y="529.449" type="qcurve"/>
      <point x="504.127" y="529.449"/>
      <point x="347.595" y="462.692"/>
      <point x="273.932" y="377.52"/>
      <point x="260.121" y="299.254"/>
      <point x="260.121" y="290.046" type="qcurve"/>
      <point x="260.121" y="246.309"/>
      <point x="299.254" y="170.344"/>
      <point x="368.312" y="112.796"/>
      <point x="455.786" y="78.2664"/>
      <point x="504.127" y="78.2664" type="qcurve"/>
      <point x="531.751" y="78.2664"/>
      <point x="621.527" y="92.0781"/>
      <point x="736.625" y="140.419"/>
      <point x="872.44" y="237.101"/>
      <point x="946.102" y="319.971" type="qcurve"/>
    </contour>
  </outline>
</glyph>
<glyph name="t" format="2">
  <advance width="1381"/>
  <unicode hex="0074"/>
  <outline>
    <contour>
      <point x="513.335" y="957.612" type="line"/>
      <point x="1070.41" y="957.612" type="line"/>
      <point x="1070.41" y="849.42" type="line"/>
      <point x="513.335" y="849.42" type="line"/>
      <point x="513.335" y="414.351" type="line"/>
      <point x="513.335" y="349.897"/>
      <point x="520.241" y="230.195"/>
      <point x="563.978" y="138.117"/>
      <point x="662.962" y="82.8703"/>
      <point x="752.738" y="82.8703" type="qcurve"/>
      <point x="780.362" y="82.8703"/>
      <point x="851.722" y="89.7761"/>
      <point x="953.008" y="112.796"/>
      <point x="1095.73" y="161.137"/>
      <point x="1197.02" y="202.572" type="qcurve"/>
      <point x="1238.45" y="98.9839" type="line"/>
      <point x="1127.96" y="48.341"/>
      <point x="877.044" y="-32.2273"/>
      <point x="764.248" y="-32.2273" type="qcurve"/>
      <point x="653.754" y="-32.2273"/>
      <point x="515.637" y="34.5293"/>
      <point x="478.806" y="71.3605" type="qcurve"/>
      <point x="418.955" y="131.211"/>
      <point x="398.238" y="299.254"/>
      <point x="398.238" y="414.351" type="qcurve"/>
      <point x="398.238" y="849.42" type="line"/>
      <point x="241.705" y="849.42" type="line"/>
      <point x="241.705" y="957.612" type="line"/>
      <point x="398.238" y="957.612" type="line"/>
      <point x="398.238" y="1296" type="line"/>
      <point x="513.335" y="1296" type="line"/>
    </contour>
  </outline>
</glyph>
<glyph name="x" format="2">
  <advance width="1381"/>
  <unicode hex="0078"/>
  <outline>
    <contour>
      <point x="538.657" y="881.648" type="line"/>
      <point x="398.238" y="881.648" type="line"/>
      <point x="685.982" y="593.904" type="line"/>
      <point x="973.726" y="881.648" type="line"/>
      <point x="840.212" y="881.648" type="line"/>
      <point x="840.212" y="989.839" type="line"/>
      <point x="1263.77" y="989.839" type="line"/>
      <point x="1263.77" y="881.648" type="line"/>
      <point x="1123.35" y="881.648" type="line"/>
      <point x="761.946" y="517.939" type="line"/>
      <point x="1176.3" y="108.192" type="line"/>
      <point x="1321.32" y="108.192" type="line"/>
      <point x="1321.32" y="0" type="line"/>
      <point x="854.024" y="0" type="line"/>
      <point x="854.024" y="108.192" type="line"/>
      <point x="1017.46" y="108.192" type="line"/>
      <point x="685.982" y="444.277" type="line"/>
      <point x="352.199" y="108.192" type="line"/>
      <point x="513.335" y="108.192" type="line"/>
      <point x="513.335" y="0" type="line"/>
      <point x="59.8508" y="0" type="line"/>
      <point x="59.8508" y="108.192" type="line"/>
      <point x="202.572" y="108.192" type="line"/>
      <point x="607.715" y="517.939" type="line"/>
      <point x="241.705" y="881.648" type="line"/>
      <point x="94.38" y="881.648" type="line"/>
      <point x="94.38" y="989.839" type="line"/>
      <point x="538.657" y="989.839" type="line"/>
    </contour>
  </outline>
</glyph>
<glyph name="y" format="2">
  <advance width="600"/>
  <unicode hex="0079"/>
  <outline>
    <contour>
      <point x="211" y="383" type="line"/>
      <point x="142" y="383" type="line"/>
      <point x="300" y="79" type="line"/>
      <point x="474" y="383" type="line"/>
      <point x="406" y="383" type="line"/>
      <point x="406" y="430" type="line"/>
      <point x="589" y="430" type="line"/>
      <point x="589" y="383" type="line"/>
      <point x="531" y="383" type="line"/>
      <point x="251" y="-106" type="line"/>
      <point x="340" y="-106" type="line"/>
      <point x="340" y="-153" type="line"/>
      <point x="40" y="-153" type="line"/>
      <point x="40" y="-106" type="line"/>
      <point x="194" y="-106" type="line"/>
      <point x="271" y="27" type="line"/>
      <point x="85" y="383" type="line"/>
      <point x="24" y="383" type="line"/>
      <point x="24" y="430" type="line"/>
      <point x="211" y="430" type="line"/>
    </contour>
  </outline>
</glyph>
<glyph name="bar" format="2">
  <advance width="1381"/>
  <unicode hex="007C"/>
  <outline>
    <contour>
      <point x="630.735" y="-425.861" type="line"/>
      <point x="630.735" y="1549.21" type="line"/>
      <point x="752.738" y="1549.21" type="line"/>
      <point x="752.738" y="-425.861" type="line"/>
    </contour>
  </outline>
</glyph>
<glyph name="asciitilde" format="2">
  <advance width="1381"/>
  <unicode hex="007E"/>
  <outline>
    <contour>
      <point x="1185.51" y="803.381" type="line"/>
      <point x="1171.69" y="778.06"/>
      <point x="1123.35" y="704.397"/>
      <point x="1051.99" y="635.339"/>
      <point x="959.914" y="584.696"/>
      <point x="902.365" y="584.696" type="qcurve"/>
      <point x="893.157" y="584.696"/>
      <point x="867.836" y="586.998"/>
      <point x="821.797" y="598.508"/>
      <point x="745.832" y="623.829"/>
      <point x="685.982" y="649.15" type="qcurve"/>
      <point x="630.735" y="672.17"/>
      <point x="566.28" y="699.793"/>
      <point x="524.845" y="713.605"/>
      <point x="494.92" y="718.209"/>
      <point x="478.806" y="718.209" type="qcurve"/>
      <point x="409.747" y="718.209"/>
      <point x="322.273" y="610.017"/>
      <point x="273.932" y="527.147" type="qcurve"/>
      <point x="197.968" y="616.923" type="line"/>
      <point x="220.987" y="656.056"/>
      <point x="273.932" y="738.927"/>
      <point x="340.689" y="805.683"/>
      <point x="423.559" y="849.42"/>
      <point x="478.806" y="849.42" type="qcurve"/>
      <point x="529.449" y="849.42"/>
      <point x="630.735" y="814.891"/>
      <point x="720.511" y="775.758" type="qcurve"/>
      <point x="766.55" y="757.342"/>
      <point x="826.401" y="734.323"/>
      <point x="863.232" y="720.511"/>
      <point x="888.553" y="715.907"/>
      <point x="900.063" y="715.907" type="qcurve"/>
      <point x="913.875" y="715.907"/>
      <point x="955.31" y="725.115"/>
      <point x="1008.25" y="757.342"/>
      <point x="1065.8" y="817.193"/>
      <point x="1095.73" y="870.138" type="qcurve"/>
      <point x="1095.73" y="874.742"/>
      <point x="1104.94" y="888.553"/>
      <point x="1107.24" y="890.855" type="qcurve"/>
    </contour>
  </outline>
</glyph>
<glyph name="exclamdown" format="2">
  <advance width="1381"/>
  <unicode hex="00A1"/>
  <outline>
    <contour>
      <point x="743.53" y="552.468" type="line"/>
      <point x="784.966" y="-317.669" type="line"/>
      <point x="593.904" y="-317.669" type="line"/>
      <point x="637.641" y="552.468" type="line"/>
    </contour>
    <contour>
      <point x="690.586" y="752.738" type="qcurve"/>
      <point x="621.527" y="752.738"/>
      <point x="531.751" y="835.609"/>
      <point x="531.751" y="895.459" type="qcurve"/>
      <point x="531.751" y="955.31"/>
      <point x="623.829" y="1035.88"/>
      <point x="690.586" y="1035.88" type="qcurve"/>
      <point x="757.342" y="1035.88"/>
      <point x="849.42" y="953.008"/>
      <point x="849.42" y="893.157" type="qcurve"/>
      <point x="849.42" y="833.307"/>
      <point x="757.342" y="752.738"/>
    </contour>
  </outline>
</glyph>
<glyph name="yen" format="2">
  <advance width="600"/>
  <unicode hex="00A5"/>
  <outline>
    <contour>
      <point x="446" y="47" type="line"/>
      <point x="446" y="0" type="line"/>
      <point x="160" y="0" type="line"/>
      <point x="160" y="47" type="line"/>
      <point x="279" y="47" type="line"/>
      <point x="279" y="139" type="line"/>
      <point x="132" y="139" type="line"/>
      <point x="132" y="186" type="line"/>
      <point x="279" y="186" type="line"/>
      <point x="279" y="244" type="line"/>
      <point x="132" y="244" type="line"/>
      <point x="132" y="291" type="line"/>
      <point x="279" y="291" type="line"/>
      <point x="279" y="304" type="line"/>
      <point x="93" y="546" type="line"/>
      <point x="32" y="546" type="line"/>
      <point x="32" y="593" type="line"/>
      <point x="229" y="593" type="line"/>
      <point x="229" y="546" type="line"/>
      <point x="153" y="546" type="line"/>
      <point x="303" y="351" type="line"/>
      <point x="450" y="546" type="line"/>
      <point x="374" y="546" type="line"/>
      <point x="374" y="593" type="line"/>
      <point x="568" y="593" type="line"/>
      <point x="568" y="546" type="line"/>
      <point x="508" y="546" type="line"/>
      <point x="327" y="304" type="line"/>
      <point x="327" y="291" type="line"/>
      <point x="471" y="291" type="line"/>
      <point x="471" y="244" type="line"/>
      <point x="327" y="244" type="line"/>
      <point x="327" y="186" type="line"/>
      <point x="471" y="186" type="line"/>
      <point x="471" y="139" type="line"/>
      <point x="327" y="139" type="line"/>
      <point x="327" y="47" type="line"/>
    </contour>
  </outline>
</glyph>
<glyph name="brokenbar" format="2">
  <advance width="1381"/>
  <unicode hex="00A6"/>
  <outline>
    <contour>
      <point x="630.735" y="690.586" type="line"/>
      <point x="630.735" y="1549.21" type="line"/>
      <point x="752.738" y="1549.21" type="line"/>
      <point x="752.738" y="690.586" type="line"/>
    </contour>
    <contour>
      <point x="630.735" y="-425.861" type="line"/>
      <point x="630.735" y="432.767" type="line"/>
      <point x="752.738" y="432.767" type="line"/>
      <point x="752.738" y="-425.861" type="line"/>
    </contour>
  </outline>
</glyph>
<glyph name="guillemotleft" format="2">
  <advance width="605"/>
  <unicode hex="00AB"/>
  <outline>
    <contour>
      <point x="399" y="50" type="line"/>
      <point x="264" y="269" type="line"/>
      <point x="399" y="487" type="line"/>
      <point x="507" y="487" type="line"/>
      <point x="372" y="269" type="line"/>
      <point x="507" y="50" type="line"/>
    </contour>
    <contour>
      <point x="209" y="50" type="line"/>
      <point x="74" y="269" type="line"/>
      <point x="209" y="487" type="line"/>
      <point x="318" y="487" type="line"/>
      <point x="183" y="269" type="line"/>
      <point x="318" y="50" type="line"/>
    </contour>
  </outline>
</glyph>
<glyph name="degree" format="2">
  <advance width="1381"/>
  <unicode hex="00B0"/>
  <outline>
    <contour>
      <point x="338.387" y="1075.01" type="qcurve"/>
      <point x="338.387" y="1148.67"/>
      <point x="393.634" y="1277.58"/>
      <point x="488.014" y="1374.27"/>
      <point x="616.923" y="1429.51"/>
      <point x="690.586" y="1429.51" type="qcurve"/>
      <point x="766.55" y="1429.51"/>
      <point x="895.459" y="1371.96"/>
      <point x="989.839" y="1275.28"/>
      <point x="1042.78" y="1146.37"/>
      <point x="1042.78" y="1075.01" type="qcurve"/>
      <point x="1042.78" y="1003.65"/>
      <point x="987.537" y="877.044"/>
      <point x="893.157" y="780.362"/>
      <point x="764.248" y="725.115"/>
      <point x="690.586" y="725.115" type="qcurve"/>
      <point x="616.923" y="725.115"/>
      <point x="488.014" y="780.362"/>
      <point x="393.634" y="874.742"/>
      <point x="338.387" y="1001.35"/>
    </contour>
    <contour>
      <point x="464.994" y="1077.31" type="qcurve"/>
      <point x="464.994" y="980.632"/>
      <point x="593.904" y="851.722"/>
      <point x="690.586" y="851.722" type="qcurve"/>
      <point x="738.927" y="851.722"/>
      <point x="821.797" y="886.252"/>
      <point x="881.648" y="948.404"/>
      <point x="916.177" y="1028.97"/>
      <point x="916.177" y="1077.31" type="qcurve"/>
      <point x="916.177" y="1174"/>
      <point x="787.268" y="1302.9"/>
      <point x="690.586" y="1302.9" type="qcurve"/>
      <point x="642.245" y="1302.9"/>
      <point x="561.676" y="1268.38"/>
      <point x="499.524" y="1208.52"/>
      <point x="464.994" y="1125.65"/>
    </contour>
  </outline>
</glyph>
<glyph name="plusminus" format="2">
  <advance width="1381"/>
  <unicode hex="00B1"/>
  <outline>
    <contour>
      <point x="748.134" y="874.742" type="line"/>
      <point x="1229.24" y="874.742" type="line"/>
      <point x="1229.24" y="759.644" type="line"/>
      <point x="748.134" y="759.644" type="line"/>
      <point x="748.134" y="308.462" type="line"/>
      <point x="633.037" y="308.462" type="line"/>
      <point x="633.037" y="759.644" type="line"/>
      <point x="151.929" y="759.644" type="line"/>
      <point x="151.929" y="874.742" type="line"/>
      <point x="633.037" y="874.742" type="line"/>
      <point x="633.037" y="1325.92" type="line"/>
      <point x="748.134" y="1325.92" type="line"/>
    </contour>
    <contour>
      <point x="1229.24" y="71.3605" type="line"/>
      <point x="151.929" y="71.3605" type="line"/>
      <point x="151.929" y="186.458" type="line"/>
      <point x="1229.24" y="186.458" type="line"/>
    </contour>
  </outline>
</glyph>
<glyph name="threesuperior" format="2">
  <advance width="1381"/>
  <unicode hex="00B3"/>
  <outline>
    <contour>
      <point x="398.238" y="1332.83" type="line"/>
      <point x="483.41" y="1388.08"/>
      <point x="586.998" y="1429.51"/>
      <point x="644.547" y="1429.51" type="qcurve"/>
      <point x="748.134" y="1429.51"/>
      <point x="886.252" y="1305.21"/>
      <point x="886.252" y="1208.52" type="qcurve"/>
      <point x="886.252" y="1102.64"/>
      <point x="798.777" y="1028.97" type="qcurve"/>
      <point x="927.687" y="948.404"/>
      <point x="927.687" y="812.589" type="qcurve"/>
      <point x="927.687" y="695.19"/>
      <point x="768.852" y="550.167"/>
      <point x="644.547" y="550.167" type="qcurve"/>
      <point x="593.904" y="550.167"/>
      <point x="504.127" y="573.186"/>
      <point x="425.861" y="605.413" type="qcurve"/>
      <point x="382.124" y="623.829" type="line"/>
      <point x="418.955" y="709.001" type="line"/>
      <point x="492.618" y="674.472"/>
      <point x="600.809" y="642.245"/>
      <point x="649.15" y="642.245" type="qcurve"/>
      <point x="729.719" y="642.245"/>
      <point x="831.005" y="738.927"/>
      <point x="831.005" y="812.589" type="qcurve"/>
      <point x="831.005" y="888.553"/>
      <point x="734.323" y="969.122"/>
      <point x="644.547" y="969.122" type="qcurve"/>
      <point x="589.3" y="969.122" type="line"/>
      <point x="589.3" y="1061.2" type="line"/>
      <point x="651.452" y="1063.5"/>
      <point x="706.699" y="1075.01"/>
      <point x="732.021" y="1093.43" type="qcurve"/>
      <point x="789.57" y="1137.16"/>
      <point x="789.57" y="1206.22" type="qcurve"/>
      <point x="789.57" y="1263.77"/>
      <point x="706.699" y="1337.43"/>
      <point x="644.547" y="1337.43" type="qcurve"/>
      <point x="605.413" y="1337.43"/>
      <point x="534.053" y="1314.41"/>
      <point x="481.108" y="1277.58" type="qcurve"/>
      <point x="446.579" y="1254.56" type="line"/>
    </contour>
  </outline>
</glyph>
<glyph name="paragraph" format="2">
  <advance width="600"/>
  <unicode hex="00B6"/>
  <outline>
    <contour>
      <point x="496" y="-47" type="line"/>
      <point x="496" y="-77" type="line"/>
      <point x="380" y="-77" type="line"/>
      <point x="380" y="-47" type="line"/>
      <point x="399" y="-47" type="line"/>
      <point x="399" y="533" type="line"/>
      <point x="317" y="533" type="line"/>
      <point x="317" y="-47" type="line"/>
      <point x="336" y="-47" type="line"/>
      <point x="336" y="-77" type="line"/>
      <point x="210" y="-77" type="line"/>
      <point x="210" y="-47" type="line"/>
      <point x="272" y="-47" type="line"/>
      <point x="272" y="261" type="line"/>
      <point x="243" y="259"/>
      <point x="183" y="271"/>
      <point x="133" y="305"/>
      <point x="101" y="366"/>
      <point x="101" y="414" type="qcurve"/>
      <point x="101" y="469"/>
      <point x="135" y="530"/>
      <point x="188" y="558"/>
      <point x="253" y="563"/>
      <point x="285" y="563" type="qcurve"/>
      <point x="492" y="563" type="line"/>
      <point x="492" y="533" type="line"/>
      <point x="444" y="533" type="line"/>
      <point x="444" y="-47" type="line"/>
    </contour>
    <contour>
      <point x="272" y="533" type="line"/>
      <point x="255" y="533"/>
      <point x="223" y="529"/>
      <point x="198" y="512"/>
      <point x="182" y="476"/>
      <point x="182" y="443" type="qcurve"/>
      <point x="182" y="383" type="line"/>
      <point x="182" y="377"/>
      <point x="186" y="345"/>
      <point x="204" y="312"/>
      <point x="240" y="288"/>
      <point x="272" y="291" type="qcurve"/>
    </contour>
  </outline>
</glyph>
<glyph name="ordmasculine" format="2">
  <advance width="600"/>
  <unicode hex="00BA"/>
  <outline>
    <contour>
      <point x="172" y="459" type="qcurve"/>
      <point x="172" y="513"/>
      <point x="243" y="580"/>
      <point x="300" y="580" type="qcurve"/>
      <point x="357" y="580"/>
      <point x="428" y="513"/>
      <point x="428" y="459" type="qcurve"/>
      <point x="428" y="405"/>
      <point x="357" y="339"/>
      <point x="300" y="339" type="qcurve"/>
      <point x="243" y="339"/>
      <point x="172" y="405"/>
    </contour>
    <contour>
      <point x="212" y="460" type="qcurve"/>
      <point x="212" y="422"/>
      <point x="261" y="375"/>
      <point x="300" y="375" type="qcurve"/>
      <point x="339" y="375"/>
      <point x="388" y="422"/>
      <point x="388" y="460" type="qcurve"/>
      <point x="388" y="497"/>
      <point x="339" y="544"/>
      <point x="300" y="544" type="qcurve"/>
      <point x="261" y="544"/>
      <point x="212" y="497"/>
    </contour>
    <contour>
      <point x="422" y="266" type="line"/>
      <point x="178" y="266" type="line"/>
      <point x="178" y="302" type="line"/>
      <point x="422" y="302" type="line"/>
    </contour>
  </outline>
</glyph>
<glyph name="guillemotright" format="2">
  <advance width="1227"/>
  <unicode hex="00BB"/>
  <outline>
    <contour>
      <point x="423.559" y="115.098" type="line"/>
      <point x="174.948" y="115.098" type="line"/>
      <point x="488.014" y="619.225" type="line"/>
      <point x="174.948" y="1121.05" type="line"/>
      <point x="423.559" y="1121.05" type="line"/>
      <point x="736.625" y="619.225" type="line"/>
    </contour>
    <contour>
      <point x="860.93" y="115.098" type="line"/>
      <point x="612.319" y="115.098" type="line"/>
      <point x="920.781" y="619.225" type="line"/>
      <point x="612.319" y="1121.05" type="line"/>
      <point x="860.93" y="1121.05" type="line"/>
      <point x="1171.69" y="619.225" type="line"/>
    </contour>
  </outline>
</glyph>
<glyph name="onehalf" format="2">
  <advance width="1381"/>
  <unicode hex="00BD"/>
  <outline>
    <contour>
      <point x="336.085" y="1431.81" type="line"/>
      <point x="336.085" y="660.66" type="line"/>
      <point x="511.033" y="660.66" type="line"/>
      <point x="511.033" y="573.186" type="line"/>
      <point x="71.3605" y="573.186" type="line"/>
      <point x="71.3605" y="660.66" type="line"/>
      <point x="248.611" y="660.66" type="line"/>
      <point x="248.611" y="1323.62" type="line"/>
      <point x="80.5683" y="1254.56" type="line"/>
      <point x="43.7371" y="1332.83" type="line"/>
      <point x="283.14" y="1431.81" type="line"/>
    </contour>
    <contour>
      <point x="172.646" y="-207.176" type="line"/>
      <point x="108.192" y="-156.533" type="line"/>
      <point x="1279.89" y="1457.14" type="line"/>
      <point x="1346.64" y="1411.1" type="line"/>
    </contour>
    <contour>
      <point x="1358.15" y="-177.25" type="line"/>
      <point x="831.005" y="-177.25" type="line"/>
      <point x="831.005" y="-87.4742" type="line"/>
      <point x="837.911" y="-80.5683"/>
      <point x="840.212" y="-78.2664"/>
      <point x="858.628" y="-64.4547"/>
      <point x="906.969" y="-20.7176"/>
      <point x="962.216" y="29.9254" type="qcurve"/>
      <point x="1019.76" y="85.1722"/>
      <point x="1102.64" y="163.439"/>
      <point x="1160.18" y="218.685"/>
      <point x="1199.32" y="257.819"/>
      <point x="1217.73" y="278.536" type="qcurve"/>
      <point x="1249.96" y="317.669"/>
      <point x="1270.68" y="382.124"/>
      <point x="1270.68" y="421.257" type="qcurve"/>
      <point x="1270.68" y="494.92"/>
      <point x="1171.69" y="591.602"/>
      <point x="1095.73" y="591.602" type="qcurve"/>
      <point x="1035.88" y="591.602"/>
      <point x="941.498" y="524.845"/>
      <point x="941.498" y="478.806" type="qcurve"/>
      <point x="941.498" y="474.202"/>
      <point x="943.8" y="462.692"/>
      <point x="943.8" y="451.183" type="qcurve"/>
      <point x="856.326" y="451.183" type="line"/>
      <point x="856.326" y="554.77" type="line"/>
      <point x="955.31" y="679.076"/>
      <point x="1100.33" y="679.076" type="qcurve"/>
      <point x="1155.58" y="679.076"/>
      <point x="1252.26" y="639.943"/>
      <point x="1321.32" y="570.884"/>
      <point x="1360.45" y="476.504"/>
      <point x="1360.45" y="421.257" type="qcurve"/>
      <point x="1360.45" y="340.689"/>
      <point x="1266.07" y="188.76"/>
      <point x="1141.77" y="78.2664" type="qcurve"/>
      <point x="999.047" y="-48.341" type="line"/>
      <point x="955.31" y="-89.7761" type="line"/>
      <point x="1279.89" y="-89.7761" type="line"/>
      <point x="1279.89" y="41.4351" type="line"/>
      <point x="1358.15" y="41.4351" type="line"/>
    </contour>
  </outline>
</glyph>
<glyph name="threequarters" format="2">
  <advance width="1381"/>
  <unicode hex="00BE"/>
  <outline>
    <contour>
      <point x="1155.58" y="554.77" type="line"/>
      <point x="890.855" y="105.89" type="line"/>
      <point x="1160.18" y="105.89" type="line"/>
      <point x="1160.18" y="554.77" type="line"/>
    </contour>
    <contour>
      <point x="1369.66" y="105.89" type="line"/>
      <point x="1369.66" y="20.7176" type="line"/>
      <point x="1247.66" y="20.7176" type="line"/>
      <point x="1247.66" y="-94.38" type="line"/>
      <point x="1369.66" y="-94.38" type="line"/>
      <point x="1369.66" y="-177.25" type="line"/>
      <point x="1005.95" y="-177.25" type="line"/>
      <point x="1005.95" y="-94.38" type="line"/>
      <point x="1160.18" y="-94.38" type="line"/>
      <point x="1160.18" y="20.7176" type="line"/>
      <point x="794.173" y="20.7176" type="line"/>
      <point x="794.173" y="112.796" type="line"/>
      <point x="1137.16" y="681.378" type="line"/>
      <point x="1247.66" y="681.378" type="line"/>
      <point x="1247.66" y="105.89" type="line"/>
    </contour>
    <contour>
      <point x="66.7566" y="1337.43" type="line"/>
      <point x="149.627" y="1390.38"/>
      <point x="255.517" y="1431.81"/>
      <point x="313.065" y="1431.81" type="qcurve"/>
      <point x="363.708" y="1431.81"/>
      <point x="453.485" y="1397.28"/>
      <point x="520.241" y="1339.74"/>
      <point x="557.072" y="1259.17"/>
      <point x="557.072" y="1213.13" type="qcurve"/>
      <point x="557.072" y="1155.58"/>
      <point x="513.335" y="1070.41"/>
      <point x="464.994" y="1031.27" type="qcurve"/>
      <point x="598.508" y="955.31"/>
      <point x="598.508" y="814.891" type="qcurve"/>
      <point x="598.508" y="697.491"/>
      <point x="437.371" y="554.77"/>
      <point x="313.065" y="554.77" type="qcurve"/>
      <point x="287.744" y="554.77"/>
      <point x="244.007" y="559.374"/>
      <point x="193.364" y="573.186"/>
      <point x="133.513" y="593.904"/>
      <point x="92.0781" y="610.017" type="qcurve"/>
      <point x="50.6429" y="626.131" type="line"/>
      <point x="85.1722" y="706.699" type="line"/>
      <point x="163.439" y="669.868"/>
      <point x="267.026" y="642.245"/>
      <point x="317.669" y="642.245" type="qcurve"/>
      <point x="400.54" y="642.245"/>
      <point x="506.429" y="736.625"/>
      <point x="506.429" y="814.891" type="qcurve"/>
      <point x="506.429" y="893.157"/>
      <point x="409.747" y="982.934"/>
      <point x="313.065" y="978.33" type="qcurve"/>
      <point x="262.423" y="976.028" type="line"/>
      <point x="262.423" y="1061.2" type="line"/>
      <point x="322.273" y="1063.5"/>
      <point x="379.822" y="1075.01"/>
      <point x="405.144" y="1093.43" type="qcurve"/>
      <point x="464.994" y="1134.86"/>
      <point x="464.994" y="1210.83" type="qcurve"/>
      <point x="464.994" y="1270.68"/>
      <point x="379.822" y="1344.34"/>
      <point x="313.065" y="1344.34" type="qcurve"/>
      <point x="273.932" y="1344.34"/>
      <point x="200.27" y="1316.72"/>
      <point x="145.023" y="1284.49" type="qcurve"/>
      <point x="110.494" y="1263.77" type="line"/>
    </contour>
    <contour>
      <point x="218.685" y="-207.176" type="line"/>
      <point x="154.231" y="-156.533" type="line"/>
      <point x="1328.23" y="1457.14" type="line"/>
      <point x="1392.68" y="1411.1" type="line"/>
    </contour>
  </outline>
</glyph>
<glyph name="Thorn" format="2">
  <advance width="1381"/>
  <unicode hex="00DE"/>
  <outline>
    <contour>
      <point x="725.115" y="0" type="line"/>
      <point x="163.439" y="0" type="line"/>
      <point x="163.439" y="108.192" type="line"/>
      <point x="349.897" y="108.192" type="line"/>
      <point x="349.897" y="1187.81" type="line"/>
      <point x="163.439" y="1187.81" type="line"/>
      <point x="163.439" y="1296" type="line"/>
      <point x="725.115" y="1296" type="line"/>
      <point x="725.115" y="1187.81" type="line"/>
      <point x="464.994" y="1187.81" type="line"/>
      <point x="464.994" y="1070.41" type="line"/>
      <point x="591.602" y="1070.41" type="line"/>
      <point x="697.491" y="1070.41"/>
      <point x="842.514" y="1065.8"/>
      <point x="946.102" y="1049.69"/>
      <point x="1022.07" y="1022.07"/>
      <point x="1058.9" y="999.047" type="qcurve"/>
      <point x="1132.56" y="953.008"/>
      <point x="1229.24" y="784.966"/>
      <point x="1229.24" y="679.076" type="qcurve"/>
      <point x="1229.24" y="575.488"/>
      <point x="1132.56" y="393.634"/>
      <point x="1058.9" y="352.199" type="qcurve"/>
      <point x="1017.46" y="326.877"/>
      <point x="939.196" y="299.254"/>
      <point x="835.609" y="285.442"/>
      <point x="695.19" y="283.14"/>
      <point x="591.602" y="283.14" type="qcurve"/>
      <point x="464.994" y="283.14" type="line"/>
      <point x="464.994" y="108.192" type="line"/>
      <point x="725.115" y="108.192" type="line"/>
    </contour>
    <contour>
      <point x="464.994" y="391.332" type="line"/>
      <point x="596.206" y="391.332" type="line"/>
      <point x="736.625" y="391.332"/>
      <point x="948.404" y="405.144"/>
      <point x="1008.25" y="453.485" type="qcurve"/>
      <point x="1040.48" y="478.806"/>
      <point x="1104.94" y="589.3"/>
      <point x="1104.94" y="672.17" type="qcurve"/>
      <point x="1104.94" y="766.55"/>
      <point x="1012.86" y="893.157"/>
      <point x="966.82" y="916.177" type="qcurve"/>
      <point x="946.102" y="927.687"/>
      <point x="900.063" y="943.8"/>
      <point x="837.911" y="955.31"/>
      <point x="752.738" y="962.216"/>
      <point x="690.586" y="962.216" type="qcurve"/>
      <point x="464.994" y="962.216" type="line"/>
    </contour>
  </outline>
</glyph>
<glyph name="germandbls" format="2">
  <advance width="600"/>
  <unicode hex="00DF"/>
  <outline>
    <contour>
      <point x="141" y="451" type="line"/>
      <point x="141" y="491"/>
      <point x="168" y="556"/>
      <point x="213" y="601"/>
      <point x="271" y="625"/>
      <point x="303" y="625" type="qcurve"/>
      <point x="336" y="625"/>
      <point x="389" y="602"/>
      <point x="425" y="563"/>
      <point x="445" y="511"/>
      <point x="445" y="482" type="qcurve"/>
      <point x="445" y="437"/>
      <point x="397" y="369"/>
      <point x="362" y="355" type="qcurve"/>
      <point x="376" y="350"/>
      <point x="427" y="329"/>
      <point x="476" y="286"/>
      <point x="513" y="215"/>
      <point x="513" y="161" type="qcurve"/>
      <point x="513" y="128"/>
      <point x="492" y="67"/>
      <point x="450" y="21"/>
      <point x="389" y="-7"/>
      <point x="349" y="-7" type="qcurve"/>
      <point x="300" y="-7"/>
      <point x="246" y="18"/>
      <point x="234" y="26" type="qcurve"/>
      <point x="234" y="78" type="line"/>
      <point x="252" y="67"/>
      <point x="308" y="43"/>
      <point x="348" y="43" type="qcurve"/>
      <point x="366" y="43"/>
      <point x="405" y="56"/>
      <point x="438" y="85"/>
      <point x="459" y="132"/>
      <point x="459" y="166" type="qcurve"/>
      <point x="459" y="319"/>
      <point x="257" y="326" type="qcurve"/>
      <point x="257" y="372" type="line"/>
      <point x="267" y="373"/>
      <point x="312" y="379"/>
      <point x="358" y="401"/>
      <point x="393" y="443"/>
      <point x="393" y="481" type="qcurve"/>
      <point x="393" y="521"/>
      <point x="347" y="575"/>
      <point x="301" y="575" type="qcurve"/>
      <point x="282" y="575"/>
      <point x="243" y="562"/>
      <point x="211" y="532"/>
      <point x="191" y="481"/>
      <point x="191" y="443" type="qcurve"/>
      <point x="191" y="0" type="line"/>
      <point x="65" y="0" type="line"/>
      <point x="65" y="47" type="line"/>
      <point x="141" y="47" type="line"/>
    </contour>
  </outline>
</glyph>
<glyph name="agrave" format="2">
  <advance width="600"/>
  <unicode hex="00E0"/>
  <outline>
    <contour>
      <point x="550" y="47" type="line"/>
      <point x="550" y="0" type="line"/>
      <point x="411" y="0" type="line"/>
      <point x="411" y="72" type="line"/>
      <point x="396" y="58"/>
      <point x="355" y="27"/>
      <point x="307" y="2"/>
      <point x="251" y="-14"/>
      <point x="220" y="-14" type="qcurve"/>
      <point x="182" y="-14"/>
      <point x="123" y="11"/>
      <point x="81" y="51"/>
      <point x="59" y="101"/>
      <point x="59" y="127" type="qcurve"/>
      <point x="59" y="147"/>
      <point x="79" y="199"/>
      <point x="127" y="246"/>
      <point x="209" y="278"/>
      <point x="271" y="278" type="qcurve"/>
      <point x="274" y="278"/>
      <point x="302" y="277"/>
      <point x="341" y="274"/>
      <point x="388" y="269"/>
      <point x="411" y="265" type="qcurve"/>
      <point x="411" y="296" type="line"/>
      <point x="411" y="308"/>
      <point x="407" y="344"/>
      <point x="385" y="378"/>
      <point x="335" y="402"/>
      <point x="290" y="402" type="qcurve"/>
      <point x="263" y="402"/>
      <point x="179" y="386"/>
      <point x="119" y="360" type="qcurve"/>
      <point x="100" y="405" type="line"/>
      <point x="132" y="419"/>
      <point x="231" y="450"/>
      <point x="291" y="450" type="qcurve"/>
      <point x="355" y="450"/>
      <point x="424" y="413"/>
      <point x="456" y="362"/>
      <point x="461" y="311"/>
      <point x="461" y="296" type="qcurve"/>
      <point x="461" y="47" type="line"/>
    </contour>
    <contour>
      <point x="411" y="219" type="line"/>
      <point x="394" y="222"/>
      <point x="323" y="230"/>
      <point x="281" y="230" type="qcurve"/>
      <point x="219" y="230"/>
      <point x="151" y="201"/>
      <point x="119" y="164"/>
      <point x="113" y="130"/>
      <point x="113" y="126" type="qcurve"/>
      <point x="113" y="107"/>
      <point x="130" y="74"/>
      <point x="160" y="49"/>
      <point x="198" y="34"/>
      <point x="219" y="34" type="qcurve"/>
      <point x="231" y="34"/>
      <point x="270" y="40"/>
      <point x="320" y="61"/>
      <point x="379" y="103"/>
      <point x="411" y="139" type="qcurve"/>
    </contour>
    <contour>
      <point x="374" y="503" type="line"/>
      <point x="322" y="503" type="line"/>
      <point x="190" y="618" type="line"/>
      <point x="297" y="618" type="line"/>
    </contour>
  </outline>
</glyph>
<glyph name="atilde" format="2">
  <advance width="1381"/>
  <unicode hex="00E3"/>
  <outline>
    <contour>
      <point x="1266.07" y="108.192" type="line"/>
      <point x="1266.07" y="0" type="line"/>
      <point x="946.102" y="0" type="line"/>
      <point x="946.102" y="165.741" type="line"/>
      <point x="911.573" y="133.513"/>
      <point x="817.193" y="62.1527"/>
      <point x="706.699" y="4.6039"/>
      <point x="577.79" y="-32.2273"/>
      <point x="506.429" y="-32.2273" type="qcurve"/>
      <point x="418.955" y="-32.2273"/>
      <point x="283.14" y="25.3215"/>
      <point x="186.458" y="117.4"/>
      <point x="135.815" y="232.497"/>
      <point x="135.815" y="292.348" type="qcurve"/>
      <point x="135.815" y="338.387"/>
      <point x="181.854" y="458.088"/>
      <point x="292.348" y="566.28"/>
      <point x="481.108" y="639.943"/>
      <point x="623.829" y="639.943" type="qcurve"/>
      <point x="630.735" y="639.943"/>
      <point x="695.19" y="637.641"/>
      <point x="784.966" y="630.735"/>
      <point x="893.157" y="619.225"/>
      <point x="946.102" y="610.017" type="qcurve"/>
      <point x="946.102" y="681.378" type="line"/>
      <point x="946.102" y="709.001"/>
      <point x="936.894" y="791.871"/>
      <point x="886.252" y="870.138"/>
      <point x="771.154" y="925.385"/>
      <point x="667.566" y="925.385" type="qcurve"/>
      <point x="605.413" y="925.385"/>
      <point x="412.049" y="888.553"/>
      <point x="273.932" y="828.703" type="qcurve"/>
      <point x="230.195" y="932.291" type="line"/>
      <point x="303.858" y="964.518"/>
      <point x="531.751" y="1035.88"/>
      <point x="669.868" y="1035.88" type="qcurve"/>
      <point x="817.193" y="1035.88"/>
      <point x="976.028" y="950.706"/>
      <point x="1049.69" y="833.307"/>
      <point x="1061.2" y="715.907"/>
      <point x="1061.2" y="681.378" type="qcurve"/>
      <point x="1061.2" y="108.192" type="line"/>
    </contour>
    <contour>
      <point x="946.102" y="504.127" type="line"/>
      <point x="906.969" y="511.033"/>
      <point x="743.53" y="529.449"/>
      <point x="646.849" y="529.449" type="qcurve"/>
      <point x="504.127" y="529.449"/>
      <point x="347.595" y="462.692"/>
      <point x="273.932" y="377.52"/>
      <point x="260.121" y="299.254"/>
      <point x="260.121" y="290.046" type="qcurve"/>
      <point x="260.121" y="246.309"/>
      <point x="299.254" y="170.344"/>
      <point x="368.312" y="112.796"/>
      <point x="455.786" y="78.2664"/>
      <point x="504.127" y="78.2664" type="qcurve"/>
      <point x="531.751" y="78.2664"/>
      <point x="621.527" y="92.0781"/>
      <point x="736.625" y="140.419"/>
      <point x="872.44" y="237.101"/>
      <point x="946.102" y="319.971" type="qcurve"/>
    </contour>
    <contour>
      <point x="1058.9" y="1394.98" type="line"/>
      <point x="1054.29" y="1390.38"/>
      <point x="1054.29" y="1378.87" type="qcurve"/>
      <point x="1026.67" y="1282.19"/>
      <point x="902.365" y="1183.2"/>
      <point x="828.703" y="1183.2" type="qcurve"/>
      <point x="789.57" y="1183.2"/>
      <point x="718.209" y="1215.43"/>
      <point x="665.264" y="1256.87" type="qcurve"/>
      <point x="610.017" y="1298.3"/>
      <point x="563.978" y="1323.62"/>
      <point x="538.657" y="1323.62" type="qcurve"/>
      <point x="492.618" y="1323.62"/>
      <point x="437.371" y="1249.96"/>
      <point x="418.955" y="1203.92" type="qcurve"/>
      <point x="418.955" y="1201.62"/>
      <point x="416.653" y="1197.02" type="qcurve"/>
      <point x="414.351" y="1190.11" type="line"/>
      <point x="322.273" y="1222.34" type="line"/>
      <point x="354.501" y="1309.81"/>
      <point x="453.485" y="1427.21"/>
      <point x="538.657" y="1427.21" type="qcurve"/>
      <point x="593.904" y="1427.21"/>
      <point x="672.17" y="1381.17"/>
      <point x="709.001" y="1348.94" type="qcurve"/>
      <point x="752.738" y="1316.72"/>
      <point x="810.287" y="1286.79"/>
      <point x="835.609" y="1286.79" type="qcurve"/>
      <point x="865.534" y="1286.79"/>
      <point x="909.271" y="1316.72"/>
      <point x="939.196" y="1360.45"/>
      <point x="959.914" y="1406.49"/>
      <point x="966.82" y="1424.91" type="qcurve"/>
    </contour>
  </outline>
</glyph>
<glyph name="ccedilla" format="2">
  <advance width="1381"/>
  <unicode hex="00E7"/>
  <outline>
    <contour>
      <point x="759.644" y="-59.8508" type="line"/>
      <point x="807.985" y="-71.3605"/>
      <point x="854.024" y="-147.325"/>
      <point x="854.024" y="-186.458" type="qcurve"/>
      <point x="854.024" y="-204.874"/>
      <point x="840.212" y="-255.517"/>
      <point x="810.287" y="-301.556"/>
      <point x="757.342" y="-331.481"/>
      <point x="715.907" y="-331.481" type="qcurve"/>
      <point x="669.868" y="-331.481"/>
      <point x="610.017" y="-299.254"/>
      <point x="582.394" y="-280.838" type="qcurve"/>
      <point x="633.037" y="-195.666" type="line"/>
      <point x="669.868" y="-220.987"/>
      <point x="690.586" y="-230.195"/>
      <point x="706.699" y="-230.195" type="qcurve"/>
      <point x="734.323" y="-230.195"/>
      <point x="750.436" y="-200.27"/>
      <point x="750.436" y="-188.76" type="qcurve"/>
      <point x="750.436" y="-158.835"/>
      <point x="711.303" y="-149.627"/>
      <point x="702.095" y="-149.627" type="qcurve"/>
      <point x="683.68" y="-149.627"/>
      <point x="660.66" y="-151.929"/>
      <point x="649.15" y="-154.231" type="qcurve"/>
      <point x="658.358" y="-29.9254" type="line"/>
      <point x="568.582" y="-27.6234"/>
      <point x="391.332" y="46.039"/>
      <point x="250.913" y="181.854"/>
      <point x="163.439" y="375.218"/>
      <point x="163.439" y="497.222" type="qcurve"/>
      <point x="163.439" y="589.3"/>
      <point x="230.195" y="775.758"/>
      <point x="363.708" y="927.687"/>
      <point x="570.884" y="1024.37"/>
      <point x="713.605" y="1024.37" type="qcurve"/>
      <point x="803.381" y="1024.37"/>
      <point x="941.498" y="980.632"/>
      <point x="1012.86" y="929.989" type="qcurve"/>
      <point x="1015.16" y="927.687"/>
      <point x="1040.48" y="909.271"/>
      <point x="1058.9" y="895.459"/>
      <point x="1061.2" y="895.459" type="qcurve"/>
      <point x="1068.11" y="895.459"/>
      <point x="1077.31" y="920.781"/>
      <point x="1079.62" y="925.385" type="qcurve"/>
      <point x="1098.03" y="1019.76" type="line"/>
      <point x="1203.92" y="1008.25" type="line"/>
      <point x="1199.32" y="973.726"/>
      <point x="1183.2" y="856.326"/>
      <point x="1183.2" y="796.475" type="qcurve"/>
      <point x="1183.2" y="734.323"/>
      <point x="1190.11" y="644.547" type="qcurve"/>
      <point x="1084.22" y="628.433" type="line"/>
      <point x="1065.8" y="706.699"/>
      <point x="1033.58" y="796.475"/>
      <point x="989.839" y="833.307" type="qcurve"/>
      <point x="957.612" y="858.628"/>
      <point x="883.95" y="888.553"/>
      <point x="812.589" y="904.667"/>
      <point x="748.134" y="909.271"/>
      <point x="725.115" y="909.271" type="qcurve"/>
      <point x="614.621" y="909.271"/>
      <point x="451.183" y="837.911"/>
      <point x="340.689" y="720.511"/>
      <point x="287.744" y="575.488"/>
      <point x="287.744" y="499.524" type="qcurve"/>
      <point x="287.744" y="425.861"/>
      <point x="338.387" y="278.536"/>
      <point x="441.975" y="158.835"/>
      <point x="603.111" y="82.8703"/>
      <point x="715.907" y="82.8703" type="qcurve"/>
      <point x="840.212" y="82.8703"/>
      <point x="1077.31" y="191.062"/>
      <point x="1203.92" y="278.536" type="qcurve"/>
      <point x="1263.77" y="191.062" type="line"/>
      <point x="1137.16" y="94.38"/>
      <point x="904.667" y="-16.1137"/>
      <point x="759.644" y="-29.9254" type="qcurve"/>
    </contour>
  </outline>
</glyph>
<glyph name="eth" format="2">
  <advance width="1381"/>
  <unicode hex="00F0"/>
  <outline>
    <contour>
      <point x="391.332" y="1187.81" type="line"/>
      <point x="506.429" y="1362.76" type="line"/>
      <point x="462.692" y="1383.47"/>
      <point x="398.238" y="1413.4"/>
      <point x="340.689" y="1436.42"/>
      <point x="285.442" y="1454.83"/>
      <point x="250.913" y="1466.34" type="qcurve"/>
      <point x="290.046" y="1579.14" type="line"/>
      <point x="333.783" y="1565.33"/>
      <point x="400.54" y="1542.31"/>
      <point x="462.692" y="1516.99"/>
      <point x="529.449" y="1487.06"/>
      <point x="570.884" y="1466.34" type="qcurve"/>
      <point x="665.264" y="1620.57" type="line"/>
      <point x="764.248" y="1556.12" type="line"/>
      <point x="674.472" y="1413.4" type="line"/>
      <point x="709.001" y="1392.68"/>
      <point x="824.099" y="1316.72"/>
      <point x="955.31" y="1208.52"/>
      <point x="1086.52" y="1063.5"/>
      <point x="1194.71" y="879.346"/>
      <point x="1261.47" y="656.056"/>
      <point x="1261.47" y="522.543" type="qcurve"/>
      <point x="1261.47" y="389.03"/>
      <point x="1174" y="181.854"/>
      <point x="1019.76" y="41.4351"/>
      <point x="810.287" y="-32.2273"/>
      <point x="690.586" y="-32.2273" type="qcurve"/>
      <point x="547.865" y="-32.2273"/>
      <point x="333.783" y="59.8508"/>
      <point x="191.062" y="209.478"/>
      <point x="119.702" y="400.54"/>
      <point x="119.702" y="501.826" type="qcurve"/>
      <point x="119.702" y="628.433"/>
      <point x="211.78" y="826.401"/>
      <point x="366.01" y="964.518"/>
      <point x="563.978" y="1035.88"/>
      <point x="669.868" y="1035.88" type="qcurve"/>
      <point x="759.644" y="1035.88"/>
      <point x="934.593" y="999.047"/>
      <point x="985.235" y="973.726" type="qcurve"/>
      <point x="989.839" y="978.33" type="line"/>
      <point x="957.612" y="1019.76"/>
      <point x="893.157" y="1095.73"/>
      <point x="807.985" y="1176.3"/>
      <point x="692.888" y="1259.17"/>
      <point x="610.017" y="1307.51" type="qcurve"/>
      <point x="490.316" y="1118.75" type="line"/>
    </contour>
    <contour>
      <point x="244.007" y="501.826" type="qcurve"/>
      <point x="244.007" y="418.955"/>
      <point x="301.556" y="267.026"/>
      <point x="416.653" y="147.325"/>
      <point x="582.394" y="75.9644"/>
      <point x="690.586" y="75.9644" type="qcurve"/>
      <point x="801.079" y="75.9644"/>
      <point x="969.122" y="149.627"/>
      <point x="1079.62" y="269.328"/>
      <point x="1137.16" y="421.257"/>
      <point x="1137.16" y="501.826" type="qcurve"/>
      <point x="1137.16" y="580.092"/>
      <point x="1079.62" y="734.323"/>
      <point x="966.82" y="854.024"/>
      <point x="801.079" y="927.687"/>
      <point x="690.586" y="927.687" type="qcurve"/>
      <point x="582.394" y="927.687"/>
      <point x="416.653" y="856.326"/>
      <point x="303.858" y="738.927"/>
      <point x="244.007" y="584.696"/>
    </contour>
  </outline>
</glyph>
<glyph name="ntilde" format="2">
  <advance width="1381"/>
  <unicode hex="00F1"/>
  <outline>
    <contour>
      <point x="382.124" y="860.93" type="line"/>
      <point x="418.955" y="888.553"/>
      <point x="506.429" y="946.102"/>
      <point x="605.413" y="994.443"/>
      <point x="715.907" y="1024.37"/>
      <point x="778.06" y="1024.37" type="qcurve"/>
      <point x="856.326" y="1024.37"/>
      <point x="982.934" y="969.122"/>
      <point x="1072.71" y="867.836"/>
      <point x="1121.05" y="727.417"/>
      <point x="1121.05" y="644.547" type="qcurve"/>
      <point x="1121.05" y="108.192" type="line"/>
      <point x="1305.21" y="108.192" type="line"/>
      <point x="1305.21" y="0" type="line"/>
      <point x="807.985" y="0" type="line"/>
      <point x="807.985" y="108.192" type="line"/>
      <point x="1005.95" y="108.192" type="line"/>
      <point x="1005.95" y="635.339" type="line"/>
      <point x="1005.95" y="761.946"/>
      <point x="883.95" y="909.271"/>
      <point x="780.362" y="909.271" type="qcurve"/>
      <point x="752.738" y="909.271"/>
      <point x="679.076" y="897.761"/>
      <point x="582.394" y="858.628"/>
      <point x="460.39" y="787.268"/>
      <point x="382.124" y="725.115" type="qcurve"/>
      <point x="382.124" y="108.192" type="line"/>
      <point x="575.488" y="108.192" type="line"/>
      <point x="575.488" y="0" type="line"/>
      <point x="78.2664" y="0" type="line"/>
      <point x="78.2664" y="108.192" type="line"/>
      <point x="267.026" y="108.192" type="line"/>
      <point x="267.026" y="881.648" type="line"/>
      <point x="78.2664" y="881.648" type="line"/>
      <point x="78.2664" y="989.839" type="line"/>
      <point x="382.124" y="989.839" type="line"/>
    </contour>
    <contour>
      <point x="1058.9" y="1394.98" type="line"/>
      <point x="1054.29" y="1390.38"/>
      <point x="1054.29" y="1378.87" type="qcurve"/>
      <point x="1026.67" y="1282.19"/>
      <point x="902.365" y="1183.2"/>
      <point x="828.703" y="1183.2" type="qcurve"/>
      <point x="789.57" y="1183.2"/>
      <point x="718.209" y="1215.43"/>
      <point x="665.264" y="1256.87" type="qcurve"/>
      <point x="610.017" y="1298.3"/>
      <point x="563.978" y="1323.62"/>
      <point x="538.657" y="1323.62" type="qcurve"/>
      <point x="492.618" y="1323.62"/>
      <point x="437.371" y="1249.96"/>
      <point x="418.955" y="1203.92" type="qcurve"/>
      <point x="418.955" y="1201.62"/>
      <point x="416.653" y="1197.02" type="qcurve"/>
      <point x="414.351" y="1190.11" type="line"/>
      <point x="322.273" y="1222.34" type="line"/>
      <point x="354.501" y="1309.81"/>
      <point x="453.485" y="1427.21"/>
      <point x="538.657" y="1427.21" type="qcurve"/>
      <point x="593.904" y="1427.21"/>
      <point x="672.17" y="1381.17"/>
      <point x="709.001" y="1348.94" type="qcurve"/>
      <point x="752.738" y="1316.72"/>
      <point x="810.287" y="1286.79"/>
      <point x="835.609" y="1286.79" type="qcurve"/>
      <point x="865.534" y="1286.79"/>
      <point x="909.271" y="1316.72"/>
      <point x="939.196" y="1360.45"/>
      <point x="959.914" y="1406.49"/>
      <point x="966.82" y="1424.91" type="qcurve"/>
    </contour>
  </outline>
</glyph>
<glyph name="otilde" format="2">
  <advance width="1381"/>
  <unicode hex="00F5"/>
  <outline>
    <contour>
      <point x="119.702" y="501.826" type="qcurve"/>
      <point x="119.702" y="605.413"/>
      <point x="193.364" y="798.777"/>
      <point x="336.085" y="946.102"/>
      <point x="550.167" y="1035.88"/>
      <point x="690.586" y="1035.88" type="qcurve"/>
      <point x="835.609" y="1035.88"/>
      <point x="1049.69" y="943.8"/>
      <point x="1190.11" y="791.871"/>
      <point x="1261.47" y="600.809"/>
      <point x="1261.47" y="501.826" type="qcurve"/>
      <point x="1261.47" y="402.842"/>
      <point x="1190.11" y="211.78"/>
      <point x="1049.69" y="59.8508"/>
      <point x="835.609" y="-32.2273"/>
      <point x="690.586" y="-32.2273" type="qcurve"/>
      <point x="550.167" y="-32.2273"/>
      <point x="336.085" y="57.5488"/>
      <point x="193.364" y="207.176"/>
      <point x="119.702" y="398.238"/>
    </contour>
    <contour>
      <point x="244.007" y="501.826" type="qcurve"/>
      <point x="244.007" y="421.257"/>
      <point x="301.556" y="269.328"/>
      <point x="414.351" y="151.929"/>
      <point x="582.394" y="82.8703"/>
      <point x="690.586" y="82.8703" type="qcurve"/>
      <point x="801.079" y="82.8703"/>
      <point x="969.122" y="154.231"/>
      <point x="1079.62" y="271.63"/>
      <point x="1137.16" y="421.257"/>
      <point x="1137.16" y="501.826" type="qcurve"/>
      <point x="1137.16" y="580.092"/>
      <point x="1079.62" y="732.021"/>
      <point x="969.122" y="849.42"/>
      <point x="801.079" y="920.781"/>
      <point x="690.586" y="920.781" type="qcurve"/>
      <point x="582.394" y="920.781"/>
      <point x="416.653" y="851.722"/>
      <point x="301.556" y="734.323"/>
      <point x="244.007" y="584.696"/>
    </contour>
    <contour>
      <point x="1058.9" y="1394.98" type="line"/>
      <point x="1054.29" y="1390.38"/>
      <point x="1054.29" y="1378.87" type="qcurve"/>
      <point x="1026.67" y="1282.19"/>
      <point x="902.365" y="1183.2"/>
      <point x="828.703" y="1183.2" type="qcurve"/>
      <point x="789.57" y="1183.2"/>
      <point x="718.209" y="1215.43"/>
      <point x="665.264" y="1256.87" type="qcurve"/>
      <point x="610.017" y="1298.3"/>
      <point x="563.978" y="1323.62"/>
      <point x="538.657" y="1323.62" type="qcurve"/>
      <point x="492.618" y="1323.62"/>
      <point x="437.371" y="1249.96"/>
      <point x="418.955" y="1203.92" type="qcurve"/>
      <point x="418.955" y="1201.62"/>
      <point x="416.653" y="1197.02" type="qcurve"/>
      <point x="414.351" y="1190.11" type="line"/>
      <point x="322.273" y="1222.34" type="line"/>
      <point x="354.501" y="1309.81"/>
      <point x="453.485" y="1427.21"/>
      <point x="538.657" y="1427.21" type="qcurve"/>
      <point x="593.904" y="1427.21"/>
      <point x="672.17" y="1381.17"/>
      <point x="709.001" y="1348.94" type="qcurve"/>
      <point x="752.738" y="1316.72"/>
      <point x="810.287" y="1286.79"/>
      <point x="835.609" y="1286.79" type="qcurve"/>
      <point x="865.534" y="1286.79"/>
      <point x="909.271" y="1316.72"/>
      <point x="939.196" y="1360.45"/>
      <point x="959.914" y="1406.49"/>
      <point x="966.82" y="1424.91" type="qcurve"/>
    </contour>
  </outline>
</glyph>
<glyph name="odieresis" format="2">
  <advance width="1381"/>
  <unicode hex="00F6"/>
  <outline>
    <contour>
      <point x="119.702" y="501.826" type="qcurve"/>
      <point x="119.702" y="605.413"/>
      <point x="193.364" y="798.777"/>
      <point x="336.085" y="946.102"/>
      <point x="550.167" y="1035.88"/>
      <point x="690.586" y="1035.88" type="qcurve"/>
      <point x="835.609" y="1035.88"/>
      <point x="1049.69" y="943.8"/>
      <point x="1190.11" y="791.871"/>
      <point x="1261.47" y="600.809"/>
      <point x="1261.47" y="501.826" type="qcurve"/>
      <point x="1261.47" y="402.842"/>
      <point x="1190.11" y="211.78"/>
      <point x="1049.69" y="59.8508"/>
      <point x="835.609" y="-32.2273"/>
      <point x="690.586" y="-32.2273" type="qcurve"/>
      <point x="550.167" y="-32.2273"/>
      <point x="336.085" y="57.5488"/>
      <point x="193.364" y="207.176"/>
      <point x="119.702" y="398.238"/>
    </contour>
    <contour>
      <point x="244.007" y="501.826" type="qcurve"/>
      <point x="244.007" y="421.257"/>
      <point x="301.556" y="269.328"/>
      <point x="414.351" y="151.929"/>
      <point x="582.394" y="82.8703"/>
      <point x="690.586" y="82.8703" type="qcurve"/>
      <point x="801.079" y="82.8703"/>
      <point x="969.122" y="154.231"/>
      <point x="1079.62" y="271.63"/>
      <point x="1137.16" y="421.257"/>
      <point x="1137.16" y="501.826" type="qcurve"/>
      <point x="1137.16" y="580.092"/>
      <point x="1079.62" y="732.021"/>
      <point x="969.122" y="849.42"/>
      <point x="801.079" y="920.781"/>
      <point x="690.586" y="920.781" type="qcurve"/>
      <point x="582.394" y="920.781"/>
      <point x="416.653" y="851.722"/>
      <point x="301.556" y="734.323"/>
      <point x="244.007" y="584.696"/>
    </contour>
    <contour>
      <point x="623.829" y="1429.51" type="line"/>
      <point x="623.829" y="1180.9" type="line"/>
      <point x="458.088" y="1180.9" type="line"/>
      <point x="458.088" y="1429.51" type="line"/>
    </contour>
    <contour>
      <point x="923.083" y="1429.51" type="line"/>
      <point x="923.083" y="1180.9" type="line"/>
      <point x="757.342" y="1180.9" type="line"/>
      <point x="757.342" y="1429.51" type="line"/>
    </contour>
  </outline>
</glyph>
<glyph name="uacute" format="2">
  <advance width="1381"/>
  <unicode hex="00FA"/>
  <outline>
    <contour>
      <point x="377.52" y="379.822" type="line"/>
      <point x="377.52" y="356.803"/>
      <point x="384.426" y="257.819"/>
      <point x="428.163" y="158.835"/>
      <point x="520.241" y="82.8703"/>
      <point x="607.715" y="82.8703" type="qcurve"/>
      <point x="704.397" y="82.8703"/>
      <point x="881.648" y="179.552"/>
      <point x="978.33" y="283.14" type="qcurve"/>
      <point x="978.33" y="881.648" type="line"/>
      <point x="780.362" y="881.648" type="line"/>
      <point x="780.362" y="989.839" type="line"/>
      <point x="1093.43" y="989.839" type="line"/>
      <point x="1093.43" y="108.192" type="line"/>
      <point x="1279.89" y="108.192" type="line"/>
      <point x="1279.89" y="0" type="line"/>
      <point x="978.33" y="0" type="line"/>
      <point x="978.33" y="126.607" type="line"/>
      <point x="953.008" y="105.89"/>
      <point x="883.95" y="50.6429"/>
      <point x="794.173" y="2.30195"/>
      <point x="683.68" y="-32.2273"/>
      <point x="616.923" y="-32.2273" type="qcurve"/>
      <point x="508.731" y="-32.2273"/>
      <point x="370.614" y="46.039"/>
      <point x="292.348" y="165.741"/>
      <point x="262.423" y="310.764"/>
      <point x="262.423" y="379.822" type="qcurve"/>
      <point x="262.423" y="881.648" type="line"/>
      <point x="73.6625" y="881.648" type="line"/>
      <point x="73.6625" y="989.839" type="line"/>
      <point x="377.52" y="989.839" type="line"/>
    </contour>
    <contour>
      <point x="494.92" y="1157.88" type="line"/>
      <point x="699.793" y="1422.61" type="line"/>
      <point x="946.102" y="1422.61" type="line"/>
      <point x="616.923" y="1157.88" type="line"/>
    </contour>
  </outline>
</glyph>
<glyph name="ucircumflex" format="2">
  <advance width="1381"/>
  <unicode hex="00FB"/>
  <outline>
    <contour>
      <point x="377.52" y="379.822" type="line"/>
      <point x="377.52" y="356.803"/>
      <point x="384.426" y="257.819"/>
      <point x="428.163" y="158.835"/>
      <point x="520.241" y="82.8703"/>
      <point x="607.715" y="82.8703" type="qcurve"/>
      <point x="704.397" y="82.8703"/>
      <point x="881.648" y="179.552"/>
      <point x="978.33" y="283.14" type="qcurve"/>
      <point x="978.33" y="881.648" type="line"/>
      <point x="780.362" y="881.648" type="line"/>
      <point x="780.362" y="989.839" type="line"/>
      <point x="1093.43" y="989.839" type="line"/>
      <point x="1093.43" y="108.192" type="line"/>
      <point x="1279.89" y="108.192" type="line"/>
      <point x="1279.89" y="0" type="line"/>
      <point x="978.33" y="0" type="line"/>
      <point x="978.33" y="126.607" type="line"/>
      <point x="953.008" y="105.89"/>
      <point x="883.95" y="50.6429"/>
      <point x="794.173" y="2.30195"/>
      <point x="683.68" y="-32.2273"/>
      <point x="616.923" y="-32.2273" type="qcurve"/>
      <point x="508.731" y="-32.2273"/>
      <point x="370.614" y="46.039"/>
      <point x="292.348" y="165.741"/>
      <point x="262.423" y="310.764"/>
      <point x="262.423" y="379.822" type="qcurve"/>
      <point x="262.423" y="881.648" type="line"/>
      <point x="73.6625" y="881.648" type="line"/>
      <point x="73.6625" y="989.839" type="line"/>
      <point x="377.52" y="989.839" type="line"/>
    </contour>
    <contour>
      <point x="985.235" y="1213.13" type="line"/>
      <point x="911.573" y="1155.58" type="line"/>
      <point x="679.076" y="1307.51" type="line"/>
      <point x="469.598" y="1155.58" type="line"/>
      <point x="393.634" y="1210.83" type="line"/>
      <point x="596.206" y="1429.51" type="line"/>
      <point x="773.456" y="1429.51" type="line"/>
    </contour>
  </outline>
</glyph>
<glyph name="yacute" format="2">
  <advance width="1381"/>
  <unicode hex="00FD"/>
  <outline>
    <contour>
      <point x="485.712" y="881.648" type="line"/>
      <point x="326.877" y="881.648" type="line"/>
      <point x="690.586" y="181.854" type="line"/>
      <point x="1091.13" y="881.648" type="line"/>
      <point x="934.593" y="881.648" type="line"/>
      <point x="934.593" y="989.839" type="line"/>
      <point x="1355.85" y="989.839" type="line"/>
      <point x="1355.85" y="881.648" type="line"/>
      <point x="1222.34" y="881.648" type="line"/>
      <point x="577.79" y="-244.007" type="line"/>
      <point x="782.664" y="-244.007" type="line"/>
      <point x="782.664" y="-352.199" type="line"/>
      <point x="92.0781" y="-352.199" type="line"/>
      <point x="92.0781" y="-244.007" type="line"/>
      <point x="446.579" y="-244.007" type="line"/>
      <point x="623.829" y="62.1527" type="line"/>
      <point x="195.666" y="881.648" type="line"/>
      <point x="55.2468" y="881.648" type="line"/>
      <point x="55.2468" y="989.839" type="line"/>
      <point x="485.712" y="989.839" type="line"/>
    </contour>
    <contour>
      <point x="494.92" y="1157.88" type="line"/>
      <point x="699.793" y="1422.61" type="line"/>
      <point x="946.102" y="1422.61" type="line"/>
      <point x="616.923" y="1157.88" type="line"/>
    </contour>
  </outline>
</glyph>
<glyph name="oe" format="2">
  <advance width="1381"/>
  <unicode hex="0153"/>
  <outline>
    <contour>
      <point x="736.625" y="471.9" type="line"/>
      <point x="734.323" y="352.199"/>
      <point x="787.268" y="197.968"/>
      <point x="870.138" y="110.494"/>
      <point x="962.216" y="75.9644"/>
      <point x="1001.35" y="75.9644" type="qcurve"/>
      <point x="1075.01" y="75.9644"/>
      <point x="1220.03" y="112.796"/>
      <point x="1266.07" y="126.607" type="qcurve"/>
      <point x="1307.51" y="27.6234" type="line"/>
      <point x="1183.2" y="-13.8117"/>
      <point x="1038.18" y="-34.5293"/>
      <point x="1005.95" y="-34.5293" type="qcurve"/>
      <point x="985.235" y="-34.5293"/>
      <point x="906.969" y="-23.0195"/>
      <point x="817.193" y="18.4156"/>
      <point x="725.115" y="103.588"/>
      <point x="690.586" y="179.552" type="qcurve"/>
      <point x="681.378" y="158.835"/>
      <point x="642.245" y="87.4742"/>
      <point x="568.582" y="16.1137"/>
      <point x="458.088" y="-34.5293"/>
      <point x="375.218" y="-34.5293" type="qcurve"/>
      <point x="285.442" y="-34.5293"/>
      <point x="165.741" y="27.6234"/>
      <point x="87.4742" y="122.003"/>
      <point x="46.039" y="237.101"/>
      <point x="25.3215" y="345.293"/>
      <point x="23.0195" y="432.767"/>
      <point x="23.0195" y="453.485" type="qcurve"/>
      <point x="23.0195" y="563.978"/>
      <point x="64.4547" y="773.456"/>
      <point x="154.231" y="939.196"/>
      <point x="299.254" y="1038.18"/>
      <point x="405.144" y="1038.18" type="qcurve"/>
      <point x="474.202" y="1038.18"/>
      <point x="575.488" y="989.839"/>
      <point x="644.547" y="927.687"/>
      <point x="683.68" y="863.232"/>
      <point x="690.586" y="847.118" type="qcurve"/>
      <point x="743.53" y="943.8"/>
      <point x="900.063" y="1035.88"/>
      <point x="976.028" y="1035.88" type="qcurve"/>
      <point x="1065.8" y="1035.88"/>
      <point x="1187.81" y="941.498"/>
      <point x="1263.77" y="801.079"/>
      <point x="1298.3" y="642.245"/>
      <point x="1298.3" y="577.79" type="qcurve"/>
      <point x="1298.3" y="550.167"/>
      <point x="1296" y="488.014"/>
      <point x="1293.7" y="471.9" type="qcurve"/>
    </contour>
    <contour>
      <point x="621.527" y="485.712" type="qcurve"/>
      <point x="621.527" y="630.735"/>
      <point x="584.696" y="805.683"/>
      <point x="522.543" y="900.063"/>
      <point x="446.579" y="927.687"/>
      <point x="405.144" y="927.687" type="qcurve"/>
      <point x="333.783" y="927.687"/>
      <point x="237.101" y="842.514"/>
      <point x="174.948" y="706.699"/>
      <point x="147.325" y="540.959"/>
      <point x="147.325" y="460.39" type="qcurve"/>
      <point x="147.325" y="395.936"/>
      <point x="168.042" y="260.121"/>
      <point x="218.685" y="147.325"/>
      <point x="306.16" y="75.9644"/>
      <point x="372.916" y="75.9644" type="qcurve"/>
      <point x="435.069" y="75.9644"/>
      <point x="520.241" y="124.305"/>
      <point x="575.488" y="202.572"/>
      <point x="605.413" y="296.952"/>
      <point x="619.225" y="389.03"/>
      <point x="621.527" y="464.994"/>
    </contour>
    <contour>
      <point x="1183.2" y="573.186" type="line"/>
      <point x="1183.2" y="637.641"/>
      <point x="1160.18" y="764.248"/>
      <point x="1109.54" y="865.534"/>
      <point x="1031.27" y="925.385"/>
      <point x="976.028" y="925.385" type="qcurve"/>
      <point x="957.612" y="925.385"/>
      <point x="881.648" y="902.365"/>
      <point x="801.079" y="831.005"/>
      <point x="738.927" y="690.586"/>
      <point x="736.625" y="573.186" type="qcurve"/>
    </contour>
  </outline>
</glyph>
<glyph name="Zcaron" format="2">
  <advance width="1381"/>
  <unicode hex="017D"/>
  <outline>
    <contour>
      <point x="1134.86" y="1201.62" type="line"/>
      <point x="331.481" y="108.192" type="line"/>
      <point x="1079.62" y="108.192" type="line"/>
      <point x="1079.62" y="481.108" type="line"/>
      <point x="1187.81" y="481.108" type="line"/>
      <point x="1187.81" y="0" type="line"/>
      <point x="193.364" y="0" type="line"/>
      <point x="193.364" y="108.192" type="line"/>
      <point x="987.537" y="1187.81" type="line"/>
      <point x="317.669" y="1187.81" type="line"/>
      <point x="317.669" y="851.722" type="line"/>
      <point x="209.478" y="851.722" type="line"/>
      <point x="209.478" y="1296" type="line"/>
      <point x="1134.86" y="1296" type="line"/>
    </contour>
    <contour>
      <point x="393.634" y="1694.24" type="line"/>
      <point x="467.296" y="1749.48" type="line"/>
      <point x="699.793" y="1599.86" type="line"/>
      <point x="911.573" y="1751.79" type="line"/>
      <point x="985.235" y="1694.24" type="line"/>
      <point x="782.664" y="1477.85" type="line"/>
      <point x="607.715" y="1477.85" type="line"/>
    </contour>
  </outline>
</glyph>
<glyph name="circumflex" format="2">
  <advance width="600"/>
  <unicode hex="02C6"/>
  <outline>
    <contour>
      <point x="428" y="527" type="line"/>
      <point x="396" y="502" type="line"/>
      <point x="295" y="568" type="line"/>
      <point x="204" y="502" type="line"/>
      <point x="171" y="526" type="line"/>
      <point x="259" y="621" type="line"/>
      <point x="336" y="621" type="line"/>
    </contour>
  </outline>
</glyph>
<glyph name="mu" format="2">
  <advance width="600"/>
  <unicode hex="03BC"/>
  <outline>
    <contour>
      <point x="168" y="195" type="line"/>
      <point x="168" y="171"/>
      <point x="170" y="137"/>
      <point x="175" y="112"/>
      <point x="184" y="94"/>
      <point x="191" y="85" type="qcurve"/>
      <point x="210" y="60"/>
      <point x="266" y="36"/>
      <point x="294" y="36" type="qcurve"/>
      <point x="322" y="36"/>
      <point x="384" y="60"/>
      <point x="401" y="82" type="qcurve"/>
      <point x="410" y="94"/>
      <point x="421" y="117"/>
      <point x="427" y="143"/>
      <point x="429" y="175"/>
      <point x="429" y="195" type="qcurve"/>
      <point x="429" y="388" type="line"/>
      <point x="347" y="388" type="line"/>
      <point x="347" y="430" type="line"/>
      <point x="479" y="430" type="line"/>
      <point x="479" y="41" type="line"/>
      <point x="562" y="41" type="line"/>
      <point x="562" y="0" type="line"/>
      <point x="430" y="0" type="line"/>
      <point x="430" y="53" type="line"/>
      <point x="428" y="53" type="line"/>
      <point x="420" y="41" type="line"/>
      <point x="401" y="15"/>
      <point x="331" y="-14"/>
      <point x="296" y="-14" type="qcurve"/>
      <point x="278" y="-14"/>
      <point x="244" y="-5"/>
      <point x="215" y="7"/>
      <point x="195" y="20"/>
      <point x="191" y="25" type="qcurve"/>
      <point x="182" y="34"/>
      <point x="176" y="40"/>
      <point x="167" y="47" type="qcurve"/>
      <point x="167" y="-149" type="line"/>
      <point x="118" y="-149" type="line"/>
      <point x="118" y="388" type="line"/>
      <point x="36" y="388" type="line"/>
      <point x="36" y="430" type="line"/>
      <point x="168" y="430" type="line"/>
    </contour>
  </outline>
</glyph>
<glyph name="uni1200" format="2">
  <advance width="472"/>
  <unicode hex="1200"/>
  <outline>
    <contour>
      <point x="442" y="247" type="line"/>
      <point x="442" y="187"/>
      <point x="405" y="95"/>
      <point x="345" y="32"/>
      <point x="269" y="0"/>
      <point x="229" y="0" type="qcurve"/>
      <point x="202" y="0" type="line"/>
      <point x="127" y="0"/>
      <point x="49" y="63"/>
      <point x="49" y="145" type="qcurve"/>
      <point x="49" y="217"/>
      <point x="62" y="362"/>
      <point x="63" y="440" type="qcurve"/>
      <point x="63" y="454"/>
      <point x="60" y="483"/>
      <point x="52" y="509"/>
      <point x="39" y="527"/>
      <point x="30" y="530" type="qcurve"/>
      <point x="133" y="556" type="line"/>
      <point x="153" y="553"/>
      <point x="171" y="497"/>
      <point x="171" y="448" type="qcurve"/>
      <point x="171" y="367"/>
      <point x="154" y="193"/>
      <point x="154" y="110" type="qcurve"/>
      <point x="154" y="70"/>
      <point x="195" y="14"/>
      <point x="225" y="14" type="qcurve"/>
      <point x="258" y="14"/>
      <point x="303" y="42"/>
      <point x="330" y="103"/>
      <point x="342" y="199"/>
      <point x="342" y="267" type="qcurve"/>
      <point x="342" y="463" type="line"/>
      <point x="340" y="495"/>
      <point x="320" y="550"/>
      <point x="293" y="557" type="qcurve"/>
      <point x="384" y="583" type="line"/>
      <point x="407" y="583"/>
      <point x="442" y="522"/>
      <point x="442" y="468" type="qcurve"/>
    </contour>
  </outline>
</glyph>
<glyph name="uni1201" format="2">
  <advance width="654"/>
  <unicode hex="1201"/>
  <outline>
    <contour>
      <point x="648" y="322" type="qcurve"/>
      <point x="629" y="329"/>
      <point x="609" y="351"/>
      <point x="600" y="374"/>
      <point x="598" y="394"/>
      <point x="597" y="399" type="qcurve"/>
      <point x="595" y="406"/>
      <point x="594" y="415"/>
      <point x="583" y="419" type="qcurve"/>
      <point x="442" y="374" type="line"/>
      <point x="442" y="465" type="line"/>
      <point x="442" y="519"/>
      <point x="407" y="580"/>
      <point x="384" y="580" type="qcurve"/>
      <point x="293" y="554" type="line"/>
      <point x="320" y="547"/>
      <point x="340" y="492"/>
      <point x="342" y="460" type="qcurve"/>
      <point x="342" y="267" type="line"/>
      <point x="342" y="199"/>
      <point x="330" y="103"/>
      <point x="303" y="42"/>
      <point x="258" y="14"/>
      <point x="225" y="14" type="qcurve"/>
      <point x="195" y="14"/>
      <point x="154" y="70"/>
      <point x="154" y="110" type="qcurve"/>
      <point x="155" y="192"/>
      <point x="171" y="364"/>
      <point x="171" y="445" type="qcurve"/>
      <point x="171" y="494"/>
      <point x="153" y="550"/>
      <point x="133" y="553" type="qcurve"/>
      <point x="30" y="527" type="line"/>
      <point x="39" y="524"/>
      <point x="52" y="506"/>
      <point x="60" y="480"/>
      <point x="63" y="451"/>
      <point x="63" y="437" type="qcurve"/>
      <point x="62" y="360"/>
      <point x="49" y="217"/>
      <point x="49" y="145" type="qcurve"/>
      <point x="49" y="63"/>
      <point x="127" y="0"/>
      <point x="202" y="0" type="qcurve"/>
      <point x="229" y="0" type="line"/>
      <point x="269" y="0"/>
      <point x="345" y="32"/>
      <point x="405" y="95"/>
      <point x="442" y="187"/>
      <point x="442" y="247" type="qcurve"/>
      <point x="442" y="356" type="line"/>
      <point x="493" y="372" type="line"/>
      <point x="502" y="339"/>
      <point x="550" y="293"/>
      <point x="585" y="293" type="qcurve"/>
      <point x="626" y="298"/>
    </contour>
  </outline>
</glyph>
<glyph name="uni1202" format="2">
  <advance width="458"/>
  <unicode hex="1202"/>
  <outline>
    <contour>
      <point x="309" y="46" type="line"/>
      <point x="310" y="46"/>
      <point x="310" y="52" type="qcurve"/>
      <point x="310" y="61"/>
      <point x="322" y="89"/>
      <point x="345" y="97" type="qcurve"/>
      <point x="409" y="113" type="line"/>
      <point x="406" y="113"/>
      <point x="404" y="81"/>
      <point x="404" y="64" type="qcurve"/>
      <point x="404" y="46"/>
      <point x="425" y="23"/>
      <point x="439" y="20" type="qcurve"/>
      <point x="403" y="10"/>
      <point x="360" y="1"/>
      <point x="356" y="1" type="qcurve"/>
      <point x="343" y="1"/>
      <point x="328" y="10"/>
      <point x="319" y="22"/>
      <point x="314" y="33"/>
      <point x="312" y="34" type="qcurve"/>
      <point x="165" y="6" type="line"/>
      <point x="145" y="6"/>
      <point x="121" y="32"/>
      <point x="121" y="48" type="qcurve"/>
      <point x="121" y="56"/>
      <point x="128" y="79"/>
      <point x="137" y="100"/>
      <point x="144" y="116"/>
      <point x="145" y="118" type="qcurve"/>
      <point x="229" y="317" type="line"/>
      <point x="94" y="305" type="line"/>
      <point x="75" y="305"/>
      <point x="42" y="324"/>
      <point x="42" y="349" type="qcurve"/>
      <point x="42" y="372"/>
      <point x="47" y="410"/>
      <point x="53" y="444"/>
      <point x="58" y="478"/>
      <point x="58" y="497" type="qcurve"/>
      <point x="58" y="511"/>
      <point x="46" y="531"/>
      <point x="30" y="536" type="qcurve"/>
      <point x="133" y="560" type="line"/>
      <point x="148" y="560"/>
      <point x="161" y="533"/>
      <point x="161" y="513" type="qcurve"/>
      <point x="161" y="497"/>
      <point x="155" y="459"/>
      <point x="148" y="421"/>
      <point x="142" y="385"/>
      <point x="142" y="372" type="qcurve"/>
      <point x="142" y="352"/>
      <point x="171" y="330"/>
      <point x="209" y="330" type="qcurve"/>
      <point x="225" y="330"/>
      <point x="242" y="347"/>
      <point x="251" y="367" type="qcurve"/>
      <point x="271" y="409"/>
      <point x="293" y="467"/>
      <point x="304" y="503"/>
      <point x="307" y="521"/>
      <point x="307" y="523" type="qcurve"/>
      <point x="307" y="535"/>
      <point x="292" y="554"/>
      <point x="275" y="562" type="qcurve"/>
      <point x="378" y="582" type="line"/>
      <point x="384" y="582"/>
      <point x="393" y="572"/>
      <point x="399" y="557"/>
      <point x="402" y="540"/>
      <point x="402" y="534" type="qcurve"/>
      <point x="402" y="527"/>
      <point x="398" y="504"/>
      <point x="390" y="478"/>
      <point x="381" y="452"/>
      <point x="375" y="441" type="qcurve"/>
      <point x="225" y="81" type="line"/>
      <point x="223" y="76"/>
      <point x="222" y="61"/>
      <point x="222" y="57" type="qcurve"/>
      <point x="222" y="33"/>
      <point x="241" y="33" type="qcurve"/>
    </contour>
  </outline>
</glyph>
<glyph name="uni1203" format="2">
  <advance width="428"/>
  <unicode hex="1203"/>
  <outline>
    <contour>
      <point x="398" y="533" type="qcurve"/>
      <point x="398" y="518"/>
      <point x="383" y="467"/>
      <point x="371" y="438" type="qcurve"/>
      <point x="223" y="76" type="line"/>
      <point x="220" y="68"/>
      <point x="220" y="62" type="qcurve"/>
      <point x="220" y="45"/>
      <point x="243" y="22"/>
      <point x="254" y="17" type="qcurve"/>
      <point x="164" y="-1" type="line"/>
      <point x="146" y="-1"/>
      <point x="121" y="34"/>
      <point x="121" y="54" type="qcurve"/>
      <point x="121" y="70"/>
      <point x="132" y="98"/>
      <point x="143" y="121" type="qcurve"/>
      <point x="227" y="317" type="line"/>
      <point x="93" y="305" type="line"/>
      <point x="75" y="305"/>
      <point x="42" y="324"/>
      <point x="42" y="349" type="qcurve"/>
      <point x="42" y="377"/>
      <point x="47" y="417"/>
      <point x="53" y="450"/>
      <point x="58" y="478"/>
      <point x="58" y="495" type="qcurve"/>
      <point x="58" y="509"/>
      <point x="46" y="529"/>
      <point x="30" y="535" type="qcurve"/>
      <point x="132" y="559" type="line"/>
      <point x="147" y="559"/>
      <point x="160" y="534"/>
      <point x="160" y="516" type="qcurve"/>
      <point x="160" y="517"/>
      <point x="157" y="497"/>
      <point x="153" y="467"/>
      <point x="148" y="431"/>
      <point x="144" y="398"/>
      <point x="141" y="374"/>
      <point x="141" y="372" type="qcurve"/>
      <point x="141" y="352"/>
      <point x="170" y="330"/>
      <point x="209" y="330" type="qcurve"/>
      <point x="223" y="330"/>
      <point x="240" y="348"/>
      <point x="249" y="368" type="qcurve"/>
      <point x="268" y="411"/>
      <point x="290" y="467"/>
      <point x="301" y="502"/>
      <point x="304" y="518"/>
      <point x="304" y="521" type="qcurve"/>
      <point x="304" y="522" type="line"/>
      <point x="304" y="547"/>
      <point x="272" y="561" type="qcurve"/>
      <point x="374" y="581" type="line"/>
      <point x="380" y="581"/>
      <point x="389" y="571"/>
      <point x="395" y="556"/>
      <point x="398" y="539"/>
    </contour>
  </outline>
</glyph>
<glyph name="uni1204" format="2">
  <advance width="1042"/>
  <unicode hex="1204"/>
  <outline>
    <contour>
      <point x="974.399" y="273.555" type="qcurve"/>
      <point x="974.399" y="230.6"/>
      <point x="949.531" y="146.951"/>
      <point x="893.011" y="81.3883"/>
      <point x="804.84" y="40.6942"/>
      <point x="741.538" y="40.6942" type="qcurve"/>
      <point x="694.062" y="40.6942"/>
      <point x="619.456" y="27.1294"/>
      <point x="540.328" y="11.3039"/>
      <point x="443.114" y="-2.26079"/>
      <point x="373.03" y="-2.26079" type="qcurve"/>
      <point x="332.336" y="-2.26079"/>
      <point x="280.338" y="72.3452"/>
      <point x="280.338" y="117.561" type="qcurve"/>
      <point x="280.338" y="135.647"/>
      <point x="305.206" y="228.34"/>
      <point x="325.553" y="273.555" type="qcurve"/>
      <point x="517.72" y="716.67" type="line"/>
      <point x="212.514" y="689.54" type="line"/>
      <point x="169.559" y="689.54"/>
      <point x="94.9531" y="732.495"/>
      <point x="94.9531" y="789.015" type="qcurve"/>
      <point x="94.9531" y="890.75"/>
      <point x="126.604" y="1051.27"/>
      <point x="128.865" y="1116.83" type="qcurve"/>
      <point x="128.865" y="1148.48"/>
      <point x="103.996" y="1195.96"/>
      <point x="67.8236" y="1209.52" type="qcurve"/>
      <point x="300.685" y="1263.78" type="line"/>
      <point x="334.597" y="1263.78"/>
      <point x="363.987" y="1207.26"/>
      <point x="363.987" y="1166.57" type="qcurve"/>
      <point x="363.987" y="1168.83"/>
      <point x="357.204" y="1123.61"/>
      <point x="348.161" y="1055.79"/>
      <point x="336.857" y="974.399"/>
      <point x="327.814" y="899.793"/>
      <point x="321.032" y="845.534"/>
      <point x="321.032" y="841.013" type="qcurve"/>
      <point x="321.032" y="795.797"/>
      <point x="386.595" y="746.06"/>
      <point x="477.026" y="746.06" type="qcurve"/>
      <point x="508.677" y="746.06"/>
      <point x="547.111" y="786.754"/>
      <point x="567.458" y="831.97" type="qcurve"/>
      <point x="612.673" y="929.184"/>
      <point x="662.411" y="1058.05"/>
      <point x="687.279" y="1134.92"/>
      <point x="694.062" y="1171.09"/>
      <point x="694.062" y="1177.87" type="qcurve"/>
      <point x="694.062" y="1180.13" type="line"/>
      <point x="694.062" y="1236.65"/>
      <point x="621.716" y="1268.3" type="qcurve"/>
      <point x="854.578" y="1313.52" type="line"/>
      <point x="868.142" y="1313.52"/>
      <point x="888.489" y="1290.91"/>
      <point x="902.054" y="1257"/>
      <point x="908.836" y="1218.56"/>
      <point x="908.836" y="1205" type="qcurve"/>
      <point x="908.836" y="1171.09"/>
      <point x="879.446" y="1044.48"/>
      <point x="854.578" y="990.225" type="qcurve"/>
      <point x="515.459" y="187.645" type="line"/>
      <point x="510.938" y="178.602"/>
      <point x="499.634" y="140.169"/>
      <point x="499.634" y="113.039" type="qcurve"/>
      <point x="499.634" y="76.8668"/>
      <point x="529.024" y="49.7373"/>
      <point x="558.414" y="49.7373" type="qcurve"/>
      <point x="599.109" y="51.9981"/>
      <point x="666.932" y="83.6491"/>
      <point x="716.67" y="131.126"/>
      <point x="746.06" y="194.428"/>
      <point x="746.06" y="230.6" type="qcurve"/>
      <point x="746.06" y="271.294"/>
      <point x="696.322" y="345.9"/>
      <point x="662.411" y="357.204" type="qcurve"/>
      <point x="868.142" y="409.202" type="line"/>
      <point x="906.576" y="409.202"/>
      <point x="969.878" y="330.075"/>
    </contour>
  </outline>
</glyph>
<glyph name="uni1205" format="2">
  <advance width="494"/>
  <unicode hex="1205"/>
  <outline>
    <contour>
      <point x="458" y="224" type="line"/>
      <point x="458" y="183"/>
      <point x="429" y="102"/>
      <point x="377" y="39"/>
      <point x="306" y="0"/>
      <point x="264" y="0" type="qcurve"/>
      <point x="237" y="0" type="line"/>
      <point x="161" y="0"/>
      <point x="80" y="54"/>
      <point x="80" y="106" type="qcurve"/>
      <point x="80" y="154"/>
      <point x="94" y="252"/>
      <point x="98" y="303" type="qcurve"/>
      <point x="84" y="303"/>
      <point x="52" y="297"/>
      <point x="30" y="297" type="qcurve"/>
      <point x="43" y="307"/>
      <point x="61" y="348"/>
      <point x="72" y="393"/>
      <point x="77" y="434"/>
      <point x="77" y="443" type="qcurve"/>
      <point x="76" y="473"/>
      <point x="59" y="516"/>
      <point x="37" y="522" type="qcurve"/>
      <point x="145" y="552" type="line"/>
      <point x="153" y="552"/>
      <point x="166" y="537"/>
      <point x="175" y="514"/>
      <point x="179" y="486"/>
      <point x="179" y="473" type="qcurve"/>
      <point x="179" y="445"/>
      <point x="163" y="366"/>
      <point x="149" y="328" type="qcurve"/>
      <point x="163" y="328"/>
      <point x="191" y="334"/>
      <point x="202" y="334" type="qcurve"/>
      <point x="195" y="286"/>
      <point x="178" y="194"/>
      <point x="178" y="146" type="qcurve"/>
      <point x="180" y="120"/>
      <point x="189" y="72"/>
      <point x="207" y="36"/>
      <point x="236" y="14"/>
      <point x="259" y="14" type="qcurve"/>
      <point x="285" y="14"/>
      <point x="323" y="48"/>
      <point x="347" y="107"/>
      <point x="358" y="186"/>
      <point x="358" y="230" type="qcurve"/>
      <point x="358" y="445" type="line"/>
      <point x="358" y="466"/>
      <point x="350" y="504"/>
      <point x="337" y="534"/>
      <point x="319" y="554"/>
      <point x="309" y="556" type="qcurve"/>
      <point x="398" y="581" type="line"/>
      <point x="410" y="581"/>
      <point x="432" y="560"/>
      <point x="449" y="524"/>
      <point x="458" y="476"/>
      <point x="458" y="450" type="qcurve"/>
    </contour>
  </outline>
</glyph>
<glyph name="uni1206" format="2">
  <advance width="1385"/>
  <unicode hex="1206"/>
  <outline>
    <contour>
      <point x="67.8236" y="1198.22" type="line"/>
      <point x="88.1707" y="1191.43"/>
      <point x="117.561" y="1150.74"/>
      <point x="135.647" y="1091.96"/>
      <point x="142.43" y="1026.4"/>
      <point x="142.43" y="994.746" type="qcurve"/>
      <point x="140.169" y="818.405"/>
      <point x="110.779" y="490.591"/>
      <point x="110.779" y="327.814" type="qcurve"/>
      <point x="110.779" y="142.43"/>
      <point x="287.12" y="0"/>
      <point x="456.679" y="0" type="qcurve"/>
      <point x="517.72" y="0" type="line"/>
      <point x="608.152" y="0"/>
      <point x="782.232" y="72.3452"/>
      <point x="917.88" y="214.775"/>
      <point x="1001.53" y="422.767"/>
      <point x="1001.53" y="558.414" type="qcurve"/>
      <point x="1001.53" y="750.581" type="line"/>
      <point x="1110.05" y="766.407"/>
      <point x="1254.74" y="827.448"/>
      <point x="1342.91" y="915.619"/>
      <point x="1381.34" y="1028.66"/>
      <point x="1381.34" y="1094.22" type="qcurve"/>
      <point x="1381.34" y="1202.74"/>
      <point x="1252.48" y="1309"/>
      <point x="1162.04" y="1309" type="qcurve"/>
      <point x="671.454" y="1227.61" type="line"/>
      <point x="730.234" y="1218.56"/>
      <point x="773.189" y="1067.09"/>
      <point x="773.189" y="951.791" type="qcurve"/>
      <point x="773.189" y="608.152" type="line"/>
      <point x="773.189" y="454.418"/>
      <point x="746.06" y="235.122"/>
      <point x="685.019" y="97.2138"/>
      <point x="583.283" y="31.651"/>
      <point x="508.677" y="31.651" type="qcurve"/>
      <point x="440.854" y="31.651"/>
      <point x="348.161" y="158.255"/>
      <point x="348.161" y="248.687" type="qcurve"/>
      <point x="348.161" y="436.332"/>
      <point x="386.595" y="829.709"/>
      <point x="386.595" y="1012.83" type="qcurve"/>
      <point x="386.595" y="1123.61"/>
      <point x="345.9" y="1250.22"/>
      <point x="300.685" y="1257" type="qcurve"/>
    </contour>
    <contour>
      <point x="1157.52" y="1078.4" type="qcurve"/>
      <point x="1157.52" y="947.27"/>
      <point x="1087.44" y="784.493"/>
      <point x="1003.79" y="784.493" type="qcurve"/>
      <point x="1003.79" y="904.315"/>
      <point x="992.486" y="1058.05"/>
      <point x="978.921" y="1155.26"/>
      <point x="965.356" y="1209.52"/>
      <point x="963.095" y="1234.39" type="qcurve"/>
      <point x="1037.7" y="1250.22" type="line"/>
      <point x="1101" y="1250.22"/>
      <point x="1157.52" y="1150.74"/>
    </contour>
  </outline>
</glyph>
<glyph name="uni1208" format="2">
  <advance width="1085"/>
  <unicode hex="1208"/>
  <outline>
    <contour>
      <point x="1051.27" y="45.2157" type="qcurve"/>
      <point x="997.007" y="33.9118"/>
      <point x="881.707" y="11.3039"/>
      <point x="827.448" y="0" type="qcurve"/>
      <point x="816.144" y="0"/>
      <point x="793.536" y="15.8255"/>
      <point x="775.45" y="38.4334"/>
      <point x="761.885" y="58.7805"/>
      <point x="759.624" y="65.5628" type="qcurve"/>
      <point x="714.409" y="160.516"/>
      <point x="680.497" y="409.202"/>
      <point x="660.15" y="553.893" type="qcurve"/>
      <point x="642.064" y="673.715"/>
      <point x="592.326" y="854.578"/>
      <point x="533.546" y="924.662" type="qcurve"/>
      <point x="474.765" y="924.662"/>
      <point x="382.073" y="818.405"/>
      <point x="314.249" y="644.324"/>
      <point x="278.077" y="425.028"/>
      <point x="278.077" y="311.989" type="qcurve"/>
      <point x="278.077" y="284.859"/>
      <point x="284.859" y="205.732"/>
      <point x="302.945" y="126.604"/>
      <point x="339.118" y="58.7805"/>
      <point x="370.769" y="38.4334" type="qcurve"/>
      <point x="309.728" y="24.8687"/>
      <point x="205.732" y="9.04315"/>
      <point x="146.951" y="0" type="qcurve"/>
      <point x="128.865" y="0"/>
      <point x="92.6923" y="36.1726"/>
      <point x="88.1707" y="47.4765" type="qcurve"/>
      <point x="63.302" y="99.4746"/>
      <point x="54.2589" y="212.514"/>
      <point x="54.2589" y="298.424" type="qcurve"/>
      <point x="54.2589" y="422.767"/>
      <point x="90.4315" y="648.846"/>
      <point x="169.559" y="845.534"/>
      <point x="298.424" y="1008.31"/>
      <point x="393.377" y="1067.09" type="qcurve"/>
      <point x="393.377" y="1076.13"/>
      <point x="388.855" y="1091.96"/>
      <point x="379.812" y="1107.79" type="qcurve"/>
      <point x="361.726" y="1137.18"/>
      <point x="325.553" y="1214.04"/>
      <point x="323.293" y="1259.26" type="qcurve"/>
      <point x="522.242" y="1311.26" type="line"/>
      <point x="542.589" y="1247.95"/>
      <point x="599.109" y="1139.44"/>
      <point x="637.542" y="1105.52" type="qcurve"/>
      <point x="700.844" y="1053.53"/>
      <point x="782.232" y="938.227"/>
      <point x="836.491" y="809.362"/>
      <point x="870.403" y="669.193"/>
      <point x="886.229" y="592.326" type="qcurve"/>
      <point x="899.793" y="526.763"/>
      <point x="920.14" y="357.204"/>
      <point x="951.791" y="196.688"/>
      <point x="1006.05" y="67.8236"/>
    </contour>
  </outline>
</glyph>
<glyph name="uni1209" format="2">
  <advance width="552"/>
  <unicode hex="1209"/>
  <outline>
    <contour>
      <point x="552" y="297" type="qcurve"/>
      <point x="533" y="304"/>
      <point x="513" y="326"/>
      <point x="504" y="349"/>
      <point x="502" y="369"/>
      <point x="501" y="374" type="qcurve"/>
      <point x="499" y="381"/>
      <point x="498" y="390"/>
      <point x="487" y="394" type="qcurve"/>
      <point x="360" y="343" type="line"/>
      <point x="346" y="388"/>
      <point x="304" y="464"/>
      <point x="272" y="490" type="qcurve"/>
      <point x="254" y="504"/>
      <point x="229" y="552"/>
      <point x="220" y="580" type="qcurve"/>
      <point x="132" y="557" type="line"/>
      <point x="133" y="537"/>
      <point x="149" y="503"/>
      <point x="157" y="490" type="qcurve"/>
      <point x="161" y="483"/>
      <point x="163" y="476"/>
      <point x="163" y="472" type="qcurve"/>
      <point x="126" y="443"/>
      <point x="76" y="366"/>
      <point x="45" y="277"/>
      <point x="31" y="179"/>
      <point x="31" y="130" type="qcurve"/>
      <point x="31" y="98"/>
      <point x="40" y="26"/>
      <point x="64" y="0" type="qcurve"/>
      <point x="90" y="4"/>
      <point x="141" y="11"/>
      <point x="168" y="17" type="qcurve"/>
      <point x="156" y="27"/>
      <point x="140" y="58"/>
      <point x="131" y="92"/>
      <point x="127" y="126"/>
      <point x="127" y="138" type="qcurve"/>
      <point x="127" y="177"/>
      <point x="145" y="271"/>
      <point x="173" y="354"/>
      <point x="208" y="409"/>
      <point x="225" y="409" type="qcurve"/>
      <point x="251" y="378"/>
      <point x="273" y="298"/>
      <point x="283" y="245" type="qcurve"/>
      <point x="289" y="213"/>
      <point x="294" y="148"/>
      <point x="302" y="87"/>
      <point x="318" y="33"/>
      <point x="335" y="12" type="qcurve"/>
      <point x="338" y="9"/>
      <point x="349" y="1"/>
      <point x="353" y="0" type="qcurve"/>
      <point x="450" y="20" type="line"/>
      <point x="432" y="35"/>
      <point x="410" y="83"/>
      <point x="396" y="144"/>
      <point x="387" y="213"/>
      <point x="381" y="249" type="qcurve"/>
      <point x="378" y="268"/>
      <point x="370" y="307"/>
      <point x="365" y="327" type="qcurve"/>
      <point x="397" y="341" type="line"/>
      <point x="406" y="308"/>
      <point x="454" y="268"/>
      <point x="489" y="268" type="qcurve"/>
      <point x="530" y="273"/>
    </contour>
  </outline>
</glyph>
<glyph name="uni120A" format="2">
  <advance width="613"/>
  <unicode hex="120A"/>
  <outline>
    <contour>
      <point x="528" y="-13" type="qcurve"/>
      <point x="612" y="2" type="line"/>
      <point x="598" y="8"/>
      <point x="579" y="41"/>
      <point x="578" y="64" type="qcurve"/>
      <point x="578" y="72"/>
      <point x="582" y="100"/>
      <point x="587" y="109" type="qcurve"/>
      <point x="513" y="96" type="line"/>
      <point x="496" y="93"/>
      <point x="472" y="63"/>
      <point x="472" y="46" type="qcurve"/>
      <point x="472" y="44" type="line"/>
      <point x="466" y="42"/>
      <point x="454" y="38"/>
      <point x="448" y="38" type="qcurve"/>
      <point x="438" y="38"/>
      <point x="430" y="45"/>
      <point x="426" y="52" type="qcurve"/>
      <point x="406" y="87"/>
      <point x="393" y="191"/>
      <point x="383" y="249" type="qcurve"/>
      <point x="377" y="283"/>
      <point x="361" y="349"/>
      <point x="336" y="411"/>
      <point x="299" y="466"/>
      <point x="271" y="489" type="qcurve"/>
      <point x="254" y="504"/>
      <point x="229" y="552"/>
      <point x="220" y="580" type="qcurve"/>
      <point x="132" y="557" type="line"/>
      <point x="133" y="537"/>
      <point x="149" y="503"/>
      <point x="157" y="490" type="qcurve"/>
      <point x="161" y="483"/>
      <point x="163" y="476"/>
      <point x="163" y="472" type="qcurve"/>
      <point x="127" y="443"/>
      <point x="77" y="368"/>
      <point x="46" y="281"/>
      <point x="31" y="186"/>
      <point x="31" y="137" type="qcurve"/>
      <point x="31" y="99"/>
      <point x="40" y="26"/>
      <point x="64" y="0" type="qcurve"/>
      <point x="90" y="4"/>
      <point x="141" y="11"/>
      <point x="168" y="17" type="qcurve"/>
      <point x="156" y="27"/>
      <point x="140" y="58"/>
      <point x="131" y="92"/>
      <point x="127" y="126"/>
      <point x="127" y="138" type="qcurve"/>
      <point x="127" y="177"/>
      <point x="145" y="271"/>
      <point x="173" y="354"/>
      <point x="208" y="409"/>
      <point x="225" y="409" type="qcurve"/>
      <point x="251" y="378"/>
      <point x="272" y="298"/>
      <point x="282" y="245" type="qcurve"/>
      <point x="288" y="213"/>
      <point x="293" y="148"/>
      <point x="302" y="87"/>
      <point x="318" y="33"/>
      <point x="335" y="12" type="qcurve"/>
      <point x="338" y="9"/>
      <point x="349" y="1"/>
      <point x="353" y="0" type="qcurve"/>
      <point x="475" y="29" type="line"/>
      <point x="478" y="3"/>
      <point x="511" y="-13"/>
    </contour>
  </outline>
</glyph>
<glyph name="uni120B" format="2">
  <advance width="462"/>
  <unicode hex="120B"/>
  <outline>
    <contour>
      <point x="432" y="20" type="qcurve"/>
      <point x="335" y="0" type="line"/>
      <point x="331" y="1"/>
      <point x="320" y="9"/>
      <point x="317" y="12" type="qcurve"/>
      <point x="300" y="33"/>
      <point x="284" y="87"/>
      <point x="276" y="150"/>
      <point x="270" y="218"/>
      <point x="264" y="253" type="qcurve"/>
      <point x="255" y="300"/>
      <point x="233" y="378"/>
      <point x="207" y="409" type="qcurve"/>
      <point x="190" y="409"/>
      <point x="161" y="376"/>
      <point x="139" y="322"/>
      <point x="126" y="253"/>
      <point x="126" y="218" type="qcurve"/>
      <point x="126" y="193"/>
      <point x="143" y="149"/>
      <point x="167" y="129" type="qcurve"/>
      <point x="140" y="123"/>
      <point x="89" y="116"/>
      <point x="63" y="112" type="qcurve"/>
      <point x="40" y="136"/>
      <point x="30" y="197"/>
      <point x="30" y="231" type="qcurve"/>
      <point x="30" y="262"/>
      <point x="39" y="324"/>
      <point x="65" y="384"/>
      <point x="109" y="443"/>
      <point x="145" y="472" type="qcurve"/>
      <point x="145" y="476"/>
      <point x="143" y="483"/>
      <point x="139" y="490" type="qcurve"/>
      <point x="131" y="503"/>
      <point x="115" y="537"/>
      <point x="114" y="557" type="qcurve"/>
      <point x="202" y="580" type="line"/>
      <point x="211" y="552"/>
      <point x="236" y="504"/>
      <point x="253" y="489" type="qcurve"/>
      <point x="281" y="466"/>
      <point x="318" y="411"/>
      <point x="342" y="349"/>
      <point x="357" y="283"/>
      <point x="363" y="249" type="qcurve"/>
      <point x="369" y="213"/>
      <point x="378" y="144"/>
      <point x="392" y="83"/>
      <point x="414" y="35"/>
    </contour>
  </outline>
</glyph>
<glyph name="uni120C" format="2">
  <advance width="1395"/>
  <unicode hex="120C"/>
  <outline>
    <contour>
      <point x="287.12" y="311.989" type="qcurve"/>
      <point x="287.12" y="400.159"/>
      <point x="327.814" y="612.673"/>
      <point x="391.116" y="800.319"/>
      <point x="470.244" y="924.662"/>
      <point x="508.677" y="924.662" type="qcurve"/>
      <point x="567.458" y="856.838"/>
      <point x="617.195" y="682.758"/>
      <point x="635.281" y="581.022" type="qcurve"/>
      <point x="646.585" y="495.112"/>
      <point x="662.411" y="314.249"/>
      <point x="678.236" y="235.122" type="qcurve"/>
      <point x="700.844" y="122.083"/>
      <point x="770.928" y="0"/>
      <point x="811.623" y="0" type="qcurve"/>
      <point x="868.142" y="0"/>
      <point x="945.009" y="6.78236"/>
      <point x="994.746" y="15.8255"/>
      <point x="1024.14" y="22.6079"/>
      <point x="1037.7" y="22.6079" type="qcurve"/>
      <point x="1067.09" y="22.6079"/>
      <point x="1123.61" y="11.3039"/>
      <point x="1155.26" y="11.3039" type="qcurve"/>
      <point x="1252.48" y="13.5647"/>
      <point x="1363.25" y="122.083"/>
      <point x="1363.25" y="230.6" type="qcurve"/>
      <point x="1363.25" y="350.422"/>
      <point x="1234.39" y="452.157"/>
      <point x="1139.44" y="452.157" type="qcurve"/>
      <point x="883.968" y="411.463" type="line"/>
      <point x="859.099" y="585.544" type="line"/>
      <point x="847.795" y="660.15"/>
      <point x="813.883" y="804.84"/>
      <point x="757.364" y="938.227"/>
      <point x="675.975" y="1058.05"/>
      <point x="614.934" y="1107.79" type="qcurve"/>
      <point x="574.24" y="1139.44"/>
      <point x="517.72" y="1247.95"/>
      <point x="497.373" y="1311.26" type="qcurve"/>
      <point x="298.424" y="1259.26" type="line"/>
      <point x="300.685" y="1214.04"/>
      <point x="336.857" y="1137.18"/>
      <point x="354.944" y="1107.79" type="qcurve"/>
      <point x="363.987" y="1091.96"/>
      <point x="368.508" y="1076.13"/>
      <point x="368.508" y="1067.09" type="qcurve"/>
      <point x="287.12" y="1001.53"/>
      <point x="174.081" y="831.97"/>
      <point x="103.996" y="635.281"/>
      <point x="70.0844" y="420.506"/>
      <point x="70.0844" y="309.728" type="qcurve"/>
      <point x="70.0844" y="223.818"/>
      <point x="90.4315" y="58.7805"/>
      <point x="144.69" y="0" type="qcurve"/>
      <point x="203.471" y="9.04315"/>
      <point x="318.771" y="24.8687"/>
      <point x="379.812" y="38.4334" type="qcurve"/>
      <point x="352.683" y="61.0413"/>
      <point x="316.51" y="131.126"/>
      <point x="296.163" y="207.992"/>
      <point x="287.12" y="284.859"/>
    </contour>
    <contour>
      <point x="1137.18" y="235.122" type="qcurve"/>
      <point x="1137.18" y="169.559"/>
      <point x="1121.35" y="94.9531"/>
      <point x="1094.22" y="58.7805"/>
      <point x="1058.05" y="47.4765"/>
      <point x="1035.44" y="47.4765" type="qcurve"/>
      <point x="1008.31" y="47.4765"/>
      <point x="956.313" y="131.126"/>
      <point x="913.358" y="241.904"/>
      <point x="888.489" y="354.944"/>
      <point x="888.489" y="384.334" type="qcurve"/>
      <point x="1006.05" y="404.681" type="line"/>
      <point x="1024.14" y="404.681"/>
      <point x="1069.35" y="386.595"/>
      <point x="1110.05" y="345.9"/>
      <point x="1137.18" y="282.598"/>
    </contour>
  </outline>
</glyph>
<glyph name="uni120D" format="2">
  <advance width="535"/>
  <unicode hex="120D"/>
  <outline>
    <contour>
      <point x="200" y="110" type="qcurve"/>
      <point x="200" y="148"/>
      <point x="186" y="203"/>
      <point x="173" y="203" type="qcurve"/>
      <point x="136" y="186" type="line"/>
      <point x="134" y="184"/>
      <point x="126" y="162"/>
      <point x="117" y="132"/>
      <point x="110" y="102"/>
      <point x="110" y="92" type="qcurve"/>
      <point x="110" y="66"/>
      <point x="131" y="40"/>
      <point x="149" y="40" type="qcurve"/>
      <point x="157" y="40" type="line"/>
      <point x="180" y="40"/>
      <point x="200" y="79"/>
    </contour>
    <contour>
      <point x="413" y="0" type="line"/>
      <point x="396" y="8"/>
      <point x="375" y="41"/>
      <point x="363" y="77"/>
      <point x="358" y="106"/>
      <point x="357" y="110" type="qcurve"/>
      <point x="326" y="278" type="line"/>
      <point x="317" y="314"/>
      <point x="303" y="363"/>
      <point x="289" y="395"/>
      <point x="273" y="413"/>
      <point x="262" y="418" type="qcurve"/>
      <point x="246" y="412"/>
      <point x="218" y="367"/>
      <point x="189" y="306"/>
      <point x="159" y="235"/>
      <point x="141" y="203" type="qcurve"/>
      <point x="190" y="226" type="line"/>
      <point x="216" y="234"/>
      <point x="226" y="234" type="qcurve"/>
      <point x="238" y="234"/>
      <point x="261" y="225"/>
      <point x="278" y="200"/>
      <point x="289" y="154"/>
      <point x="289" y="118" type="qcurve"/>
      <point x="289" y="104"/>
      <point x="285" y="77"/>
      <point x="274" y="55"/>
      <point x="253" y="41"/>
      <point x="237" y="41" type="qcurve"/>
      <point x="212" y="41"/>
      <point x="181" y="36"/>
      <point x="157" y="31" type="qcurve"/>
      <point x="143" y="28"/>
      <point x="124" y="17"/>
      <point x="105" y="7"/>
      <point x="81" y="0"/>
      <point x="63" y="0" type="qcurve"/>
      <point x="47" y="0"/>
      <point x="22" y="50"/>
      <point x="22" y="100" type="qcurve"/>
      <point x="22" y="127"/>
      <point x="45" y="222"/>
      <point x="92" y="330"/>
      <point x="161" y="434"/>
      <point x="207" y="469" type="qcurve"/>
      <point x="203" y="472"/>
      <point x="192" y="491"/>
      <point x="181" y="515"/>
      <point x="173" y="541"/>
      <point x="173" y="552" type="qcurve"/>
      <point x="262" y="579" type="line"/>
      <point x="266" y="571"/>
      <point x="278" y="548"/>
      <point x="293" y="524"/>
      <point x="309" y="503"/>
      <point x="317" y="497" type="qcurve"/>
      <point x="345" y="476"/>
      <point x="389" y="403"/>
      <point x="422" y="305"/>
      <point x="447" y="185"/>
      <point x="457" y="117" type="qcurve"/>
      <point x="459" y="105"/>
      <point x="469" y="74"/>
      <point x="484" y="44"/>
      <point x="502" y="21"/>
      <point x="511" y="17" type="qcurve"/>
    </contour>
  </outline>
</glyph>
<glyph name="uni120E" format="2">
  <advance width="1415"/>
  <unicode hex="120E"/>
  <outline>
    <contour>
      <point x="935.966" y="818.405" type="line"/>
      <point x="935.966" y="646.585"/>
      <point x="999.268" y="510.938"/>
      <point x="1051.27" y="510.938" type="qcurve"/>
      <point x="1069.35" y="510.938"/>
      <point x="1137.18" y="533.546"/>
      <point x="1184.65" y="551.632" type="qcurve"/>
      <point x="1302.21" y="571.979"/>
      <point x="1392.64" y="655.628"/>
      <point x="1392.64" y="716.67" type="qcurve"/>
      <point x="1392.64" y="755.103"/>
      <point x="1372.3" y="834.23"/>
      <point x="1336.13" y="897.533"/>
      <point x="1290.91" y="938.227"/>
      <point x="1263.78" y="938.227" type="qcurve"/>
      <point x="1254.74" y="938.227"/>
      <point x="1250.22" y="935.966" type="qcurve"/>
      <point x="802.579" y="820.666" type="line"/>
      <point x="773.189" y="902.054"/>
      <point x="687.279" y="1049.01"/>
      <point x="614.934" y="1107.79" type="qcurve"/>
      <point x="574.24" y="1139.44"/>
      <point x="517.72" y="1247.95"/>
      <point x="497.373" y="1311.26" type="qcurve"/>
      <point x="298.424" y="1259.26" type="line"/>
      <point x="300.685" y="1214.04"/>
      <point x="336.857" y="1137.18"/>
      <point x="354.944" y="1107.79" type="qcurve"/>
      <point x="363.987" y="1091.96"/>
      <point x="368.508" y="1076.13"/>
      <point x="368.508" y="1067.09" type="qcurve"/>
      <point x="287.12" y="1001.53"/>
      <point x="174.081" y="831.97"/>
      <point x="103.996" y="635.281"/>
      <point x="70.0844" y="420.506"/>
      <point x="70.0844" y="309.728" type="qcurve"/>
      <point x="70.0844" y="223.818"/>
      <point x="90.4315" y="58.7805"/>
      <point x="144.69" y="0" type="qcurve"/>
      <point x="203.471" y="9.04315"/>
      <point x="318.771" y="24.8687"/>
      <point x="379.812" y="38.4334" type="qcurve"/>
      <point x="352.683" y="61.0413"/>
      <point x="316.51" y="131.126"/>
      <point x="296.163" y="207.992"/>
      <point x="287.12" y="284.859"/>
      <point x="287.12" y="311.989" type="qcurve"/>
      <point x="287.12" y="400.159"/>
      <point x="327.814" y="612.673"/>
      <point x="391.116" y="800.319"/>
      <point x="470.244" y="924.662"/>
      <point x="508.677" y="924.662" type="qcurve"/>
      <point x="581.022" y="856.838"/>
      <point x="628.499" y="657.889"/>
      <point x="639.803" y="553.893" type="qcurve"/>
      <point x="648.846" y="483.808"/>
      <point x="657.889" y="336.857"/>
      <point x="678.236" y="198.949"/>
      <point x="718.93" y="74.606"/>
      <point x="757.364" y="27.1294" type="qcurve"/>
      <point x="764.146" y="20.3471"/>
      <point x="789.015" y="2.26079"/>
      <point x="798.058" y="0" type="qcurve"/>
      <point x="1017.35" y="45.2157" type="line"/>
      <point x="976.66" y="79.1276"/>
      <point x="926.923" y="187.645"/>
      <point x="895.272" y="325.553"/>
      <point x="877.185" y="481.548"/>
      <point x="863.621" y="562.936" type="qcurve"/>
      <point x="843.274" y="685.019"/>
      <point x="813.883" y="784.493" type="qcurve"/>
    </contour>
    <contour>
      <point x="1146.22" y="872.664" type="qcurve"/>
      <point x="1168.83" y="872.664"/>
      <point x="1202.74" y="825.187"/>
      <point x="1227.61" y="759.624"/>
      <point x="1241.17" y="687.279"/>
      <point x="1241.17" y="662.411" type="qcurve"/>
      <point x="1241.17" y="628.499"/>
      <point x="1216.3" y="581.022"/>
      <point x="1184.65" y="581.022" type="qcurve"/>
      <point x="1157.52" y="581.022"/>
      <point x="1119.09" y="628.499"/>
      <point x="1096.48" y="694.062"/>
      <point x="1087.44" y="766.407"/>
      <point x="1087.44" y="791.276" type="qcurve"/>
      <point x="1087.44" y="822.927"/>
      <point x="1112.31" y="872.664"/>
    </contour>
  </outline>
</glyph>
<glyph name="uni120F" format="2">
  <advance width="620"/>
  <unicode hex="120F"/>
  <outline>
    <contour>
      <point x="447" y="27" type="qcurve"/>
      <point x="279" y="20" type="line"/>
      <point x="277" y="-10"/>
      <point x="258" y="-52"/>
      <point x="230" y="-78"/>
      <point x="193" y="-89"/>
      <point x="174" y="-89" type="qcurve"/>
      <point x="154" y="-89"/>
      <point x="129" y="-83"/>
      <point x="121" y="-80" type="qcurve"/>
      <point x="142" y="-64"/>
      <point x="150" y="-37"/>
      <point x="150" y="-21" type="qcurve"/>
      <point x="150" y="-9"/>
      <point x="139" y="10"/>
      <point x="139" y="21" type="qcurve"/>
      <point x="139" y="30"/>
      <point x="153" y="30" type="qcurve"/>
      <point x="316" y="37" type="line"/>
      <point x="292" y="79"/>
      <point x="280" y="181"/>
      <point x="272" y="284"/>
      <point x="253" y="380"/>
      <point x="222" y="416" type="qcurve"/>
      <point x="186" y="391"/>
      <point x="146" y="334"/>
      <point x="127" y="283"/>
      <point x="123" y="243"/>
      <point x="123" y="234" type="qcurve"/>
      <point x="123" y="209"/>
      <point x="138" y="160"/>
      <point x="164" y="147" type="qcurve"/>
      <point x="63" y="127" type="line"/>
      <point x="43" y="143"/>
      <point x="30" y="199"/>
      <point x="30" y="224" type="qcurve"/>
      <point x="30" y="249"/>
      <point x="42" y="307"/>
      <point x="72" y="370"/>
      <point x="123" y="434"/>
      <point x="163" y="465" type="qcurve"/>
      <point x="141" y="500" type="line"/>
      <point x="132" y="515"/>
      <point x="117" y="539"/>
      <point x="117" y="559" type="qcurve"/>
      <point x="205" y="582" type="line"/>
      <point x="219" y="550"/>
      <point x="249" y="509"/>
      <point x="266" y="495" type="qcurve"/>
      <point x="303" y="464"/>
      <point x="344" y="387"/>
      <point x="366" y="303"/>
      <point x="376" y="218"/>
      <point x="387" y="138"/>
      <point x="408" y="67"/>
      <point x="430" y="41" type="qcurve"/>
      <point x="574" y="47" type="line"/>
      <point x="586" y="47"/>
      <point x="586" y="37" type="qcurve"/>
      <point x="586" y="26"/>
      <point x="578" y="6"/>
      <point x="578" y="1" type="qcurve"/>
      <point x="579" y="-13"/>
      <point x="604" y="-45"/>
      <point x="616" y="-51" type="qcurve"/>
      <point x="608" y="-55"/>
      <point x="585" y="-60"/>
      <point x="564" y="-63"/>
      <point x="548" y="-64"/>
      <point x="547" y="-64" type="qcurve"/>
      <point x="508" y="-64"/>
      <point x="461" y="-24"/>
    </contour>
  </outline>
</glyph>
<glyph name="uni1210" format="2">
  <advance width="671"/>
  <unicode hex="1210"/>
  <outline>
    <contour>
      <point x="545" y="-1" type="line"/>
      <point x="515" y="10"/>
      <point x="508" y="30" type="qcurve"/>
      <point x="505" y="40"/>
      <point x="502" y="98"/>
      <point x="502" y="129" type="qcurve"/>
      <point x="509" y="240" type="line"/>
      <point x="509" y="286"/>
      <point x="473" y="332"/>
      <point x="423" y="332" type="qcurve"/>
      <point x="388" y="330" type="line"/>
      <point x="375" y="152" type="line"/>
      <point x="376" y="103"/>
      <point x="391" y="30"/>
      <point x="416" y="16" type="qcurve"/>
      <point x="320" y="-1" type="line"/>
      <point x="293" y="9"/>
      <point x="285" y="29" type="qcurve"/>
      <point x="281" y="36"/>
      <point x="278" y="94"/>
      <point x="278" y="128" type="qcurve"/>
      <point x="289" y="316" type="line"/>
      <point x="251" y="316"/>
      <point x="194" y="285"/>
      <point x="155" y="235"/>
      <point x="135" y="170"/>
      <point x="135" y="134" type="qcurve"/>
      <point x="135" y="85" type="line"/>
      <point x="135" y="60"/>
      <point x="148" y="27"/>
      <point x="168" y="13" type="qcurve"/>
      <point x="70" y="-1" type="line"/>
      <point x="49" y="7"/>
      <point x="30" y="36"/>
      <point x="30" y="70" type="qcurve"/>
      <point x="30" y="75"/>
      <point x="30" y="83" type="qcurve"/>
      <point x="30" y="91"/>
      <point x="31" y="109"/>
      <point x="33" y="125"/>
      <point x="34" y="131" type="qcurve"/>
      <point x="40" y="169"/>
      <point x="64" y="229"/>
      <point x="91" y="256" type="qcurve"/>
      <point x="118" y="284"/>
      <point x="215" y="320"/>
      <point x="290" y="331" type="qcurve"/>
      <point x="304" y="478" type="line"/>
      <point x="304" y="509"/>
      <point x="294" y="543"/>
      <point x="275" y="558" type="qcurve"/>
      <point x="366" y="581" type="line"/>
      <point x="392" y="577"/>
      <point x="404" y="538"/>
      <point x="404" y="490" type="qcurve"/>
      <point x="389" y="341" type="line"/>
      <point x="399" y="345"/>
      <point x="428" y="351"/>
      <point x="457" y="354"/>
      <point x="484" y="355"/>
      <point x="493" y="355" type="qcurve"/>
      <point x="508" y="355"/>
      <point x="546" y="344"/>
      <point x="580" y="317"/>
      <point x="604" y="271"/>
      <point x="604" y="236" type="qcurve"/>
      <point x="599" y="150" type="line"/>
      <point x="599" y="102"/>
      <point x="617" y="30"/>
      <point x="641" y="16" type="qcurve"/>
    </contour>
  </outline>
</glyph>
<glyph name="uni1211" format="2">
  <advance width="805"/>
  <unicode hex="1211"/>
  <outline>
    <contour>
      <point x="797" y="199" type="qcurve"/>
      <point x="775" y="175"/>
      <point x="734" y="170" type="qcurve"/>
      <point x="699" y="170"/>
      <point x="651" y="210"/>
      <point x="642" y="243" type="qcurve"/>
      <point x="602" y="228" type="line"/>
      <point x="599" y="152" type="line"/>
      <point x="600" y="104"/>
      <point x="617" y="31"/>
      <point x="641" y="17" type="qcurve"/>
      <point x="545" y="0" type="line"/>
      <point x="516" y="11"/>
      <point x="499" y="75"/>
      <point x="499" y="122" type="qcurve"/>
      <point x="499" y="152"/>
      <point x="506" y="207"/>
      <point x="506" y="242" type="qcurve"/>
      <point x="506" y="288"/>
      <point x="473" y="334"/>
      <point x="423" y="334" type="qcurve"/>
      <point x="388" y="332" type="line"/>
      <point x="375" y="154" type="line"/>
      <point x="376" y="105"/>
      <point x="391" y="31"/>
      <point x="416" y="17" type="qcurve"/>
      <point x="320" y="0" type="line"/>
      <point x="305" y="10"/>
      <point x="289" y="26"/>
      <point x="281" y="52"/>
      <point x="279" y="92"/>
      <point x="279" y="125" type="qcurve"/>
      <point x="279" y="173"/>
      <point x="286" y="270"/>
      <point x="289" y="318" type="qcurve"/>
      <point x="239" y="315"/>
      <point x="179" y="275"/>
      <point x="146" y="211"/>
      <point x="135" y="130"/>
      <point x="135" y="86" type="qcurve"/>
      <point x="135" y="61"/>
      <point x="148" y="28"/>
      <point x="168" y="14" type="qcurve"/>
      <point x="70" y="0" type="line"/>
      <point x="49" y="8"/>
      <point x="30" y="37"/>
      <point x="30" y="71" type="qcurve"/>
      <point x="30" y="81"/>
      <point x="31" y="117"/>
      <point x="33" y="128" type="qcurve"/>
      <point x="42" y="181"/>
      <point x="79" y="251"/>
      <point x="141" y="296"/>
      <point x="230" y="324"/>
      <point x="290" y="335" type="qcurve"/>
      <point x="304" y="480" type="line"/>
      <point x="304" y="511"/>
      <point x="294" y="545"/>
      <point x="275" y="560" type="qcurve"/>
      <point x="366" y="583" type="line"/>
      <point x="392" y="579"/>
      <point x="404" y="540"/>
      <point x="404" y="492" type="qcurve"/>
      <point x="389" y="345" type="line"/>
      <point x="408" y="349"/>
      <point x="464" y="357"/>
      <point x="484" y="357" type="qcurve"/>
      <point x="493" y="357" type="line"/>
      <point x="507" y="357"/>
      <point x="544" y="342"/>
      <point x="578" y="314"/>
      <point x="601" y="273"/>
      <point x="601" y="247" type="qcurve"/>
      <point x="601" y="246" type="line"/>
      <point x="732" y="296" type="line"/>
      <point x="740" y="294"/>
      <point x="746" y="286"/>
      <point x="746" y="276" type="qcurve"/>
      <point x="746" y="271"/>
      <point x="748" y="251"/>
      <point x="757" y="228"/>
      <point x="778" y="206"/>
    </contour>
  </outline>
</glyph>
<glyph name="uni1212" format="2">
  <advance width="789"/>
  <unicode hex="1212"/>
  <outline>
    <contour>
      <point x="651" y="39" type="line"/>
      <point x="650" y="40"/>
      <point x="650" y="45" type="qcurve"/>
      <point x="650" y="57"/>
      <point x="667" y="89"/>
      <point x="687" y="94" type="qcurve"/>
      <point x="746" y="110" type="line"/>
      <point x="744" y="102"/>
      <point x="742" y="80"/>
      <point x="742" y="76" type="qcurve"/>
      <point x="742" y="68"/>
      <point x="747" y="47"/>
      <point x="756" y="28"/>
      <point x="771" y="13"/>
      <point x="782" y="12" type="qcurve"/>
      <point x="752" y="4"/>
      <point x="719" y="-5"/>
      <point x="702" y="-9"/>
      <point x="696" y="-10"/>
      <point x="694" y="-10" type="qcurve"/>
      <point x="681" y="-10"/>
      <point x="667" y="1"/>
      <point x="660" y="14"/>
      <point x="656" y="26"/>
      <point x="654" y="27" type="qcurve"/>
      <point x="624" y="21"/>
      <point x="563" y="2"/>
      <point x="545" y="2" type="qcurve"/>
      <point x="531" y="11"/>
      <point x="514" y="28"/>
      <point x="505" y="51"/>
      <point x="502" y="86"/>
      <point x="502" y="114" type="qcurve"/>
      <point x="502" y="126"/>
      <point x="504" y="160"/>
      <point x="507" y="195"/>
      <point x="509" y="227"/>
      <point x="509" y="237" type="qcurve"/>
      <point x="509" y="286"/>
      <point x="473" y="333"/>
      <point x="423" y="333" type="qcurve"/>
      <point x="388" y="331" type="line"/>
      <point x="375" y="140" type="line"/>
      <point x="376" y="91"/>
      <point x="391" y="33"/>
      <point x="416" y="19" type="qcurve"/>
      <point x="320" y="2" type="line"/>
      <point x="306" y="9"/>
      <point x="289" y="26"/>
      <point x="280" y="50"/>
      <point x="278" y="86"/>
      <point x="278" y="113" type="qcurve"/>
      <point x="278" y="135"/>
      <point x="280" y="186"/>
      <point x="284" y="240"/>
      <point x="287" y="293"/>
      <point x="289" y="317" type="qcurve"/>
      <point x="225" y="313"/>
      <point x="154" y="245"/>
      <point x="140" y="184" type="qcurve"/>
      <point x="139" y="178"/>
      <point x="137" y="157"/>
      <point x="136" y="134"/>
      <point x="135" y="114"/>
      <point x="135" y="108" type="qcurve"/>
      <point x="135" y="84"/>
      <point x="138" y="55"/>
      <point x="145" y="36"/>
      <point x="158" y="23"/>
      <point x="168" y="16" type="qcurve"/>
      <point x="70" y="2" type="line"/>
      <point x="49" y="10"/>
      <point x="30" y="39"/>
      <point x="30" y="73" type="qcurve"/>
      <point x="30" y="93"/>
      <point x="33" y="116" type="qcurve"/>
      <point x="42" y="168"/>
      <point x="80" y="241"/>
      <point x="141" y="291"/>
      <point x="230" y="322"/>
      <point x="290" y="333" type="qcurve"/>
      <point x="304" y="479" type="line"/>
      <point x="304" y="510"/>
      <point x="294" y="544"/>
      <point x="275" y="559" type="qcurve"/>
      <point x="366" y="582" type="line"/>
      <point x="392" y="578"/>
      <point x="404" y="539"/>
      <point x="404" y="491" type="qcurve"/>
      <point x="389" y="343" type="line"/>
      <point x="399" y="346"/>
      <point x="428" y="351"/>
      <point x="457" y="354"/>
      <point x="484" y="356"/>
      <point x="493" y="356" type="qcurve"/>
      <point x="508" y="356"/>
      <point x="546" y="345"/>
      <point x="580" y="318"/>
      <point x="604" y="272"/>
      <point x="604" y="237" type="qcurve"/>
      <point x="604" y="205"/>
      <point x="599" y="163"/>
      <point x="599" y="138" type="qcurve"/>
      <point x="599" y="120"/>
      <point x="601" y="82"/>
      <point x="605" y="50"/>
      <point x="612" y="29"/>
      <point x="618" y="29" type="qcurve"/>
    </contour>
  </outline>
</glyph>
<glyph name="uni1213" format="2">
  <advance width="658"/>
  <unicode hex="1213"/>
  <outline>
    <contour>
      <point x="527" y="-2" type="line"/>
      <point x="514" y="5"/>
      <point x="499" y="19"/>
      <point x="491" y="43"/>
      <point x="489" y="79"/>
      <point x="489" y="108" type="qcurve"/>
      <point x="489" y="126"/>
      <point x="491" y="165"/>
      <point x="494" y="201"/>
      <point x="496" y="229"/>
      <point x="496" y="237" type="qcurve"/>
      <point x="496" y="286"/>
      <point x="460" y="333"/>
      <point x="410" y="333" type="qcurve"/>
      <point x="375" y="331" type="line"/>
      <point x="374" y="320"/>
      <point x="370" y="272"/>
      <point x="366" y="218"/>
      <point x="363" y="168"/>
      <point x="363" y="155" type="qcurve"/>
      <point x="363" y="140"/>
      <point x="375" y="109"/>
      <point x="393" y="101" type="qcurve"/>
      <point x="296" y="84" type="line"/>
      <point x="289" y="85"/>
      <point x="277" y="101"/>
      <point x="268" y="124"/>
      <point x="263" y="151"/>
      <point x="263" y="164" type="qcurve"/>
      <point x="276" y="320" type="line"/>
      <point x="274" y="320" type="line"/>
      <point x="235" y="320"/>
      <point x="181" y="289"/>
      <point x="148" y="241"/>
      <point x="133" y="183"/>
      <point x="133" y="156" type="qcurve"/>
      <point x="133" y="141"/>
      <point x="145" y="108"/>
      <point x="158" y="100" type="qcurve"/>
      <point x="64" y="86" type="line"/>
      <point x="47" y="93"/>
      <point x="30" y="134"/>
      <point x="30" y="157" type="qcurve"/>
      <point x="30" y="184"/>
      <point x="48" y="238"/>
      <point x="101" y="287"/>
      <point x="198" y="325"/>
      <point x="277" y="335" type="qcurve"/>
      <point x="291" y="479" type="line"/>
      <point x="291" y="510"/>
      <point x="281" y="544"/>
      <point x="262" y="559" type="qcurve"/>
      <point x="353" y="582" type="line"/>
      <point x="379" y="578"/>
      <point x="391" y="539"/>
      <point x="391" y="491" type="qcurve"/>
      <point x="376" y="345" type="line"/>
      <point x="386" y="348"/>
      <point x="414" y="352"/>
      <point x="444" y="355"/>
      <point x="471" y="356"/>
      <point x="480" y="356" type="qcurve"/>
      <point x="495" y="356"/>
      <point x="535" y="345"/>
      <point x="571" y="318"/>
      <point x="596" y="272"/>
      <point x="596" y="237" type="qcurve"/>
      <point x="596" y="204"/>
      <point x="591" y="156"/>
      <point x="591" y="129" type="qcurve"/>
      <point x="591" y="81"/>
      <point x="604" y="27"/>
      <point x="628" y="13" type="qcurve"/>
    </contour>
  </outline>
</glyph>
<glyph name="uni1214" format="2">
  <advance width="785"/>
  <unicode hex="1214"/>
  <outline>
    <contour>
      <point x="691" y="96" type="qcurve"/>
      <point x="691" y="134"/>
      <point x="661" y="170"/>
      <point x="642" y="172" type="qcurve"/>
      <point x="602" y="170" type="line"/>
      <point x="602" y="88"/>
      <point x="615" y="15"/>
      <point x="635" y="15" type="qcurve"/>
      <point x="662" y="15"/>
      <point x="691" y="48"/>
    </contour>
    <contour>
      <point x="785" y="96" type="qcurve"/>
      <point x="785" y="48"/>
      <point x="726" y="-1"/>
      <point x="681" y="-1" type="qcurve"/>
      <point x="670" y="-1"/>
      <point x="650" y="3"/>
      <point x="635" y="3" type="qcurve"/>
      <point x="615" y="3"/>
      <point x="580" y="-5"/>
      <point x="549" y="-5" type="qcurve"/>
      <point x="535" y="-5"/>
      <point x="509" y="35"/>
      <point x="509" y="66" type="qcurve"/>
      <point x="509" y="192" type="line"/>
      <point x="509" y="219"/>
      <point x="502" y="270"/>
      <point x="484" y="309"/>
      <point x="450" y="333"/>
      <point x="423" y="333" type="qcurve"/>
      <point x="388" y="331" type="line"/>
      <point x="375" y="133" type="line"/>
      <point x="376" y="84"/>
      <point x="391" y="30"/>
      <point x="416" y="16" type="qcurve"/>
      <point x="320" y="-1" type="line"/>
      <point x="305" y="7"/>
      <point x="288" y="22"/>
      <point x="280" y="45"/>
      <point x="278" y="81"/>
      <point x="278" y="110" type="qcurve"/>
      <point x="278" y="131"/>
      <point x="280" y="182"/>
      <point x="284" y="237"/>
      <point x="287" y="293"/>
      <point x="289" y="317" type="qcurve"/>
      <point x="257" y="315"/>
      <point x="202" y="275"/>
      <point x="161" y="219"/>
      <point x="137" y="156"/>
      <point x="137" y="132" type="qcurve"/>
      <point x="137" y="118"/>
      <point x="139" y="83"/>
      <point x="146" y="49"/>
      <point x="158" y="20"/>
      <point x="168" y="13" type="qcurve"/>
      <point x="70" y="-1" type="line"/>
      <point x="49" y="7"/>
      <point x="30" y="44"/>
      <point x="30" y="78" type="qcurve"/>
      <point x="30" y="101"/>
      <point x="37" y="150"/>
      <point x="52" y="198"/>
      <point x="75" y="241"/>
      <point x="91" y="257" type="qcurve"/>
      <point x="118" y="285"/>
      <point x="215" y="323"/>
      <point x="290" y="334" type="qcurve"/>
      <point x="304" y="479" type="line"/>
      <point x="304" y="510"/>
      <point x="294" y="544"/>
      <point x="275" y="559" type="qcurve"/>
      <point x="366" y="582" type="line"/>
      <point x="392" y="578"/>
      <point x="404" y="539"/>
      <point x="404" y="491" type="qcurve"/>
      <point x="389" y="344" type="line"/>
      <point x="399" y="347"/>
      <point x="428" y="351"/>
      <point x="457" y="354"/>
      <point x="484" y="356"/>
      <point x="493" y="356" type="qcurve"/>
      <point x="524" y="356"/>
      <point x="566" y="329"/>
      <point x="591" y="282"/>
      <point x="602" y="219"/>
      <point x="602" y="183" type="qcurve"/>
      <point x="623" y="186"/>
      <point x="668" y="192"/>
      <point x="688" y="192" type="qcurve"/>
      <point x="734" y="192"/>
      <point x="785" y="145"/>
    </contour>
  </outline>
</glyph>
<glyph name="uni1215" format="2">
  <advance width="1517"/>
  <unicode hex="1215"/>
  <outline>
    <contour>
      <point x="1232.13" y="2.26079" type="line"/>
      <point x="1175.61" y="18.0863"/>
      <point x="1132.65" y="110.779"/>
      <point x="1132.65" y="217.036" type="qcurve"/>
      <point x="1132.65" y="266.773"/>
      <point x="1137.18" y="341.379"/>
      <point x="1143.96" y="406.942"/>
      <point x="1150.74" y="472.505"/>
      <point x="1150.74" y="515.459" type="qcurve"/>
      <point x="1150.74" y="619.456"/>
      <point x="1069.35" y="730.234"/>
      <point x="956.313" y="730.234" type="qcurve"/>
      <point x="870.403" y="730.234" type="line"/>
      <point x="847.795" y="302.945" type="line"/>
      <point x="850.056" y="192.167"/>
      <point x="883.968" y="67.8236"/>
      <point x="940.487" y="36.1726" type="qcurve"/>
      <point x="723.452" y="-2.26079" type="line"/>
      <point x="694.062" y="13.5647"/>
      <point x="657.889" y="45.2157"/>
      <point x="637.542" y="99.4746"/>
      <point x="628.499" y="183.124"/>
      <point x="628.499" y="248.687" type="qcurve"/>
      <point x="628.499" y="357.204"/>
      <point x="648.846" y="587.805"/>
      <point x="655.628" y="698.583" type="qcurve"/>
      <point x="567.458" y="698.583"/>
      <point x="434.071" y="619.456"/>
      <point x="343.64" y="492.852"/>
      <point x="298.424" y="332.336"/>
      <point x="298.424" y="250.947" type="qcurve"/>
      <point x="298.424" y="196.688"/>
      <point x="307.467" y="128.865"/>
      <point x="325.553" y="83.6491"/>
      <point x="357.204" y="51.9981"/>
      <point x="379.812" y="36.1726" type="qcurve"/>
      <point x="158.255" y="4.52157" type="line"/>
      <point x="110.779" y="22.6079"/>
      <point x="67.8236" y="88.1707"/>
      <point x="67.8236" y="165.037" type="qcurve"/>
      <point x="67.8236" y="273.555"/>
      <point x="133.386" y="479.287"/>
      <point x="205.732" y="551.632" type="qcurve"/>
      <point x="266.773" y="614.934"/>
      <point x="486.069" y="709.887"/>
      <point x="662.411" y="734.756" type="qcurve"/>
      <point x="680.497" y="1019.62" type="line"/>
      <point x="680.497" y="1062.57"/>
      <point x="639.803" y="1091.96"/>
      <point x="603.63" y="1091.96" type="qcurve"/>
      <point x="296.163" y="1049.01" type="line"/>
      <point x="318.771" y="1069.35"/>
      <point x="343.64" y="1148.48"/>
      <point x="343.64" y="1180.13" type="qcurve"/>
      <point x="343.64" y="1220.83"/>
      <point x="298.424" y="1268.3"/>
      <point x="262.251" y="1286.39" type="qcurve"/>
      <point x="418.246" y="1313.52" type="line"/>
      <point x="504.156" y="1313.52"/>
      <point x="590.065" y="1268.3"/>
      <point x="608.152" y="1200.48" type="qcurve"/>
      <point x="614.934" y="1168.83"/>
      <point x="614.934" y="1125.87" type="qcurve"/>
      <point x="802.579" y="1157.52" type="line"/>
      <point x="854.578" y="1157.52"/>
      <point x="890.75" y="1082.92"/>
      <point x="890.75" y="1046.74" type="qcurve"/>
      <point x="872.664" y="757.364" type="line"/>
      <point x="924.662" y="761.885"/>
      <point x="1069.35" y="775.45"/>
      <point x="1114.57" y="775.45" type="qcurve"/>
      <point x="1148.48" y="775.45"/>
      <point x="1234.39" y="750.581"/>
      <point x="1311.26" y="689.54"/>
      <point x="1365.52" y="585.544"/>
      <point x="1365.52" y="506.416" type="qcurve"/>
      <point x="1354.21" y="302.945" type="line"/>
      <point x="1354.21" y="194.428"/>
      <point x="1394.91" y="72.3452"/>
      <point x="1449.16" y="40.6942" type="qcurve"/>
    </contour>
  </outline>
</glyph>
<glyph name="uni1216" format="2">
  <advance width="671"/>
  <unicode hex="1216"/>
  <outline>
    <contour>
      <point x="545" y="84" type="line"/>
      <point x="521" y="93"/>
      <point x="505" y="125"/>
      <point x="505" y="155" type="qcurve"/>
      <point x="505" y="181"/>
      <point x="508" y="238"/>
      <point x="508" y="268" type="qcurve"/>
      <point x="508" y="297"/>
      <point x="472" y="333"/>
      <point x="424" y="333" type="qcurve"/>
      <point x="386" y="331" type="line"/>
      <point x="378" y="220" type="line"/>
      <point x="379" y="169"/>
      <point x="392" y="114"/>
      <point x="416" y="101" type="qcurve"/>
      <point x="320" y="84" type="line"/>
      <point x="296" y="93"/>
      <point x="275" y="130"/>
      <point x="275" y="159" type="qcurve"/>
      <point x="275" y="168"/>
      <point x="276" y="187"/>
      <point x="279" y="220"/>
      <point x="284" y="274"/>
      <point x="289" y="318" type="qcurve"/>
      <point x="250" y="318"/>
      <point x="191" y="280"/>
      <point x="152" y="219"/>
      <point x="133" y="145"/>
      <point x="133" y="109" type="qcurve"/>
      <point x="133" y="85"/>
      <point x="136" y="54"/>
      <point x="143" y="34"/>
      <point x="157" y="20"/>
      <point x="168" y="13" type="qcurve"/>
      <point x="70" y="-1" type="line"/>
      <point x="49" y="7"/>
      <point x="30" y="36"/>
      <point x="30" y="70" type="qcurve"/>
      <point x="30" y="94"/>
      <point x="37" y="147"/>
      <point x="52" y="197"/>
      <point x="75" y="242"/>
      <point x="91" y="258" type="qcurve"/>
      <point x="118" y="286"/>
      <point x="215" y="325"/>
      <point x="290" y="336" type="qcurve"/>
      <point x="304" y="480" type="line"/>
      <point x="304" y="511"/>
      <point x="294" y="545"/>
      <point x="275" y="560" type="qcurve"/>
      <point x="366" y="583" type="line"/>
      <point x="392" y="579"/>
      <point x="404" y="540"/>
      <point x="404" y="492" type="qcurve"/>
      <point x="389" y="346" type="line"/>
      <point x="473" y="352" type="line"/>
      <point x="494" y="352"/>
      <point x="541" y="344"/>
      <point x="580" y="324"/>
      <point x="606" y="293"/>
      <point x="606" y="270" type="qcurve"/>
      <point x="606" y="250"/>
      <point x="602" y="199"/>
      <point x="602" y="176" type="qcurve"/>
      <point x="602" y="150"/>
      <point x="620" y="114"/>
      <point x="641" y="101" type="qcurve"/>
    </contour>
  </outline>
</glyph>
<glyph name="uni1217" format="2">
  <advance width="817"/>
  <unicode hex="1217"/>
  <outline>
    <contour>
      <point x="787.375" y="-83" type="qcurve"/>
      <point x="767.375" y="-70"/>
      <point x="748.375" y="-37"/>
      <point x="748.375" y="-23" type="qcurve" smooth="yes"/>
      <point x="748.375" y="-20"/>
      <point x="751.375" y="-8"/>
      <point x="755.375" y="4"/>
      <point x="756.375" y="8" type="qcurve" smooth="yes"/>
      <point x="757.375" y="12"/>
      <point x="757.375" y="13" type="qcurve"/>
      <point x="757.375" y="24"/>
      <point x="745.375" y="24" type="qcurve" smooth="yes"/>
      <point x="591" y="24" type="line"/>
      <point x="591" y="223" type="line" smooth="yes"/>
      <point x="591" y="258"/>
      <point x="567" y="304"/>
      <point x="533" y="331"/>
      <point x="495" y="342"/>
      <point x="480" y="342" type="qcurve" smooth="yes"/>
      <point x="471" y="342"/>
      <point x="444" y="341"/>
      <point x="415" y="338"/>
      <point x="386" y="332"/>
      <point x="376" y="328" type="qcurve"/>
      <point x="391" y="477" type="line"/>
      <point x="391" y="525"/>
      <point x="379" y="564"/>
      <point x="353" y="568" type="qcurve"/>
      <point x="262" y="545" type="line"/>
      <point x="281" y="530"/>
      <point x="291" y="496"/>
      <point x="291" y="465" type="qcurve"/>
      <point x="277" y="318" type="line"/>
      <point x="219" y="309"/>
      <point x="128" y="287"/>
      <point x="64" y="245"/>
      <point x="30" y="174"/>
      <point x="30" y="116" type="qcurve" smooth="yes"/>
      <point x="30" y="94"/>
      <point x="48" y="63"/>
      <point x="70" y="55" type="qcurve"/>
      <point x="168" y="69" type="line"/>
      <point x="154" y="79"/>
      <point x="135" y="116"/>
      <point x="135" y="145" type="qcurve" smooth="yes"/>
      <point x="135" y="214"/>
      <point x="204" y="302"/>
      <point x="276" y="303" type="qcurve"/>
      <point x="274" y="271"/>
      <point x="266" y="202"/>
      <point x="266" y="171" type="qcurve" smooth="yes"/>
      <point x="266" y="142"/>
      <point x="269" y="106"/>
      <point x="277" y="83"/>
      <point x="293" y="68"/>
      <point x="307" y="60" type="qcurve"/>
      <point x="403" y="77" type="line"/>
      <point x="378" y="91"/>
      <point x="368" y="151"/>
      <point x="367" y="200" type="qcurve"/>
      <point x="375" y="317" type="line"/>
      <point x="410" y="319" type="line"/>
      <point x="460" y="319"/>
      <point x="496" y="273"/>
      <point x="496" y="227" type="qcurve" smooth="yes"/>
      <point x="496" y="24" type="line"/>
      <point x="339.375" y="24" type="line" smooth="yes"/>
      <point x="325.375" y="24"/>
      <point x="325.375" y="15" type="qcurve" smooth="yes"/>
      <point x="325.375" y="12"/>
      <point x="334.375" y="-9"/>
      <point x="334.375" y="-18" type="qcurve" smooth="yes"/>
      <point x="334.375" y="-34"/>
      <point x="317.375" y="-80"/>
      <point x="295.375" y="-95" type="qcurve"/>
      <point x="303.375" y="-98"/>
      <point x="336.375" y="-103"/>
      <point x="350.375" y="-103" type="qcurve" smooth="yes"/>
      <point x="371.375" y="-103"/>
      <point x="409.375" y="-90"/>
      <point x="441.375" y="-64"/>
      <point x="462.375" y="-21"/>
      <point x="465.375" y="9" type="qcurve"/>
      <point x="618.375" y="9" type="line"/>
      <point x="631.375" y="-45"/>
      <point x="677.375" y="-92"/>
      <point x="720.375" y="-94" type="qcurve"/>
      <point x="731.375" y="-94"/>
      <point x="764.375" y="-89"/>
    </contour>
  </outline>
</glyph>
<glyph name="uni1218" format="2">
  <advance width="1885"/>
  <unicode hex="1218"/>
  <outline>
    <contour>
      <point x="1096.48" y="1101" type="qcurve"/>
      <point x="1058.05" y="1101"/>
      <point x="981.182" y="1053.53"/>
      <point x="949.531" y="974.399" type="qcurve"/>
      <point x="739.277" y="418.246" type="line"/>
      <point x="727.973" y="393.377"/>
      <point x="694.062" y="348.161"/>
      <point x="642.064" y="348.161" type="qcurve"/>
      <point x="583.283" y="348.161"/>
      <point x="499.634" y="325.553"/>
      <point x="431.81" y="298.424"/>
      <point x="373.03" y="275.816"/>
      <point x="339.118" y="275.816" type="qcurve"/>
      <point x="226.079" y="275.816"/>
      <point x="110.779" y="379.812"/>
      <point x="110.779" y="492.852" type="qcurve"/>
      <point x="110.779" y="519.981"/>
      <point x="117.561" y="587.805"/>
      <point x="131.126" y="657.889"/>
      <point x="146.951" y="718.93"/>
      <point x="153.734" y="739.277" type="qcurve"/>
      <point x="185.385" y="820.666"/>
      <point x="271.294" y="945.009"/>
      <point x="397.899" y="1037.7"/>
      <point x="569.718" y="1096.48"/>
      <point x="689.54" y="1110.05" type="qcurve"/>
      <point x="757.364" y="1116.83"/>
      <point x="841.013" y="1116.83" type="qcurve"/>
      <point x="1085.18" y="1134.92"/>
      <point x="1356.47" y="1155.26"/>
      <point x="1492.12" y="1166.57"/>
      <point x="1537.34" y="1168.83"/>
      <point x="1555.42" y="1168.83" type="qcurve"/>
      <point x="1609.68" y="1168.83"/>
      <point x="1700.11" y="1141.7"/>
      <point x="1767.94" y="1076.13"/>
      <point x="1806.37" y="969.878"/>
      <point x="1806.37" y="890.75" type="qcurve"/>
      <point x="1806.37" y="804.84"/>
      <point x="1774.72" y="657.889"/>
      <point x="1706.89" y="542.589"/>
      <point x="1605.16" y="467.983"/>
      <point x="1535.07" y="456.679" type="qcurve"/>
      <point x="1446.9" y="456.679" type="line"/>
      <point x="1372.3" y="456.679"/>
      <point x="1270.56" y="443.114"/>
      <point x="1202.74" y="429.55"/>
      <point x="1159.78" y="415.985"/>
      <point x="1143.96" y="415.985" type="qcurve"/>
      <point x="1112.31" y="415.985"/>
      <point x="1069.35" y="452.157"/>
      <point x="1069.35" y="504.156" type="qcurve"/>
      <point x="1150.74" y="992.486" type="line"/>
      <point x="1150.74" y="1053.53"/>
      <point x="1125.87" y="1101"/>
    </contour>
    <contour>
      <point x="680.497" y="1071.61" type="qcurve"/>
      <point x="639.803" y="1071.61"/>
      <point x="529.024" y="1017.35"/>
      <point x="474.765" y="942.748" type="qcurve"/>
      <point x="438.593" y="893.011"/>
      <point x="375.291" y="743.799"/>
      <point x="352.683" y="664.671" type="qcurve"/>
      <point x="343.64" y="623.977"/>
      <point x="334.597" y="501.895"/>
      <point x="334.597" y="458.94" type="qcurve"/>
      <point x="334.597" y="406.942"/>
      <point x="382.073" y="339.118"/>
      <point x="445.375" y="339.118" type="qcurve"/>
      <point x="477.026" y="341.379"/>
      <point x="522.242" y="409.202"/>
      <point x="547.111" y="474.765" type="qcurve"/>
      <point x="739.277" y="1001.53" type="line"/>
      <point x="739.277" y="1039.96"/>
      <point x="712.148" y="1071.61"/>
    </contour>
    <contour>
      <point x="1580.29" y="933.705" type="qcurve"/>
      <point x="1580.29" y="1046.74"/>
      <point x="1498.9" y="1128.13"/>
      <point x="1449.16" y="1128.13" type="qcurve"/>
      <point x="1419.77" y="1128.13"/>
      <point x="1376.82" y="1105.52"/>
      <point x="1372.3" y="1087.44" type="qcurve"/>
      <point x="1297.69" y="560.675" type="line"/>
      <point x="1297.69" y="547.111"/>
      <point x="1299.95" y="517.72"/>
      <point x="1318.04" y="497.373"/>
      <point x="1356.47" y="483.808"/>
      <point x="1390.38" y="483.808" type="qcurve"/>
      <point x="1437.86" y="483.808"/>
      <point x="1510.21" y="567.458"/>
      <point x="1557.68" y="700.844"/>
      <point x="1580.29" y="859.099"/>
    </contour>
  </outline>
</glyph>
<glyph name="uni1219" format="2">
  <advance width="987"/>
  <unicode hex="1219"/>
  <outline>
    <contour>
      <point x="980" y="333" type="qcurve"/>
      <point x="965" y="341"/>
      <point x="946" y="375"/>
      <point x="946" y="398" type="qcurve"/>
      <point x="946" y="407"/>
      <point x="952" y="434"/>
      <point x="957" y="442" type="qcurve"/>
      <point x="924" y="440"/>
      <point x="892" y="436"/>
      <point x="878" y="433" type="qcurve"/>
      <point x="856" y="429"/>
      <point x="833" y="394"/>
      <point x="833" y="382" type="qcurve"/>
      <point x="800" y="375" type="line"/>
      <point x="801" y="380"/>
      <point x="801" y="384" type="qcurve"/>
      <point x="801" y="389"/>
      <point x="801" y="394" type="qcurve"/>
      <point x="801" y="429"/>
      <point x="784" y="476"/>
      <point x="754" y="505"/>
      <point x="714" y="517"/>
      <point x="690" y="517" type="qcurve"/>
      <point x="682" y="517"/>
      <point x="662" y="516"/>
      <point x="602" y="511"/>
      <point x="482" y="502"/>
      <point x="374" y="494" type="qcurve"/>
      <point x="337" y="494"/>
      <point x="307" y="491" type="qcurve"/>
      <point x="254" y="485"/>
      <point x="178" y="459"/>
      <point x="122" y="418"/>
      <point x="84" y="363"/>
      <point x="70" y="327" type="qcurve"/>
      <point x="67" y="318"/>
      <point x="60" y="291"/>
      <point x="54" y="260"/>
      <point x="51" y="230"/>
      <point x="51" y="218" type="qcurve"/>
      <point x="51" y="168"/>
      <point x="102" y="122"/>
      <point x="152" y="122" type="qcurve"/>
      <point x="167" y="122"/>
      <point x="193" y="132"/>
      <point x="223" y="144"/>
      <point x="260" y="154"/>
      <point x="286" y="154" type="qcurve"/>
      <point x="309" y="154"/>
      <point x="324" y="174"/>
      <point x="329" y="185" type="qcurve"/>
      <point x="422" y="431" type="line"/>
      <point x="436" y="466"/>
      <point x="470" y="487"/>
      <point x="487" y="487" type="qcurve"/>
      <point x="500" y="487"/>
      <point x="511" y="466"/>
      <point x="511" y="439" type="qcurve"/>
      <point x="475" y="223" type="line"/>
      <point x="475" y="200"/>
      <point x="494" y="184"/>
      <point x="508" y="184" type="qcurve"/>
      <point x="515" y="184"/>
      <point x="534" y="190"/>
      <point x="564" y="196"/>
      <point x="609" y="202"/>
      <point x="642" y="202" type="qcurve"/>
      <point x="681" y="202" type="line"/>
      <point x="736" y="210"/>
      <point x="793" y="297"/>
      <point x="799" y="359" type="qcurve"/>
      <point x="835" y="367" type="line"/>
      <point x="836" y="352"/>
      <point x="848" y="335"/>
      <point x="866" y="325"/>
      <point x="887" y="322"/>
      <point x="897" y="322" type="qcurve"/>
      <point x="921" y="324"/>
      <point x="955" y="328"/>
    </contour>
    <contour>
      <point x="303" y="474" type="qcurve"/>
      <point x="317" y="474"/>
      <point x="329" y="460"/>
      <point x="329" y="443" type="qcurve"/>
      <point x="244" y="210" type="line"/>
      <point x="233" y="181"/>
      <point x="213" y="151"/>
      <point x="199" y="150" type="qcurve"/>
      <point x="171" y="150"/>
      <point x="150" y="180"/>
      <point x="150" y="203" type="qcurve"/>
      <point x="150" y="222"/>
      <point x="154" y="276"/>
      <point x="158" y="294" type="qcurve"/>
      <point x="168" y="329"/>
      <point x="196" y="395"/>
      <point x="212" y="417" type="qcurve"/>
      <point x="236" y="450"/>
      <point x="285" y="474"/>
    </contour>
    <contour>
      <point x="701" y="413" type="qcurve"/>
      <point x="701" y="380"/>
      <point x="691" y="310"/>
      <point x="670" y="251"/>
      <point x="638" y="214"/>
      <point x="617" y="214" type="qcurve"/>
      <point x="602" y="214"/>
      <point x="585" y="220"/>
      <point x="577" y="229"/>
      <point x="576" y="242"/>
      <point x="576" y="248" type="qcurve"/>
      <point x="609" y="481" type="line"/>
      <point x="611" y="489"/>
      <point x="630" y="499"/>
      <point x="643" y="499" type="qcurve"/>
      <point x="665" y="499"/>
      <point x="701" y="463"/>
    </contour>
  </outline>
</glyph>
<glyph name="uni121B" format="2">
  <advance width="710"/>
  <unicode hex="121B"/>
  <outline>
    <contour>
      <point x="575" y="487" type="qcurve"/>
      <point x="573" y="516"/>
      <point x="549" y="543"/>
      <point x="533" y="543" type="qcurve"/>
      <point x="510" y="542"/>
      <point x="499" y="510" type="qcurve"/>
      <point x="490" y="460"/>
      <point x="480" y="405"/>
      <point x="475" y="378"/>
      <point x="474" y="371"/>
      <point x="474" y="369" type="qcurve"/>
      <point x="474" y="337"/>
      <point x="505" y="337" type="qcurve"/>
      <point x="515" y="337"/>
      <point x="532" y="341"/>
      <point x="547" y="358"/>
      <point x="561" y="390"/>
      <point x="567" y="418" type="qcurve"/>
      <point x="568" y="424"/>
      <point x="571" y="443"/>
      <point x="574" y="464"/>
      <point x="575" y="482"/>
    </contour>
    <contour>
      <point x="237" y="482" type="line"/>
      <point x="237" y="498"/>
      <point x="217" y="517"/>
      <point x="201" y="517" type="qcurve"/>
      <point x="180" y="517"/>
      <point x="139" y="476"/>
      <point x="114" y="422" type="qcurve"/>
      <point x="111" y="411"/>
      <point x="107" y="386"/>
      <point x="107" y="374" type="qcurve"/>
      <point x="107" y="359"/>
      <point x="112" y="329"/>
      <point x="123" y="304"/>
      <point x="139" y="288"/>
      <point x="151" y="288" type="qcurve"/>
      <point x="158" y="288"/>
      <point x="167" y="291" type="qcurve"/>
      <point x="178" y="294"/>
      <point x="189" y="307"/>
      <point x="201" y="346"/>
      <point x="219" y="417"/>
      <point x="237" y="479" type="qcurve"/>
    </contour>
    <contour>
      <point x="666" y="471" type="qcurve"/>
      <point x="652" y="382"/>
      <point x="633" y="256"/>
      <point x="620" y="169"/>
      <point x="612" y="117"/>
      <point x="609" y="88"/>
      <point x="608" y="74"/>
      <point x="608" y="70" type="qcurve"/>
      <point x="610" y="56"/>
      <point x="620" y="31"/>
      <point x="635" y="21" type="qcurve"/>
      <point x="539" y="-2" type="line"/>
      <point x="525" y="3"/>
      <point x="504" y="35"/>
      <point x="504" y="55" type="qcurve"/>
      <point x="545" y="304" type="line"/>
      <point x="545" y="315"/>
      <point x="534" y="326"/>
      <point x="528" y="326" type="qcurve"/>
      <point x="486" y="326"/>
      <point x="443" y="315"/>
      <point x="430" y="315" type="qcurve"/>
      <point x="410" y="316"/>
      <point x="381" y="338"/>
      <point x="381" y="364" type="qcurve"/>
      <point x="406" y="492" type="line"/>
      <point x="403" y="517"/>
      <point x="371" y="517" type="qcurve"/>
      <point x="360" y="516"/>
      <point x="352" y="513"/>
      <point x="344" y="507" type="qcurve"/>
      <point x="338" y="502"/>
      <point x="326" y="467"/>
      <point x="314" y="421"/>
      <point x="303" y="370"/>
      <point x="292" y="328"/>
      <point x="282" y="300"/>
      <point x="278" y="300" type="qcurve"/>
      <point x="277" y="300" type="line"/>
      <point x="254" y="300"/>
      <point x="212" y="291"/>
      <point x="175" y="279"/>
      <point x="145" y="270"/>
      <point x="135" y="270" type="qcurve"/>
      <point x="105" y="270"/>
      <point x="60" y="279"/>
      <point x="31" y="303"/>
      <point x="16" y="344"/>
      <point x="16" y="376" type="qcurve"/>
      <point x="16" y="401"/>
      <point x="41" y="457"/>
      <point x="98" y="504"/>
      <point x="192" y="534"/>
      <point x="260" y="534" type="qcurve"/>
      <point x="276" y="534"/>
      <point x="327" y="536"/>
      <point x="384" y="539"/>
      <point x="442" y="543"/>
      <point x="465" y="544" type="qcurve"/>
      <point x="500" y="550"/>
      <point x="540" y="557"/>
      <point x="555" y="557" type="qcurve"/>
      <point x="617" y="557"/>
      <point x="666" y="510"/>
    </contour>
  </outline>
</glyph>
<glyph name="uni121C" format="2">
  <advance width="798"/>
  <unicode hex="121C"/>
  <outline>
    <contour>
      <point x="774" y="119" type="qcurve"/>
      <point x="774" y="94"/>
      <point x="764" y="50"/>
      <point x="743" y="18"/>
      <point x="710" y="0"/>
      <point x="686" y="0" type="qcurve"/>
      <point x="670" y="0"/>
      <point x="650" y="9"/>
      <point x="629" y="9" type="qcurve"/>
      <point x="600" y="9"/>
      <point x="551" y="0"/>
      <point x="519" y="0" type="qcurve"/>
      <point x="494" y="0"/>
      <point x="480" y="37"/>
      <point x="480" y="58" type="qcurve"/>
      <point x="537" y="311" type="line"/>
      <point x="537" y="324"/>
      <point x="524" y="333"/>
      <point x="518" y="333" type="qcurve"/>
      <point x="497" y="333"/>
      <point x="469" y="330"/>
      <point x="449" y="327"/>
      <point x="435" y="323"/>
      <point x="429" y="322" type="qcurve"/>
      <point x="409" y="323"/>
      <point x="380" y="345"/>
      <point x="380" y="371" type="qcurve"/>
      <point x="402" y="484" type="line"/>
      <point x="402" y="504"/>
      <point x="391" y="524"/>
      <point x="371" y="524" type="qcurve"/>
      <point x="351" y="524"/>
      <point x="336" y="506"/>
      <point x="329" y="484" type="qcurve"/>
      <point x="322" y="461"/>
      <point x="308" y="398"/>
      <point x="294" y="341"/>
      <point x="282" y="300"/>
      <point x="277" y="300" type="qcurve"/>
      <point x="254" y="300"/>
      <point x="211" y="291"/>
      <point x="174" y="279"/>
      <point x="144" y="270"/>
      <point x="134" y="270" type="qcurve"/>
      <point x="74" y="270"/>
      <point x="15" y="318"/>
      <point x="15" y="383" type="qcurve"/>
      <point x="15" y="408"/>
      <point x="40" y="464"/>
      <point x="97" y="511"/>
      <point x="191" y="541"/>
      <point x="259" y="541" type="qcurve"/>
      <point x="275" y="541"/>
      <point x="326" y="543"/>
      <point x="383" y="546"/>
      <point x="441" y="550"/>
      <point x="464" y="551" type="qcurve"/>
      <point x="499" y="557"/>
      <point x="540" y="564"/>
      <point x="557" y="564" type="qcurve"/>
      <point x="617" y="564"/>
      <point x="672" y="510"/>
      <point x="672" y="471" type="qcurve"/>
      <point x="612" y="195" type="line"/>
      <point x="671" y="208" type="line"/>
      <point x="720" y="208"/>
      <point x="774" y="167"/>
    </contour>
    <contour>
      <point x="200" y="524" type="qcurve"/>
      <point x="181" y="524"/>
      <point x="147" y="491"/>
      <point x="121" y="443"/>
      <point x="106" y="389"/>
      <point x="106" y="367" type="qcurve"/>
      <point x="106" y="352"/>
      <point x="111" y="324"/>
      <point x="122" y="302"/>
      <point x="138" y="288"/>
      <point x="150" y="288" type="qcurve"/>
      <point x="170" y="288"/>
      <point x="197" y="320"/>
      <point x="203" y="344" type="qcurve"/>
      <point x="209" y="365"/>
      <point x="220" y="414"/>
      <point x="230" y="456"/>
      <point x="236" y="486"/>
      <point x="236" y="489" type="qcurve"/>
      <point x="236" y="505"/>
      <point x="216" y="524"/>
    </contour>
    <contour>
      <point x="574" y="494" type="qcurve"/>
      <point x="572" y="523"/>
      <point x="548" y="550"/>
      <point x="534" y="550" type="qcurve"/>
      <point x="509" y="549"/>
      <point x="498" y="517" type="qcurve"/>
      <point x="473" y="376" type="line"/>
      <point x="473" y="360"/>
      <point x="488" y="344"/>
      <point x="511" y="344" type="qcurve"/>
      <point x="518" y="344"/>
      <point x="532" y="348"/>
      <point x="546" y="365"/>
      <point x="559" y="397"/>
      <point x="566" y="425" type="qcurve"/>
      <point x="567" y="431"/>
      <point x="570" y="450"/>
      <point x="573" y="471"/>
      <point x="574" y="489"/>
    </contour>
    <contour>
      <point x="675" y="114" type="qcurve"/>
      <point x="675" y="185"/>
      <point x="636" y="186" type="qcurve"/>
      <point x="609" y="181" type="line"/>
      <point x="589" y="76" type="line"/>
      <point x="589" y="65"/>
      <point x="591" y="46"/>
      <point x="598" y="31"/>
      <point x="614" y="22"/>
      <point x="629" y="22" type="qcurve"/>
      <point x="657" y="24"/>
      <point x="675" y="75"/>
    </contour>
  </outline>
</glyph>
<glyph name="uni121E" format="2">
  <advance width="1646"/>
  <unicode hex="121E"/>
  <outline>
    <contour>
      <point x="1354.21" y="983.442" type="qcurve"/>
      <point x="1354.21" y="1091.96"/>
      <point x="1286.39" y="1225.35"/>
      <point x="1238.91" y="1225.35" type="qcurve"/>
      <point x="1189.17" y="1225.35"/>
      <point x="1125.87" y="1078.4"/>
      <point x="1125.87" y="899.793" type="qcurve"/>
      <point x="1125.87" y="798.058"/>
      <point x="1186.91" y="698.583"/>
      <point x="1229.87" y="694.062" type="qcurve"/>
      <point x="1254.74" y="696.322"/>
      <point x="1299.95" y="743.799"/>
      <point x="1333.86" y="822.927"/>
      <point x="1354.21" y="924.662"/>
    </contour>
    <contour>
      <point x="542.589" y="1107.79" type="line"/>
      <point x="538.067" y="1157.52"/>
      <point x="501.895" y="1198.22"/>
      <point x="481.548" y="1198.22" type="qcurve"/>
      <point x="452.157" y="1198.22"/>
      <point x="388.855" y="1137.18"/>
      <point x="339.118" y="1026.4"/>
      <point x="305.206" y="868.142"/>
      <point x="305.206" y="770.928" type="qcurve"/>
      <point x="305.206" y="689.54"/>
      <point x="366.248" y="583.283"/>
      <point x="420.506" y="583.283" type="qcurve"/>
      <point x="504.156" y="583.283"/>
      <point x="508.677" y="639.803" type="qcurve"/>
    </contour>
    <contour>
      <point x="1578.03" y="967.617" type="qcurve"/>
      <point x="1578.03" y="825.187"/>
      <point x="1462.73" y="657.889"/>
      <point x="1347.43" y="657.889" type="qcurve"/>
      <point x="1318.04" y="657.889"/>
      <point x="1254.74" y="669.193"/>
      <point x="1229.87" y="669.193" type="qcurve"/>
      <point x="1209.52" y="669.193"/>
      <point x="1153" y="660.15"/>
      <point x="1091.96" y="646.585"/>
      <point x="1042.22" y="637.542"/>
      <point x="1028.66" y="637.542" type="qcurve"/>
      <point x="976.66" y="637.542"/>
      <point x="897.533" y="703.105"/>
      <point x="897.533" y="770.928" type="qcurve"/>
      <point x="917.88" y="1119.09" type="line"/>
      <point x="917.88" y="1153"/>
      <point x="888.489" y="1220.83"/>
      <point x="847.795" y="1220.83" type="qcurve"/>
      <point x="811.623" y="1220.83"/>
      <point x="766.407" y="1153"/>
      <point x="761.885" y="1069.35" type="qcurve"/>
      <point x="714.409" y="192.167" type="line"/>
      <point x="714.409" y="151.473"/>
      <point x="730.234" y="94.9531"/>
      <point x="777.711" y="72.3452" type="qcurve"/>
      <point x="544.85" y="-4.52157" type="line"/>
      <point x="515.459" y="0"/>
      <point x="465.722" y="58.7805"/>
      <point x="465.722" y="103.996" type="qcurve"/>
      <point x="501.895" y="567.458" type="line"/>
      <point x="269.034" y="519.981" type="line"/>
      <point x="210.253" y="519.981"/>
      <point x="131.126" y="556.154"/>
      <point x="85.9099" y="617.195"/>
      <point x="67.8236" y="694.062"/>
      <point x="67.8236" y="734.756" type="qcurve"/>
      <point x="67.8236" y="802.579"/>
      <point x="94.9531" y="972.138"/>
      <point x="194.428" y="1123.61"/>
      <point x="388.855" y="1229.87"/>
      <point x="558.414" y="1236.65" type="qcurve"/>
      <point x="666.932" y="1250.22"/>
      <point x="845.534" y="1254.74"/>
      <point x="940.487" y="1254.74" type="qcurve"/>
      <point x="954.052" y="1254.74"/>
      <point x="1024.14" y="1250.22"/>
      <point x="1101" y="1247.95"/>
      <point x="1166.57" y="1243.43"/>
      <point x="1173.35" y="1243.43" type="qcurve"/>
      <point x="1218.56" y="1243.43"/>
      <point x="1295.43" y="1257"/>
      <point x="1354.21" y="1257" type="qcurve"/>
      <point x="1469.51" y="1257"/>
      <point x="1578.03" y="1137.18"/>
    </contour>
  </outline>
</glyph>
<glyph name="uni121F" format="2">
  <advance width="842"/>
  <unicode hex="121F"/>
  <outline>
    <contour>
      <point x="785" y="93" type="qcurve"/>
      <point x="623" y="87" type="line"/>
      <point x="626" y="113"/>
      <point x="655" y="313"/>
      <point x="679" y="495" type="qcurve"/>
      <point x="679" y="534"/>
      <point x="630" y="581"/>
      <point x="568" y="581" type="qcurve"/>
      <point x="553" y="581"/>
      <point x="513" y="574"/>
      <point x="478" y="568" type="qcurve"/>
      <point x="455" y="567"/>
      <point x="397" y="563"/>
      <point x="340" y="560"/>
      <point x="289" y="558"/>
      <point x="273" y="558" type="qcurve"/>
      <point x="205" y="558"/>
      <point x="111" y="528"/>
      <point x="54" y="481"/>
      <point x="29" y="425"/>
      <point x="29" y="400" type="qcurve"/>
      <point x="29" y="368"/>
      <point x="44" y="327"/>
      <point x="73" y="303"/>
      <point x="118" y="294"/>
      <point x="148" y="294" type="qcurve"/>
      <point x="158" y="294"/>
      <point x="188" y="303"/>
      <point x="225" y="315"/>
      <point x="268" y="324"/>
      <point x="291" y="324" type="qcurve"/>
      <point x="297" y="324"/>
      <point x="312" y="367"/>
      <point x="327" y="427"/>
      <point x="341" y="490"/>
      <point x="346" y="511" type="qcurve"/>
      <point x="351" y="529"/>
      <point x="371" y="540"/>
      <point x="388" y="541" type="qcurve"/>
      <point x="419" y="541"/>
      <point x="419" y="516" type="qcurve"/>
      <point x="394" y="388" type="line"/>
      <point x="394" y="362"/>
      <point x="423" y="340"/>
      <point x="443" y="339" type="qcurve"/>
      <point x="456" y="339"/>
      <point x="504" y="351"/>
      <point x="546" y="351" type="qcurve"/>
      <point x="558" y="351"/>
      <point x="558" y="328" type="qcurve"/>
      <point x="519" y="85" type="line"/>
      <point x="341" y="79" type="line"/>
      <point x="327" y="79"/>
      <point x="327" y="70" type="qcurve"/>
      <point x="327" y="56"/>
      <point x="336" y="48"/>
      <point x="336" y="37" type="qcurve"/>
      <point x="336" y="21"/>
      <point x="319" y="-21"/>
      <point x="297" y="-36" type="qcurve"/>
      <point x="305" y="-39"/>
      <point x="338" y="-44"/>
      <point x="352" y="-44" type="qcurve"/>
      <point x="370" y="-44"/>
      <point x="408" y="-33"/>
      <point x="441" y="-7"/>
      <point x="464" y="35"/>
      <point x="467" y="66" type="qcurve"/>
      <point x="658" y="66" type="line"/>
      <point x="658" y="65" type="line"/>
      <point x="671" y="11"/>
      <point x="718" y="-33"/>
      <point x="760" y="-33" type="qcurve"/>
      <point x="764" y="-33"/>
      <point x="794" y="-28"/>
      <point x="827" y="-22" type="qcurve"/>
      <point x="807" y="-9"/>
      <point x="788" y="26"/>
      <point x="788" y="40" type="qcurve"/>
      <point x="788" y="51"/>
      <point x="797" y="67"/>
      <point x="797" y="76" type="qcurve"/>
      <point x="797" y="81"/>
      <point x="791" y="93"/>
    </contour>
    <contour>
      <point x="250" y="506" type="qcurve"/>
      <point x="250" y="503" type="line"/>
      <point x="232" y="441"/>
      <point x="214" y="370"/>
      <point x="202" y="331"/>
      <point x="191" y="318"/>
      <point x="180" y="315" type="qcurve"/>
      <point x="171" y="312"/>
      <point x="164" y="312" type="qcurve"/>
      <point x="152" y="312"/>
      <point x="136" y="328"/>
      <point x="125" y="353"/>
      <point x="120" y="383"/>
      <point x="120" y="398" type="qcurve"/>
      <point x="120" y="410"/>
      <point x="124" y="435"/>
      <point x="127" y="446" type="qcurve"/>
      <point x="152" y="500"/>
      <point x="193" y="541"/>
      <point x="214" y="541" type="qcurve"/>
      <point x="230" y="541"/>
      <point x="250" y="522"/>
    </contour>
    <contour>
      <point x="588" y="511" type="qcurve"/>
      <point x="588" y="498"/>
      <point x="583" y="454"/>
      <point x="580" y="442" type="qcurve"/>
      <point x="573" y="415"/>
      <point x="559" y="382"/>
      <point x="544" y="366"/>
      <point x="528" y="361"/>
      <point x="518" y="361" type="qcurve"/>
      <point x="487" y="361"/>
      <point x="487" y="393" type="qcurve"/>
      <point x="487" y="395"/>
      <point x="488" y="402"/>
      <point x="493" y="429"/>
      <point x="503" y="484"/>
      <point x="512" y="534" type="qcurve"/>
      <point x="523" y="566"/>
      <point x="546" y="567" type="qcurve"/>
      <point x="562" y="567"/>
      <point x="588" y="540"/>
    </contour>
  </outline>
</glyph>
<glyph name="uni1220" format="2">
  <advance width="1759"/>
  <unicode hex="1220"/>
  <outline>
    <contour>
      <point x="1580.29" y="859.099" type="qcurve"/>
      <point x="1580.29" y="655.628"/>
      <point x="1523.77" y="400.159"/>
      <point x="1403.95" y="257.73"/>
      <point x="1218.56" y="203.471"/>
      <point x="1091.96" y="203.471" type="qcurve"/>
      <point x="1030.92" y="203.471"/>
      <point x="965.356" y="221.557"/>
      <point x="935.966" y="232.861" type="qcurve"/>
      <point x="915.619" y="205.732"/>
      <point x="850.056" y="158.255"/>
      <point x="773.189" y="119.822"/>
      <point x="694.062" y="88.1707"/>
      <point x="660.15" y="76.8668" type="qcurve"/>
      <point x="644.324" y="70.0844"/>
      <point x="560.675" y="51.9981"/>
      <point x="449.897" y="31.651"/>
      <point x="327.814" y="11.3039"/>
      <point x="273.555" y="2.26079" type="qcurve"/>
      <point x="196.688" y="2.26079"/>
      <point x="119.822" y="88.1707"/>
      <point x="119.822" y="153.734" type="qcurve"/>
      <point x="119.822" y="214.775"/>
      <point x="149.212" y="370.769"/>
      <point x="185.385" y="547.111"/>
      <point x="214.775" y="741.538"/>
      <point x="214.775" y="843.274" type="qcurve"/>
      <point x="214.775" y="856.838"/>
      <point x="210.253" y="904.315"/>
      <point x="201.21" y="956.313"/>
      <point x="185.385" y="1001.53"/>
      <point x="171.82" y="1010.57" type="qcurve"/>
      <point x="388.855" y="1067.09" type="line"/>
      <point x="467.983" y="1060.31"/>
      <point x="467.983" y="942.748" type="qcurve"/>
      <point x="467.983" y="856.838"/>
      <point x="436.332" y="660.15"/>
      <point x="395.638" y="458.94"/>
      <point x="361.726" y="271.294"/>
      <point x="361.726" y="194.428" type="qcurve"/>
      <point x="361.726" y="149.212"/>
      <point x="411.463" y="70.0844"/>
      <point x="458.94" y="70.0844" type="qcurve"/>
      <point x="495.112" y="72.3452"/>
      <point x="583.283" y="119.822"/>
      <point x="660.15" y="194.428"/>
      <point x="723.452" y="289.381"/>
      <point x="737.017" y="341.379" type="qcurve"/>
      <point x="750.581" y="395.638"/>
      <point x="773.189" y="569.718"/>
      <point x="789.015" y="752.842"/>
      <point x="798.058" y="917.88"/>
      <point x="798.058" y="963.095" type="qcurve"/>
      <point x="798.058" y="999.268"/>
      <point x="768.668" y="1044.48"/>
      <point x="732.495" y="1062.57" type="qcurve"/>
      <point x="951.791" y="1116.83" type="line"/>
      <point x="990.225" y="1112.31"/>
      <point x="1028.66" y="1044.48"/>
      <point x="1028.66" y="945.009" type="qcurve"/>
      <point x="1028.66" y="872.664"/>
      <point x="1012.83" y="714.409"/>
      <point x="994.746" y="558.414"/>
      <point x="978.921" y="418.246"/>
      <point x="978.921" y="368.508" type="qcurve"/>
      <point x="978.921" y="321.032"/>
      <point x="1037.7" y="241.904"/>
      <point x="1085.18" y="241.904" type="qcurve"/>
      <point x="1114.57" y="241.904"/>
      <point x="1186.91" y="269.034"/>
      <point x="1254.74" y="311.989"/>
      <point x="1309" y="373.03"/>
      <point x="1320.3" y="406.942" type="qcurve"/>
      <point x="1329.34" y="434.071"/>
      <point x="1345.17" y="560.675"/>
      <point x="1354.21" y="703.105"/>
      <point x="1360.99" y="827.448"/>
      <point x="1360.99" y="850.056" type="qcurve"/>
      <point x="1360.99" y="890.75"/>
      <point x="1354.21" y="972.138"/>
      <point x="1336.13" y="1042.22"/>
      <point x="1302.21" y="1091.96"/>
      <point x="1275.08" y="1101" type="qcurve"/>
      <point x="1485.34" y="1157.52" type="line"/>
      <point x="1544.12" y="1134.92"/>
      <point x="1580.29" y="969.878"/>
    </contour>
  </outline>
</glyph>
<glyph name="uni1221" format="2">
  <advance width="2030"/>
  <unicode hex="1221"/>
  <outline>
    <contour>
      <point x="1998.54" y="619.456" type="qcurve"/>
      <point x="1955.58" y="635.281"/>
      <point x="1908.1" y="685.019"/>
      <point x="1887.76" y="737.017"/>
      <point x="1883.24" y="782.232"/>
      <point x="1883.24" y="793.536" type="qcurve"/>
      <point x="1883.24" y="831.97"/>
      <point x="1851.58" y="838.752" type="qcurve"/>
      <point x="1831.24" y="829.709"/>
      <point x="1679.76" y="764.146"/>
      <point x="1578.03" y="725.713" type="qcurve"/>
      <point x="1578.03" y="748.321"/>
      <point x="1580.29" y="811.623"/>
      <point x="1580.29" y="859.099" type="qcurve"/>
      <point x="1580.29" y="969.878"/>
      <point x="1544.12" y="1134.92"/>
      <point x="1485.34" y="1157.52" type="qcurve"/>
      <point x="1275.08" y="1101" type="line"/>
      <point x="1302.21" y="1091.96"/>
      <point x="1336.13" y="1042.22"/>
      <point x="1354.21" y="972.138"/>
      <point x="1360.99" y="890.75"/>
      <point x="1360.99" y="850.056" type="qcurve"/>
      <point x="1360.99" y="827.448"/>
      <point x="1354.21" y="700.844"/>
      <point x="1345.17" y="556.154"/>
      <point x="1329.34" y="427.289"/>
      <point x="1320.3" y="400.159" type="qcurve"/>
      <point x="1309" y="366.248"/>
      <point x="1254.74" y="305.206"/>
      <point x="1186.91" y="262.251"/>
      <point x="1114.57" y="235.122"/>
      <point x="1085.18" y="235.122" type="qcurve"/>
      <point x="1037.7" y="235.122"/>
      <point x="978.921" y="314.249"/>
      <point x="978.921" y="361.726" type="qcurve"/>
      <point x="978.921" y="411.463"/>
      <point x="994.746" y="553.893"/>
      <point x="1012.83" y="712.148"/>
      <point x="1028.66" y="872.664"/>
      <point x="1028.66" y="945.009" type="qcurve"/>
      <point x="1028.66" y="1044.48"/>
      <point x="990.225" y="1112.31"/>
      <point x="951.791" y="1116.83" type="qcurve"/>
      <point x="732.495" y="1062.57" type="line"/>
      <point x="768.668" y="1044.48"/>
      <point x="798.058" y="999.268"/>
      <point x="798.058" y="963.095" type="qcurve"/>
      <point x="798.058" y="917.88"/>
      <point x="789.015" y="752.842"/>
      <point x="773.189" y="565.197"/>
      <point x="750.581" y="388.855"/>
      <point x="737.017" y="334.597" type="qcurve"/>
      <point x="723.452" y="282.598"/>
      <point x="660.15" y="187.645"/>
      <point x="583.283" y="113.039"/>
      <point x="495.112" y="65.5628"/>
      <point x="458.94" y="63.302" type="qcurve"/>
      <point x="411.463" y="63.302"/>
      <point x="361.726" y="142.43"/>
      <point x="361.726" y="187.645" type="qcurve"/>
      <point x="361.726" y="264.512"/>
      <point x="395.638" y="454.418"/>
      <point x="436.332" y="657.889"/>
      <point x="467.983" y="856.838"/>
      <point x="467.983" y="942.748" type="qcurve"/>
      <point x="467.983" y="1060.31"/>
      <point x="388.855" y="1067.09" type="qcurve"/>
      <point x="171.82" y="1010.57" type="line"/>
      <point x="185.385" y="1001.53"/>
      <point x="201.21" y="956.313"/>
      <point x="210.253" y="904.315"/>
      <point x="214.775" y="856.838"/>
      <point x="214.775" y="843.274" type="qcurve"/>
      <point x="214.775" y="741.538"/>
      <point x="185.385" y="544.85"/>
      <point x="149.212" y="366.248"/>
      <point x="119.822" y="207.992"/>
      <point x="119.822" y="146.951" type="qcurve"/>
      <point x="119.822" y="81.3883"/>
      <point x="196.688" y="-4.52157"/>
      <point x="273.555" y="-4.52157" type="qcurve"/>
      <point x="327.814" y="4.52157"/>
      <point x="449.897" y="24.8687"/>
      <point x="560.675" y="45.2157"/>
      <point x="644.324" y="63.302"/>
      <point x="660.15" y="70.0844" type="qcurve"/>
      <point x="694.062" y="81.3883"/>
      <point x="773.189" y="113.039"/>
      <point x="850.056" y="151.473"/>
      <point x="915.619" y="198.949"/>
      <point x="935.966" y="226.079" type="qcurve"/>
      <point x="965.356" y="214.775"/>
      <point x="1030.92" y="196.688"/>
      <point x="1091.96" y="196.688" type="qcurve"/>
      <point x="1220.83" y="196.688"/>
      <point x="1399.43" y="239.643"/>
      <point x="1512.47" y="348.161"/>
      <point x="1568.99" y="538.067"/>
      <point x="1575.77" y="687.279" type="qcurve"/>
      <point x="1648.11" y="716.67" type="line"/>
      <point x="1668.46" y="642.064"/>
      <point x="1776.98" y="553.893"/>
      <point x="1856.11" y="553.893" type="qcurve"/>
      <point x="1948.8" y="565.197"/>
    </contour>
  </outline>
</glyph>
<glyph name="uni1222" format="2">
  <advance width="1573"/>
  <unicode hex="1222"/>
  <outline>
    <contour>
      <point x="1424.3" y="-24.8687" type="line"/>
      <point x="1412.99" y="-27.1294"/>
      <point x="1370.04" y="-36.1726"/>
      <point x="1360.99" y="-36.1726" type="qcurve"/>
      <point x="1331.6" y="-36.1726"/>
      <point x="1297.69" y="-13.5647"/>
      <point x="1277.34" y="15.8255"/>
      <point x="1266.04" y="40.6942"/>
      <point x="1261.52" y="42.955" type="qcurve"/>
      <point x="990.225" y="0" type="line"/>
      <point x="945.009" y="2.26079"/>
      <point x="895.272" y="72.3452"/>
      <point x="895.272" y="122.083" type="qcurve"/>
      <point x="933.705" y="305.206"/>
      <point x="978.921" y="519.981"/>
      <point x="1006.05" y="642.064"/>
      <point x="1019.62" y="696.322"/>
      <point x="1024.14" y="716.67" type="qcurve"/>
      <point x="967.617" y="716.67"/>
      <point x="845.534" y="746.06"/>
      <point x="773.189" y="793.536" type="qcurve"/>
      <point x="746.06" y="761.885"/>
      <point x="635.281" y="691.801"/>
      <point x="488.33" y="628.499"/>
      <point x="316.51" y="587.805"/>
      <point x="228.34" y="587.805" type="qcurve"/>
      <point x="158.255" y="587.805"/>
      <point x="79.1276" y="669.193"/>
      <point x="79.1276" y="725.713" type="qcurve"/>
      <point x="79.1276" y="761.885"/>
      <point x="97.2138" y="831.97"/>
      <point x="122.083" y="906.576"/>
      <point x="140.169" y="994.746"/>
      <point x="140.169" y="1051.27" type="qcurve"/>
      <point x="140.169" y="1085.18"/>
      <point x="115.3" y="1141.7"/>
      <point x="67.8236" y="1162.04" type="qcurve"/>
      <point x="280.338" y="1220.83" type="line"/>
      <point x="314.249" y="1220.83"/>
      <point x="363.987" y="1148.48"/>
      <point x="363.987" y="1091.96" type="qcurve"/>
      <point x="363.987" y="1049.01"/>
      <point x="343.64" y="963.095"/>
      <point x="321.032" y="874.925"/>
      <point x="300.685" y="782.232"/>
      <point x="300.685" y="734.756" type="qcurve"/>
      <point x="300.685" y="694.062"/>
      <point x="341.379" y="648.846"/>
      <point x="375.291" y="644.324" type="qcurve"/>
      <point x="409.202" y="646.585"/>
      <point x="472.505" y="678.236"/>
      <point x="522.242" y="723.452"/>
      <point x="560.675" y="779.972"/>
      <point x="567.458" y="807.101" type="qcurve"/>
      <point x="587.805" y="881.707"/>
      <point x="614.934" y="1028.66"/>
      <point x="614.934" y="1103.26" type="qcurve"/>
      <point x="614.934" y="1132.65"/>
      <point x="578.762" y="1180.13"/>
      <point x="531.285" y="1209.52" type="qcurve"/>
      <point x="766.407" y="1259.26" type="line"/>
      <point x="838.752" y="1241.17"/>
      <point x="838.752" y="1162.04" type="qcurve"/>
      <point x="838.752" y="1103.26"/>
      <point x="809.362" y="949.531"/>
      <point x="809.362" y="865.881" type="qcurve"/>
      <point x="809.362" y="825.187"/>
      <point x="893.011" y="761.885"/>
      <point x="958.574" y="755.103" type="qcurve"/>
      <point x="990.225" y="755.103"/>
      <point x="1044.48" y="789.015"/>
      <point x="1046.74" y="825.187" type="qcurve"/>
      <point x="1110.05" y="1164.31" type="line"/>
      <point x="1110.05" y="1189.17"/>
      <point x="1067.09" y="1243.43"/>
      <point x="1035.44" y="1261.52" type="qcurve"/>
      <point x="1243.43" y="1311.26" type="line"/>
      <point x="1281.87" y="1297.69"/>
      <point x="1322.56" y="1227.61"/>
      <point x="1322.56" y="1191.43" type="qcurve"/>
      <point x="1121.35" y="137.908" type="line"/>
      <point x="1121.35" y="97.2138"/>
      <point x="1148.48" y="58.7805"/>
      <point x="1164.31" y="58.7805" type="qcurve"/>
      <point x="1254.74" y="72.3452" type="line"/>
      <point x="1257" y="72.3452"/>
      <point x="1257" y="85.9099" type="qcurve"/>
      <point x="1257" y="108.518"/>
      <point x="1284.13" y="174.081"/>
      <point x="1336.13" y="194.428" type="qcurve"/>
      <point x="1354.21" y="201.21"/>
      <point x="1446.9" y="221.557"/>
      <point x="1478.55" y="230.6" type="qcurve"/>
      <point x="1474.03" y="226.079"/>
      <point x="1469.51" y="183.124"/>
      <point x="1469.51" y="158.255" type="qcurve"/>
      <point x="1469.51" y="135.647"/>
      <point x="1478.55" y="85.9099"/>
      <point x="1496.64" y="40.6942"/>
      <point x="1528.29" y="11.3039"/>
      <point x="1548.64" y="9.04315" type="qcurve"/>
    </contour>
  </outline>
</glyph>
<glyph name="uni1223" format="2">
  <advance width="624"/>
  <unicode hex="1223"/>
  <outline>
    <contour>
      <point x="534" y="23" type="line"/>
      <point x="514" y="35"/>
      <point x="498" y="58"/>
      <point x="498" y="73" type="qcurve"/>
      <point x="498" y="76"/>
      <point x="499" y="85"/>
      <point x="504" y="114"/>
      <point x="514" y="170"/>
      <point x="533" y="269"/>
      <point x="563" y="419"/>
      <point x="584" y="527" type="qcurve"/>
      <point x="584" y="543"/>
      <point x="566" y="574"/>
      <point x="549" y="580" type="qcurve"/>
      <point x="457" y="558" type="line"/>
      <point x="471" y="550"/>
      <point x="490" y="526"/>
      <point x="490" y="515" type="qcurve"/>
      <point x="462" y="365" type="line"/>
      <point x="461" y="349"/>
      <point x="437" y="334"/>
      <point x="423" y="334" type="qcurve"/>
      <point x="394" y="337"/>
      <point x="357" y="365"/>
      <point x="357" y="383" type="qcurve"/>
      <point x="357" y="420"/>
      <point x="370" y="488"/>
      <point x="370" y="514" type="qcurve"/>
      <point x="370" y="549"/>
      <point x="338" y="557" type="qcurve"/>
      <point x="234" y="535" type="line"/>
      <point x="255" y="522"/>
      <point x="271" y="501"/>
      <point x="271" y="488" type="qcurve"/>
      <point x="271" y="455"/>
      <point x="259" y="390"/>
      <point x="250" y="357" type="qcurve"/>
      <point x="247" y="345"/>
      <point x="230" y="320"/>
      <point x="208" y="300"/>
      <point x="180" y="286"/>
      <point x="165" y="285" type="qcurve"/>
      <point x="150" y="287"/>
      <point x="132" y="307"/>
      <point x="132" y="325" type="qcurve"/>
      <point x="132" y="346"/>
      <point x="141" y="387"/>
      <point x="151" y="426"/>
      <point x="160" y="464"/>
      <point x="160" y="483" type="qcurve"/>
      <point x="160" y="508"/>
      <point x="138" y="540"/>
      <point x="123" y="540" type="qcurve"/>
      <point x="29" y="514" type="line"/>
      <point x="50" y="505"/>
      <point x="61" y="480"/>
      <point x="61" y="465" type="qcurve"/>
      <point x="61" y="440"/>
      <point x="53" y="401"/>
      <point x="42" y="368"/>
      <point x="34" y="337"/>
      <point x="34" y="321" type="qcurve"/>
      <point x="34" y="296"/>
      <point x="69" y="260"/>
      <point x="100" y="260" type="qcurve"/>
      <point x="139" y="260"/>
      <point x="215" y="278"/>
      <point x="280" y="306"/>
      <point x="329" y="337"/>
      <point x="341" y="351" type="qcurve"/>
      <point x="373" y="330"/>
      <point x="427" y="317"/>
      <point x="452" y="317" type="qcurve"/>
      <point x="445" y="285"/>
      <point x="427" y="207"/>
      <point x="410" y="134"/>
      <point x="398" y="77"/>
      <point x="398" y="66" type="qcurve"/>
      <point x="398" y="37"/>
      <point x="421" y="-2"/>
      <point x="438" y="-2" type="qcurve"/>
    </contour>
  </outline>
</glyph>
<glyph name="uni1224" format="2">
  <advance width="1626"/>
  <unicode hex="1224"/>
  <outline>
    <contour>
      <point x="1589.33" y="255.469" type="qcurve"/>
      <point x="1589.33" y="336.857"/>
      <point x="1460.47" y="452.157"/>
      <point x="1331.6" y="452.157" type="qcurve"/>
      <point x="1295.43" y="443.114"/>
      <point x="1216.3" y="429.55"/>
      <point x="1175.61" y="422.767" type="qcurve"/>
      <point x="1320.3" y="1195.96" type="line"/>
      <point x="1320.3" y="1232.13"/>
      <point x="1279.61" y="1302.21"/>
      <point x="1241.17" y="1315.78" type="qcurve"/>
      <point x="1033.18" y="1266.04" type="line"/>
      <point x="1064.83" y="1247.95"/>
      <point x="1107.79" y="1193.7"/>
      <point x="1107.79" y="1168.83" type="qcurve"/>
      <point x="1044.48" y="829.709" type="line"/>
      <point x="1042.22" y="793.536"/>
      <point x="987.964" y="759.624"/>
      <point x="956.313" y="759.624" type="qcurve"/>
      <point x="890.75" y="766.407"/>
      <point x="807.101" y="829.709"/>
      <point x="807.101" y="870.403" type="qcurve"/>
      <point x="807.101" y="954.052"/>
      <point x="836.491" y="1107.79"/>
      <point x="836.491" y="1166.57" type="qcurve"/>
      <point x="836.491" y="1245.69"/>
      <point x="764.146" y="1263.78" type="qcurve"/>
      <point x="529.024" y="1214.04" type="line"/>
      <point x="576.501" y="1184.65"/>
      <point x="612.673" y="1137.18"/>
      <point x="612.673" y="1107.79" type="qcurve"/>
      <point x="612.673" y="1033.18"/>
      <point x="585.544" y="886.229"/>
      <point x="565.197" y="811.623" type="qcurve"/>
      <point x="558.414" y="784.493"/>
      <point x="519.981" y="727.973"/>
      <point x="470.244" y="682.758"/>
      <point x="406.942" y="651.107"/>
      <point x="373.03" y="648.846" type="qcurve"/>
      <point x="339.118" y="653.368"/>
      <point x="298.424" y="698.583"/>
      <point x="298.424" y="739.277" type="qcurve"/>
      <point x="298.424" y="786.754"/>
      <point x="318.771" y="879.446"/>
      <point x="341.379" y="967.617"/>
      <point x="361.726" y="1053.53"/>
      <point x="361.726" y="1096.48" type="qcurve"/>
      <point x="361.726" y="1153"/>
      <point x="311.989" y="1225.35"/>
      <point x="278.077" y="1225.35" type="qcurve"/>
      <point x="65.5628" y="1166.57" type="line"/>
      <point x="113.039" y="1146.22"/>
      <point x="137.908" y="1089.7"/>
      <point x="137.908" y="1055.79" type="qcurve"/>
      <point x="137.908" y="999.268"/>
      <point x="119.822" y="911.097"/>
      <point x="94.9531" y="836.491"/>
      <point x="76.8668" y="766.407"/>
      <point x="76.8668" y="730.234" type="qcurve"/>
      <point x="76.8668" y="673.715"/>
      <point x="155.994" y="592.326"/>
      <point x="226.079" y="592.326" type="qcurve"/>
      <point x="314.249" y="592.326"/>
      <point x="486.069" y="633.02"/>
      <point x="633.02" y="696.322"/>
      <point x="743.799" y="766.407"/>
      <point x="770.928" y="798.058" type="qcurve"/>
      <point x="843.274" y="750.581"/>
      <point x="960.835" y="721.191"/>
      <point x="1017.35" y="721.191" type="qcurve"/>
      <point x="1015.09" y="714.409"/>
      <point x="997.007" y="628.499"/>
      <point x="969.878" y="504.156"/>
      <point x="940.487" y="363.987"/>
      <point x="913.358" y="239.643"/>
      <point x="897.533" y="149.212"/>
      <point x="897.533" y="140.169" type="qcurve"/>
      <point x="897.533" y="90.4315"/>
      <point x="951.791" y="0"/>
      <point x="1001.53" y="0" type="qcurve"/>
      <point x="1107.79" y="0"/>
      <point x="1207.26" y="13.5647"/>
      <point x="1232.13" y="13.5647" type="qcurve"/>
      <point x="1257" y="13.5647"/>
      <point x="1327.08" y="0"/>
      <point x="1356.47" y="0" type="qcurve"/>
      <point x="1392.64" y="0"/>
      <point x="1476.29" y="27.1294"/>
      <point x="1544.12" y="88.1707"/>
      <point x="1589.33" y="185.385"/>
    </contour>
    <contour>
      <point x="1365.52" y="228.34" type="qcurve"/>
      <point x="1365.52" y="137.908"/>
      <point x="1318.04" y="33.9118"/>
      <point x="1238.91" y="33.9118" type="qcurve"/>
      <point x="1182.39" y="33.9118"/>
      <point x="1119.09" y="88.1707"/>
      <point x="1119.09" y="146.951" type="qcurve"/>
      <point x="1168.83" y="391.116" type="line"/>
      <point x="1186.91" y="395.638"/>
      <point x="1220.83" y="397.899"/>
      <point x="1238.91" y="400.159" type="qcurve"/>
      <point x="1284.13" y="397.899"/>
      <point x="1358.73" y="323.293"/>
    </contour>
  </outline>
</glyph>
<glyph name="uni1225" format="2">
  <advance width="798"/>
  <unicode hex="1225"/>
  <outline>
    <contour>
      <point x="768" y="475" type="qcurve"/>
      <point x="768" y="446"/>
      <point x="741" y="389"/>
      <point x="693" y="343"/>
      <point x="630" y="314"/>
      <point x="594" y="314" type="qcurve"/>
      <point x="564" y="314"/>
      <point x="530" y="322"/>
      <point x="517" y="329" type="qcurve"/>
      <point x="512" y="314"/>
      <point x="482" y="288"/>
      <point x="437" y="269"/>
      <point x="381" y="257"/>
      <point x="351" y="257" type="qcurve"/>
      <point x="316" y="257"/>
      <point x="262" y="265"/>
      <point x="247" y="272" type="qcurve"/>
      <point x="158" y="114" type="line"/>
      <point x="141" y="85"/>
      <point x="130" y="56"/>
      <point x="130" y="45" type="qcurve"/>
      <point x="130" y="31"/>
      <point x="151" y="16" type="qcurve"/>
      <point x="72" y="1" type="line"/>
      <point x="53" y="2"/>
      <point x="30" y="32"/>
      <point x="30" y="52" type="qcurve"/>
      <point x="30" y="67"/>
      <point x="38" y="81" type="qcurve"/>
      <point x="175" y="334" type="line"/>
      <point x="194" y="369"/>
      <point x="214" y="448"/>
      <point x="214" y="471" type="qcurve"/>
      <point x="214" y="487"/>
      <point x="208" y="515"/>
      <point x="199" y="523" type="qcurve"/>
      <point x="290" y="542" type="line"/>
      <point x="321" y="533"/>
      <point x="321" y="501" type="qcurve"/>
      <point x="321" y="478"/>
      <point x="307" y="420"/>
      <point x="290" y="366"/>
      <point x="276" y="323"/>
      <point x="276" y="314" type="qcurve"/>
      <point x="276" y="293"/>
      <point x="313" y="270"/>
      <point x="332" y="270" type="qcurve"/>
      <point x="348" y="270"/>
      <point x="380" y="281"/>
      <point x="407" y="300"/>
      <point x="427" y="325"/>
      <point x="431" y="340" type="qcurve"/>
      <point x="437" y="355"/>
      <point x="446" y="400"/>
      <point x="454" y="445"/>
      <point x="458" y="484"/>
      <point x="458" y="493" type="qcurve"/>
      <point x="458" y="522"/>
      <point x="425" y="539" type="qcurve"/>
      <point x="524" y="558" type="line"/>
      <point x="541" y="554"/>
      <point x="553" y="536"/>
      <point x="553" y="522" type="qcurve"/>
      <point x="553" y="498"/>
      <point x="547" y="452"/>
      <point x="539" y="409"/>
      <point x="533" y="372"/>
      <point x="533" y="359" type="qcurve"/>
      <point x="533" y="345"/>
      <point x="557" y="327"/>
      <point x="573" y="327" type="qcurve"/>
      <point x="597" y="327"/>
      <point x="632" y="357"/>
      <point x="656" y="403"/>
      <point x="668" y="458"/>
      <point x="668" y="484" type="qcurve"/>
      <point x="668" y="513"/>
      <point x="659" y="546"/>
      <point x="642" y="559" type="qcurve"/>
      <point x="733" y="581" type="line"/>
      <point x="754" y="570"/>
      <point x="768" y="525"/>
    </contour>
  </outline>
</glyph>
<glyph name="uni1226" format="2">
  <advance width="1456"/>
  <unicode hex="1226"/>
  <outline>
    <contour>
      <point x="1388.12" y="1044.48" type="qcurve"/>
      <point x="1388.12" y="978.921"/>
      <point x="1318.04" y="854.578"/>
      <point x="1200.48" y="757.364"/>
      <point x="1039.96" y="698.583"/>
      <point x="949.531" y="698.583" type="qcurve"/>
      <point x="895.272" y="698.583"/>
      <point x="779.972" y="709.887"/>
      <point x="718.93" y="721.191" type="qcurve"/>
      <point x="391.116" y="235.122" type="line"/>
      <point x="370.769" y="203.471"/>
      <point x="341.379" y="135.647"/>
      <point x="341.379" y="103.996" type="qcurve"/>
      <point x="341.379" y="61.0413"/>
      <point x="370.769" y="38.4334" type="qcurve"/>
      <point x="180.863" y="0" type="line"/>
      <point x="110.779" y="15.8255"/>
      <point x="110.779" y="99.4746" type="qcurve"/>
      <point x="110.779" y="162.777"/>
      <point x="149.212" y="221.557" type="qcurve"/>
      <point x="434.071" y="642.064" type="line"/>
      <point x="395.638" y="642.064"/>
      <point x="262.251" y="621.716"/>
      <point x="207.992" y="621.716" type="qcurve"/>
      <point x="133.386" y="621.716"/>
      <point x="67.8236" y="666.932"/>
      <point x="67.8236" y="712.148" type="qcurve"/>
      <point x="67.8236" y="748.321"/>
      <point x="90.4315" y="847.795"/>
      <point x="117.561" y="954.052"/>
      <point x="140.169" y="1060.31"/>
      <point x="140.169" y="1101" type="qcurve"/>
      <point x="140.169" y="1132.65"/>
      <point x="106.257" y="1180.13"/>
      <point x="79.1276" y="1200.48" type="qcurve"/>
      <point x="275.816" y="1250.22" type="line"/>
      <point x="318.771" y="1241.17"/>
      <point x="352.683" y="1186.91"/>
      <point x="352.683" y="1141.7" type="qcurve"/>
      <point x="352.683" y="1094.22"/>
      <point x="330.075" y="987.964"/>
      <point x="302.945" y="879.446"/>
      <point x="280.338" y="773.189"/>
      <point x="280.338" y="725.713" type="qcurve"/>
      <point x="280.338" y="696.322"/>
      <point x="321.032" y="666.932"/>
      <point x="368.508" y="666.932" type="qcurve"/>
      <point x="415.985" y="666.932"/>
      <point x="483.808" y="714.409"/>
      <point x="522.242" y="777.711" type="qcurve"/>
      <point x="574.24" y="865.881"/>
      <point x="635.281" y="981.182"/>
      <point x="664.671" y="1053.53"/>
      <point x="671.454" y="1091.96"/>
      <point x="671.454" y="1103.26" type="qcurve"/>
      <point x="671.454" y="1173.35"/>
      <point x="605.891" y="1205" type="qcurve"/>
      <point x="825.187" y="1257" type="line"/>
      <point x="852.317" y="1257"/>
      <point x="904.315" y="1193.7"/>
      <point x="904.315" y="1139.44" type="qcurve"/>
      <point x="904.315" y="1101"/>
      <point x="863.621" y="997.007"/>
      <point x="816.144" y="895.272"/>
      <point x="777.711" y="811.623"/>
      <point x="777.711" y="793.536" type="qcurve"/>
      <point x="777.711" y="755.103"/>
      <point x="870.403" y="737.017"/>
      <point x="954.052" y="737.017" type="qcurve"/>
      <point x="1001.53" y="737.017"/>
      <point x="1078.4" y="804.84"/>
      <point x="1132.65" y="908.836"/>
      <point x="1162.04" y="1028.66"/>
      <point x="1162.04" y="1080.66" type="qcurve"/>
      <point x="1162.04" y="1155.26"/>
      <point x="1130.39" y="1227.61"/>
      <point x="1073.87" y="1259.26" type="qcurve"/>
      <point x="1293.17" y="1313.52" type="line"/>
      <point x="1347.43" y="1288.65"/>
      <point x="1388.12" y="1173.35"/>
    </contour>
  </outline>
</glyph>
